<svg width="24" height="24" viewBox="0 0 24 24" fill="none" xmlns="http://www.w3.org/2000/svg">
<path fill-rule="evenodd" clip-rule="evenodd" d="M0 12C0 5.4 5.4 0 12 0C18.6 0 24 5.4 24 12C24 18.6 18.6 24 12 24C5.4 24 0 18.6 0 12ZM2.84998 12C2.84998 7.01251 6.89997 2.85001 12 2.85001C17.0625 2.85001 21.15 6.97501 21.15 12C21.15 17.025 17.0625 21.15 12 21.15C6.89997 21.15 2.84998 16.9875 2.84998 12Z" fill="#75C1D4"/>
<path fill-rule="evenodd" clip-rule="evenodd" d="M2.84961 11.9996C2.84961 7.01211 6.89961 2.84961 11.9996 2.84961C17.0621 2.84961 21.1496 6.97461 21.1496 11.9996C21.1496 17.0246 17.0621 21.1496 11.9996 21.1496C6.89961 21.1496 2.84961 16.9871 2.84961 11.9996ZM3.78711 13.6871C7.23711 13.9496 10.0121 16.7246 10.2371 20.1746C7.01211 19.4996 4.46211 16.9496 3.78711 13.6871ZM13.7621 20.2121C13.9871 16.7621 16.7621 13.9496 20.2121 13.7246C19.5371 16.9496 16.9871 19.4996 13.7621 20.2121ZM4.34961 8.54961C6.78711 7.53711 9.33711 7.01211 11.9996 7.01211C14.6621 7.01211 17.2121 7.53711 19.6496 8.51211C18.2996 5.62461 15.3746 3.59961 11.9996 3.59961C8.62461 3.59961 5.69961 5.62461 4.34961 8.54961ZM11.9996 14.8496C10.4621 14.8496 9.18713 13.5746 9.18713 11.9996C9.18713 10.4246 10.4246 9.1871 11.9996 9.1871C13.5371 9.1871 14.8121 10.4246 14.8121 11.9996C14.8121 13.5746 13.5746 14.8496 11.9996 14.8496Z" fill="#75C1D4"/>
</svg>
