<svg width="30" height="28" viewBox="0 0 30 28" fill="none" xmlns="http://www.w3.org/2000/svg">
<path d="M15 2C8.4 2 3 7.4 3 14C3 20.6 8.4 26 15 26C21.6 26 27 20.6 27 14C27 7.4 21.6 2 15 2ZM15 25.25C8.8125 25.25 3.75 20.1875 3.75 14C3.75 7.8125 8.8125 2.75 15 2.75C21.1875 2.75 26.25 7.8125 26.25 14C26.25 20.1875 21.1875 25.25 15 25.25Z" fill="#A1A4A8"/>
<path d="M15 4.85001C9.89998 4.85001 5.84998 9.01251 5.84998 14C5.84998 18.9875 9.89998 23.15 15 23.15C20.0625 23.15 24.15 19.025 24.15 14C24.15 8.97501 20.0625 4.85001 15 4.85001ZM6.78748 15.6875C10.2375 15.95 13.0125 18.725 13.2375 22.175C10.0125 21.5 7.46248 18.95 6.78748 15.6875ZM16.7625 22.2125C16.9875 18.7625 19.7625 15.95 23.2125 15.725C22.5375 18.95 19.9875 21.5 16.7625 22.2125ZM23.025 11.6C23.25 12.3875 23.3625 13.25 23.3625 14C23.3625 14.225 23.3625 14.525 23.325 14.7875C23.325 14.9 23.25 14.975 23.1375 14.975C19.3125 15.2375 16.2375 18.35 15.975 22.2125C15.975 22.475 15.4875 22.4375 14.85 22.4375C14.4375 22.4375 13.9875 22.475 13.95 22.2125C13.6875 18.3875 10.6125 15.275 6.78748 14.975C6.59998 14.975 6.59998 14.675 6.59998 14.4125C6.59998 14.3 6.59998 14.15 6.59998 14.0375C6.59998 13.5875 6.74998 11.6375 7.04998 11.525C9.52498 10.3625 12.1875 9.80001 14.9625 9.80001C18.975 9.76251 22.95 11.2625 23.025 11.6ZM15 9.01251C12.3375 9.01251 9.78748 9.53751 7.34998 10.55C8.69998 7.62501 11.625 5.60001 15 5.60001C18.375 5.60001 21.3 7.62501 22.65 10.5125C20.2125 9.53751 17.6625 9.01251 15 9.01251Z" fill="#A1A4A8"/>
<path d="M12.1875 14C12.1875 15.575 13.4625 16.85 15 16.85C16.575 16.85 17.8125 15.575 17.8125 14C17.8125 12.425 16.5375 11.1875 15 11.1875C13.425 11.1875 12.1875 12.425 12.1875 14ZM17.0625 14C17.0625 15.1625 16.125 16.1 15 16.1C13.875 16.1 12.9375 15.1625 12.9375 14C12.9375 12.8375 13.875 11.9375 15 11.9375C16.125 11.9375 17.0625 12.8375 17.0625 14Z" fill="#A1A4A8"/>
</svg>
