<svg width="156" height="145" viewBox="0 0 156 145" fill="none" xmlns="http://www.w3.org/2000/svg">
<path d="M40.77 13.8576C17.5564 33.2697 -10.8506 79.3019 15.8311 112.035C66.758 174.513 103.414 123.266 138.32 113.329C173.226 103.392 149.144 17.6314 113.927 5.09119C82.5365 -6.08691 53.6359 3.09886 40.77 13.8576Z" fill="#DFF5FB"/>
<path d="M92.8689 115.777C92.2006 115.911 91.5264 116.044 90.8464 116.176C90.8361 116.176 90.8264 116.18 90.8162 116.182C87.1995 116.88 83.4179 117.529 79.516 118.11C71.3841 119.323 63.6559 120.111 56.7894 120.488C54.7602 120.6 52.8059 120.675 50.9393 120.715C50.1996 120.731 49.4745 120.741 48.7638 120.746C48.0762 120.751 47.4022 120.751 46.7419 120.746C35.994 120.653 28.9861 119.193 28.5782 116.46C28.145 113.55 35.2888 109.837 46.7419 106.437C47.4018 106.242 48.0758 106.047 48.7638 105.853C49.4749 105.652 50.2 105.453 50.9393 105.257C52.8045 104.76 54.7545 104.273 56.7894 103.798C62.8697 102.38 69.645 101.086 76.8173 100.016C81.6582 99.2941 86.3559 98.7225 90.8137 98.2988L90.844 98.2958C91.524 98.2318 92.1982 98.1713 92.8665 98.1145C112.595 96.4123 127.162 97.6915 127.754 101.67C128.376 105.815 113.586 111.596 92.8689 115.777Z" fill="#FF9F33"/>
<path d="M104.555 144H116.929" stroke="white" stroke-width="0.5" stroke-miterlimit="10"/>
<path d="M131.532 144H143.906" stroke="white" stroke-width="0.5" stroke-miterlimit="10"/>
<path d="M92.8689 12.9473V115.778C92.2005 115.912 91.5263 116.045 90.8463 116.177C90.836 116.177 90.8264 116.181 90.8161 116.182C87.1994 116.881 83.4178 117.529 79.5159 118.111C71.384 119.324 63.6558 120.112 56.7892 120.489C54.76 120.6 52.8058 120.676 50.9391 120.716C50.1995 120.732 49.4743 120.742 48.7637 120.747V21.4526L92.8689 12.9473Z" fill="#FEF7EF" stroke="#FF9F33" stroke-width="0.5" stroke-miterlimit="10"/>
<path d="M90.8153 15.8115V116.184C87.1986 116.882 83.417 117.531 79.5151 118.112C71.3833 119.325 63.6551 120.113 56.7886 120.49C54.7594 120.602 52.8051 120.677 50.9385 120.717V23.6564L84.744 17.0056L90.8153 15.8115Z" fill="#DFF5FB" stroke="#FF9F33" stroke-width="0.5" stroke-miterlimit="10"/>
<path d="M90.8462 15.4834V116.177C90.8359 116.177 90.8262 116.181 90.8159 116.182C87.1993 116.881 83.4176 117.529 79.5157 118.111C71.3838 119.323 63.6556 120.111 56.7891 120.489V23.9839L84.7447 17.0044L90.8462 15.4834Z" fill="#FEF7EF" stroke="#FF9F33" stroke-width="0.8" stroke-miterlimit="10"/>
<path d="M48.7657 21.5343L92.8684 13.032L90.8459 11.4434L46.7432 19.9457L48.7657 21.5343Z" fill="#FEF7EF" stroke="#FF9F33" stroke-width="0.5" stroke-miterlimit="10"/>
<path d="M48.7651 21.5346V120.746C48.0774 120.751 47.4035 120.751 46.7432 120.746V19.9453L48.7651 21.5346Z" fill="#FEF7EF" stroke="#FF9F33" stroke-width="0.5" stroke-miterlimit="10"/>
<path d="M85.8284 47.374L36.6055 38.6592L31.2107 69.1303L80.4336 77.845L85.8284 47.374Z" fill="#FF9F33"/>
<path d="M35.039 36.2979L36.6011 38.663L31.2047 69.1342L29.6426 66.769L35.039 36.2979Z" fill="#FEF7EF" stroke="#FF9F33" stroke-width="0.5" stroke-miterlimit="10"/>
<path d="M35.0391 36.2979L36.6011 38.663L85.824 47.3805L84.2619 45.0153L35.0391 36.2979Z" fill="#FEF7EF" stroke="#FF9F33" stroke-width="0.5" stroke-miterlimit="10"/>
<path d="M35.0391 36.2975L67.2923 16.7422L84.2619 45.0149L85.824 47.3801L67.143 18.8246L36.6011 38.6627L35.0391 36.2975Z" fill="#FF9F33"/>
<path d="M29.6459 17.9473C29.6459 17.9473 0.678204 51.2961 1.00271 82.0422C1.32721 112.788 18.1518 118.118 18.1518 118.118" stroke="#FF9F33" stroke-width="0.5" stroke-miterlimit="10" stroke-linecap="round"/>
<path d="M40.5606 51.3657L40.1651 53.606L43.1736 54.1371L42.9228 55.5581L39.9143 55.0271L39.4962 57.3954L42.8888 57.9943L42.6311 59.4538L37.4463 58.5385L39.026 49.5898L44.2108 50.5051L43.9532 51.9645L40.5606 51.3657Z" fill="white"/>
<path d="M55.5797 52.5252L54.0023 61.4611L52.21 61.1447L53.236 55.3325L49.816 60.7221L48.459 60.4825L47.0782 54.2455L46.0522 60.0577L44.2599 59.7413L45.8373 50.8054L47.8728 51.1648L49.542 58.3107L53.557 52.1682L55.5797 52.5252Z" fill="white"/>
<path d="M63.3798 56.7536C63.2954 57.2315 63.1011 57.6593 62.7968 58.0368C62.5011 58.4158 62.0874 58.6904 61.5557 58.8606C61.0326 59.0322 60.404 59.0533 59.67 58.9237L58.1722 58.6593L57.5665 62.0903L55.7742 61.7739L57.3517 52.838L60.6418 53.4188C61.3331 53.5409 61.9009 53.7643 62.3452 54.0892C62.7895 54.414 63.0942 54.8066 63.2594 55.267C63.433 55.7289 63.4732 56.2244 63.3798 56.7536ZM59.8486 57.4635C60.3436 57.5509 60.7302 57.5047 61.0083 57.325C61.288 57.1368 61.464 56.8378 61.5363 56.4282C61.6899 55.5576 61.2803 55.0365 60.3074 54.8647L58.8863 54.6139L58.4276 57.2127L59.8486 57.4635Z" fill="white"/>
<path d="M71.2214 55.2864L70.966 56.7331L68.5848 56.3127L67.2628 63.8019L65.4705 63.4855L66.7926 55.9963L64.4114 55.576L64.6667 54.1294L71.2214 55.2864Z" fill="white"/>
<path d="M79.6343 56.7715L75.5847 62.0631L75.0355 65.174L73.2433 64.8576L73.7924 61.7467L71.7866 55.3862L73.8093 55.7433L75.0087 60.1661L77.6371 56.419L79.6343 56.7715Z" fill="white"/>
</svg>
