<svg width="137" height="144" viewBox="0 0 137 144" fill="none" xmlns="http://www.w3.org/2000/svg">
<path opacity="0.25" d="M133.515 125.948C133.086 126.725 132.614 127.49 132.099 128.244C132.002 128.387 131.903 128.529 131.802 128.669C131.76 128.731 131.715 128.791 131.671 128.851C131.608 128.936 131.55 129.017 131.489 129.101C131.442 129.164 131.393 129.226 131.345 129.292C131.289 129.367 131.231 129.443 131.172 129.518C131.074 129.643 130.976 129.771 130.875 129.896L130.688 130.128C130.652 130.17 130.618 130.212 130.584 130.253C130.296 130.598 130.004 130.934 129.703 131.26C129.641 131.332 129.572 131.403 129.506 131.473C129.44 131.543 129.381 131.606 129.319 131.673C129.256 131.739 129.177 131.819 129.106 131.891C129.008 131.993 128.908 132.093 128.808 132.192C128.776 132.224 128.746 132.255 128.71 132.289L128.517 132.476L128.506 132.485C128.405 132.582 128.303 132.679 128.199 132.775L128.157 132.814C127.966 132.992 127.773 133.167 127.577 133.338C127.565 133.35 127.551 133.36 127.539 133.373C127.342 133.545 127.143 133.715 126.942 133.881C126.853 133.954 126.766 134.026 126.676 134.098L126.618 134.144C126.415 134.307 126.209 134.468 126.003 134.625C125.931 134.679 125.861 134.731 125.789 134.786C125.731 134.829 125.674 134.873 125.616 134.914C125.508 134.994 125.399 135.072 125.29 135.15C125.195 135.219 125.099 135.286 125.001 135.354C124.964 135.38 124.924 135.407 124.887 135.432C124.807 135.488 124.726 135.543 124.646 135.598C124.618 135.616 124.591 135.635 124.563 135.653C124.455 135.725 124.347 135.797 124.239 135.868C124.13 135.939 124.021 136.009 123.911 136.079C123.801 136.149 123.69 136.219 123.578 136.287C123.383 136.407 123.186 136.526 122.988 136.644C122.878 136.706 122.768 136.774 122.656 136.836C122.64 136.846 122.624 136.856 122.608 136.864C122.483 136.936 122.358 137.007 122.233 137.077L122.02 137.194L121.962 137.226C121.894 137.263 121.826 137.3 121.756 137.337C121.652 137.393 121.545 137.45 121.439 137.505C121.345 137.554 121.252 137.603 121.157 137.651L120.953 137.754L120.843 137.809C120.655 137.903 120.468 137.997 120.281 138.085C120.213 138.117 120.145 138.151 120.076 138.183L120.051 138.195C119.918 138.257 119.785 138.32 119.652 138.382C119.634 138.39 119.617 138.398 119.6 138.405C119.483 138.459 119.365 138.511 119.249 138.563C119.072 138.642 118.894 138.721 118.715 138.796C118.564 138.859 118.413 138.925 118.261 138.987C118.108 139.05 117.969 139.107 117.823 139.165C117.807 139.173 117.79 139.18 117.773 139.185C117.645 139.237 117.515 139.288 117.385 139.338C117.364 139.348 117.342 139.355 117.323 139.363C117.177 139.42 117.031 139.476 116.886 139.53C116.77 139.575 116.653 139.618 116.537 139.66C116.334 139.735 116.13 139.808 115.925 139.879C115.778 139.931 115.631 139.982 115.482 140.033C115.349 140.079 115.213 140.124 115.08 140.169C114.969 140.205 114.858 140.242 114.747 140.278C114.635 140.313 114.508 140.354 114.387 140.393C114.364 140.401 114.342 140.407 114.319 140.414C114.201 140.452 114.084 140.488 113.965 140.525C113.551 140.653 113.135 140.776 112.715 140.894L112.311 141.007C112.186 141.041 112.061 141.075 111.936 141.108C111.757 141.158 111.575 141.205 111.394 141.253L111.06 141.338C110.634 141.448 110.206 141.552 109.776 141.651L109.487 141.719C109.274 141.768 109.061 141.816 108.846 141.864C108.742 141.887 108.638 141.911 108.534 141.933C108.391 141.965 108.251 141.996 108.109 142.025C107.537 142.15 106.962 142.267 106.386 142.375L106.003 142.45C105.567 142.533 105.129 142.613 104.691 142.689C101.996 143.166 99.2758 143.511 96.5317 143.724C95.5215 143.804 94.5101 143.866 93.4974 143.912C74.4057 144.755 54.7175 139.49 38.3678 129.55C38.1873 129.44 38.0062 129.33 37.8263 129.218L37.4434 128.98C37.0495 128.734 36.6578 128.485 36.2685 128.235L35.9318 128.016C35.7976 127.93 35.6645 127.842 35.5302 127.754C35.1834 127.527 34.8386 127.298 34.4959 127.067C34.3441 126.964 34.1917 126.862 34.0412 126.755C33.9981 126.726 33.9543 126.696 33.9125 126.666C33.7551 126.56 33.6002 126.45 33.4428 126.342C33.4304 126.334 33.4185 126.326 33.4072 126.317C33.2361 126.198 33.0655 126.077 32.895 125.957C32.3404 125.565 31.7911 125.167 31.2473 124.764C31.1567 124.698 31.0674 124.63 30.9775 124.562C30.8582 124.475 30.7401 124.385 30.6208 124.295L30.5977 124.277C30.5446 124.238 30.4903 124.198 30.4372 124.156C30.2767 124.036 30.1168 123.913 29.9562 123.79C29.5544 123.48 29.1547 123.168 28.757 122.853C28.6096 122.736 28.4622 122.617 28.316 122.499C28.2817 122.472 28.2473 122.443 28.2117 122.416L27.8563 122.126C27.7814 122.066 27.706 122.003 27.6302 121.939C27.5053 121.838 27.3804 121.735 27.2554 121.631L26.7614 121.217C26.5353 121.026 26.3098 120.833 26.0849 120.639C25.9556 120.527 25.8251 120.414 25.6952 120.3C25.6764 120.284 25.6571 120.268 25.6383 120.25C25.5871 120.207 25.5372 120.162 25.4859 120.117C25.3554 120.003 25.2236 119.887 25.0931 119.77C25.0599 119.741 25.0262 119.711 24.9925 119.681C24.837 119.543 24.6802 119.403 24.5284 119.264C24.5247 119.264 24.5222 119.257 24.5184 119.254C24.1399 118.912 23.7651 118.566 23.3941 118.217C23.273 118.103 23.1518 117.988 23.0306 117.872C22.9775 117.823 22.9232 117.771 22.8701 117.72C22.7989 117.653 22.7279 117.585 22.6571 117.516C22.4928 117.359 22.3304 117.204 22.1674 117.043C21.98 116.861 21.797 116.677 21.6115 116.493C21.4449 116.327 21.2784 116.16 21.1118 115.994L21.01 115.891C20.8638 115.743 20.7181 115.594 20.5728 115.444C20.5309 115.401 20.4897 115.359 20.4479 115.319C20.3229 115.189 20.198 115.058 20.0731 114.926C20.0394 114.891 20.0056 114.857 19.9732 114.821C19.8482 114.693 19.7302 114.565 19.609 114.435C19.5715 114.397 19.5341 114.356 19.4972 114.316L19.4091 114.222C19.2424 114.043 19.0775 113.863 18.9095 113.683C15.7753 110.263 12.9582 106.565 10.4929 102.636C10.0136 101.87 9.5489 101.095 9.09877 100.312C9.05005 100.229 9.00133 100.145 8.95511 100.062C8.6199 99.4732 8.29324 98.8792 7.97511 98.28C5.78402 94.1687 4.02208 89.8428 2.71717 85.3706C0.110063 76.4119 -0.838712 66.8304 0.837106 57.7168C1.794 52.5044 3.61223 47.4439 6.46918 42.7394C12.3523 33.0536 22.0975 25.5577 33.2729 22.301C43.2666 19.3897 54.1347 19.8488 64.1547 22.6408C73.7037 25.301 82.6811 30.1079 89.5761 36.9792C96.4968 43.8755 99.5542 51.595 101.986 60.6518C104.304 69.2714 110.412 74.5443 117.924 79.3025C125.794 84.2913 132.107 92.3568 135.101 101.226C137.849 109.381 137.783 118.221 133.515 125.948Z" fill="#D6F3EC"/>
<path opacity="0.25" d="M133.515 125.947C133.086 126.725 132.614 127.49 132.099 128.244C132.002 128.386 131.902 128.529 131.802 128.669C131.759 128.731 131.715 128.79 131.671 128.851C131.608 128.935 131.549 129.017 131.489 129.101C131.441 129.163 131.393 129.226 131.345 129.292C131.288 129.367 131.231 129.443 131.172 129.518C131.074 129.642 130.975 129.771 130.875 129.896L130.687 130.128C130.652 130.17 130.617 130.211 130.584 130.253C130.296 130.598 130.004 130.934 129.703 131.26C129.641 131.332 129.572 131.403 129.506 131.473C129.439 131.543 129.381 131.606 129.318 131.672C129.256 131.739 129.177 131.819 129.106 131.891C129.007 131.993 128.907 132.093 128.808 132.192C128.776 132.224 128.746 132.255 128.71 132.288L128.516 132.476L128.506 132.484C128.405 132.582 128.302 132.679 128.199 132.775L128.157 132.814C127.966 132.992 127.773 133.166 127.577 133.338C127.564 133.349 127.551 133.36 127.539 133.373C127.342 133.545 127.143 133.714 126.942 133.881C126.853 133.954 126.766 134.026 126.676 134.098L126.618 134.144C126.415 134.307 126.209 134.468 126.002 134.625C125.931 134.679 125.86 134.731 125.789 134.785C125.731 134.829 125.674 134.872 125.616 134.914C125.508 134.994 125.398 135.072 125.29 135.15C125.195 135.219 125.098 135.286 125 135.354C124.964 135.38 124.924 135.406 124.887 135.432C124.807 135.488 124.726 135.543 124.646 135.598C124.618 135.616 124.591 135.634 124.563 135.653C124.454 135.725 124.347 135.797 124.238 135.868C124.13 135.939 124.021 136.008 123.911 136.078C123.801 136.148 123.69 136.218 123.578 136.286C123.382 136.407 123.186 136.526 122.987 136.644C122.877 136.706 122.767 136.774 122.656 136.836C122.64 136.846 122.624 136.855 122.608 136.864C122.483 136.935 122.358 137.007 122.233 137.076L122.02 137.194L121.962 137.226C121.894 137.263 121.826 137.3 121.756 137.336C121.651 137.393 121.545 137.45 121.439 137.504C121.345 137.554 121.252 137.603 121.157 137.651L120.952 137.754L120.842 137.809C120.655 137.903 120.468 137.997 120.28 138.085C120.213 138.117 120.145 138.151 120.075 138.183L120.051 138.195C119.918 138.257 119.785 138.319 119.651 138.382C119.634 138.389 119.617 138.398 119.6 138.405C119.483 138.459 119.365 138.511 119.249 138.563C119.072 138.642 118.894 138.72 118.715 138.796C118.564 138.858 118.413 138.925 118.26 138.987C118.108 139.05 117.969 139.107 117.823 139.165C117.807 139.173 117.79 139.18 117.773 139.185C117.644 139.236 117.515 139.287 117.385 139.338C117.364 139.348 117.342 139.355 117.323 139.363C117.177 139.42 117.031 139.476 116.886 139.53C116.769 139.575 116.653 139.618 116.536 139.66C116.334 139.735 116.13 139.808 115.925 139.878C115.777 139.931 115.631 139.982 115.482 140.033C115.348 140.079 115.213 140.124 115.08 140.168C114.969 140.205 114.858 140.242 114.746 140.278C114.634 140.313 114.508 140.354 114.387 140.393C114.364 140.401 114.341 140.407 114.319 140.414C114.201 140.452 114.084 140.488 113.964 140.524C113.551 140.653 113.135 140.776 112.715 140.893L112.311 141.007C112.186 141.041 112.061 141.075 111.936 141.108C111.756 141.158 111.575 141.205 111.393 141.253L111.06 141.338C110.634 141.448 110.206 141.552 109.776 141.65L109.486 141.719C109.274 141.768 109.061 141.816 108.846 141.864C108.742 141.887 108.638 141.911 108.534 141.933C108.391 141.965 108.25 141.995 108.109 142.025C107.536 142.15 106.962 142.267 106.385 142.375L106.002 142.449C105.566 142.533 105.129 142.612 104.691 142.689C101.995 143.166 99.2756 143.511 96.5315 143.724C95.5213 143.803 94.5098 143.866 93.4972 143.912C74.4054 144.755 54.7172 139.489 38.3675 129.549C38.187 129.439 38.0059 129.33 37.826 129.218L37.4431 128.98C37.0492 128.734 36.6576 128.485 36.2682 128.235L35.9316 128.016C35.7973 127.93 35.6642 127.842 35.53 127.754C35.1831 127.527 34.8383 127.298 34.4956 127.067C34.9183 126.776 35.3426 126.487 35.7686 126.2C40.6798 122.895 45.7954 119.887 51.0776 117.268C51.2988 117.16 51.5193 117.051 51.741 116.943C56.2038 114.757 60.8074 112.87 65.521 111.297C74.7758 108.226 84.3954 106.487 94.1986 106.537C102.081 106.575 109.986 107.759 117.819 106.881C123.889 106.2 129.796 104.232 135.104 101.213C137.849 109.381 137.783 118.22 133.515 125.947Z" fill="#D6F3EC"/>
<path opacity="0.8" d="M129.105 131.889C129.006 131.991 128.906 132.091 128.807 132.19C128.775 132.222 128.745 132.253 128.709 132.286L128.515 132.474L128.505 132.483C128.404 132.58 128.301 132.677 128.198 132.773L128.156 132.812C127.965 132.99 127.772 133.164 127.576 133.336C127.563 133.348 127.55 133.358 127.538 133.371C127.341 133.543 127.142 133.713 126.941 133.879C126.852 133.952 126.765 134.024 126.675 134.096L126.617 134.142C126.414 134.305 126.208 134.466 126.001 134.623C125.93 134.677 125.86 134.729 125.788 134.784C125.73 134.827 125.673 134.87 125.615 134.912C125.507 134.992 125.397 135.07 125.289 135.148C125.194 135.217 125.097 135.284 124.999 135.352C124.963 135.378 124.923 135.404 124.886 135.43C124.806 135.486 124.725 135.541 124.645 135.596C124.617 135.614 124.59 135.632 124.562 135.651C124.454 135.723 124.346 135.795 124.237 135.866C124.129 135.937 124.02 136.007 123.91 136.077C123.8 136.146 123.689 136.216 123.577 136.285C123.381 136.405 123.185 136.524 122.986 136.642C122.876 136.704 122.766 136.772 122.655 136.834C122.639 136.844 122.623 136.854 122.607 136.862C122.482 136.933 122.357 137.005 122.232 137.075L122.019 137.192L121.961 137.224C121.893 137.261 121.825 137.298 121.755 137.334C121.65 137.391 121.544 137.448 121.438 137.502C121.344 137.552 121.251 137.601 121.156 137.649L120.951 137.752L120.841 137.807C120.654 137.901 120.467 137.995 120.279 138.083C120.212 138.115 120.144 138.149 120.074 138.181L120.05 138.193C119.917 138.255 119.784 138.318 119.65 138.38C119.633 138.388 119.616 138.396 119.599 138.403C119.482 138.457 119.364 138.509 119.248 138.561C119.071 138.64 118.893 138.719 118.714 138.794C118.563 138.857 118.412 138.923 118.259 138.985C118.107 139.048 117.968 139.105 117.822 139.163C117.806 139.171 117.789 139.178 117.772 139.183C117.643 139.235 117.514 139.286 117.384 139.336C117.363 139.346 117.341 139.353 117.322 139.361C117.176 139.418 117.03 139.474 116.885 139.528C116.768 139.573 116.652 139.616 116.535 139.658C116.333 139.733 116.129 139.806 115.924 139.877C115.776 139.929 115.63 139.98 115.481 140.031C115.347 140.077 115.212 140.122 115.079 140.166C114.968 140.203 114.857 140.24 114.745 140.276C114.633 140.311 114.507 140.352 114.386 140.391C114.363 140.399 114.341 140.405 114.318 140.412C114.2 140.45 114.083 140.486 113.963 140.522C113.55 140.651 113.134 140.774 112.714 140.892L112.31 141.005C112.185 141.039 112.06 141.073 111.935 141.106C111.755 141.156 111.574 141.203 111.392 141.251L111.059 141.336C110.633 141.446 110.205 141.55 109.775 141.649L109.485 141.717C109.273 141.766 109.06 141.814 108.845 141.862C108.741 141.885 108.637 141.909 108.533 141.931C108.39 141.963 108.249 141.993 108.108 142.023C107.535 142.148 106.961 142.265 106.384 142.373L106.001 142.447C105.565 142.531 105.128 142.611 104.69 142.687C101.994 143.164 99.2746 143.509 96.5305 143.722C95.5203 143.801 94.5089 143.864 93.4962 143.91C74.4045 144.753 54.7162 139.487 38.3666 129.548C38.186 129.438 38.0049 129.328 37.825 129.216L37.4421 128.978C37.0482 128.732 36.6566 128.483 36.2673 128.233L35.9306 128.014C35.7963 127.928 35.6633 127.84 35.529 127.752C35.1821 127.525 34.8373 127.296 34.4946 127.065C34.3428 126.962 34.1904 126.86 34.0399 126.753C33.9968 126.724 33.9531 126.694 33.9112 126.664C33.7538 126.558 33.5989 126.448 33.4415 126.34C33.4291 126.332 33.4172 126.324 33.4059 126.315C33.2348 126.196 33.0643 126.075 32.8938 125.955C32.3391 125.563 31.7899 125.165 31.246 124.762C31.1555 124.696 31.0662 124.628 30.9762 124.56C30.8569 124.473 30.7389 124.383 30.6196 124.293L30.5965 124.275C30.5434 124.236 30.489 124.196 30.4359 124.154C30.2754 124.033 30.1155 123.91 29.955 123.788C29.5532 123.478 29.1534 123.166 28.7557 122.851C28.6083 122.734 28.4609 122.615 28.3148 122.497C28.2804 122.469 28.2461 122.441 28.2105 122.414L27.8551 122.124C27.7801 122.064 27.7047 122.001 27.629 121.937C27.504 121.835 27.3791 121.733 27.2542 121.629L26.7601 121.215C26.534 121.024 26.3085 120.831 26.0837 120.637C25.9544 120.525 25.8238 120.412 25.6939 120.298C25.6752 120.281 25.6558 120.266 25.6371 120.248C25.5859 120.205 25.5359 120.16 25.4847 120.115C25.3541 120 25.2223 119.885 25.0918 119.768C25.0587 119.739 25.025 119.709 24.9912 119.679C24.8357 119.541 24.6789 119.401 24.5272 119.261C24.5234 119.261 24.5209 119.255 24.5172 119.252C24.1386 118.91 23.7639 118.564 23.3929 118.215C23.2717 118.101 23.1505 117.986 23.0294 117.87C22.9763 117.821 22.9219 117.769 22.8688 117.718C22.7976 117.651 22.7266 117.583 22.6558 117.514C22.4916 117.356 22.3292 117.202 22.1661 117.04C21.9788 116.859 21.7958 116.675 21.6102 116.491C21.4437 116.325 21.2771 116.158 21.1106 115.992L21.0088 115.889C20.8626 115.741 20.7169 115.592 20.5715 115.442C20.5297 115.399 20.4885 115.357 20.4466 115.317C20.3217 115.187 20.1968 115.056 20.0718 114.924C20.0381 114.889 20.0044 114.855 19.9719 114.819C19.847 114.691 19.7289 114.563 19.6078 114.433C19.5703 114.395 19.5328 114.354 19.496 114.314L19.4079 114.22C19.2411 114.041 19.0762 113.861 18.9082 113.681C19.1647 113.548 19.4231 113.419 19.6833 113.292C19.8083 113.229 19.9394 113.167 20.0681 113.104C20.5474 112.876 21.0302 112.656 21.5166 112.445C21.6627 112.382 21.8101 112.32 21.9575 112.257C24.0316 111.385 26.1645 110.661 28.3404 110.089C28.9829 109.918 29.63 109.76 30.2817 109.614C30.4416 109.578 30.6021 109.543 30.7632 109.509C31.2966 109.395 31.8321 109.289 32.3697 109.19C33.5402 108.975 34.7201 108.796 35.9094 108.655C39.9849 108.169 44.1479 108.096 48.3053 108.365C48.5614 108.38 48.8168 108.398 49.0736 108.418C54.0236 108.786 58.9567 109.631 63.7112 110.829C64.3133 110.98 64.914 111.137 65.5132 111.298C73.3245 113.403 80.8785 116.308 88.3913 119.351C91.0421 120.426 93.6873 121.516 96.3369 122.599C97.253 122.974 98.1676 123.345 99.0808 123.712C100.05 124.101 101.02 124.488 101.991 124.872H101.995C102.233 124.966 102.466 125.059 102.703 125.151C105.348 126.188 108.005 127.19 110.683 128.127C111.043 128.252 111.4 128.377 111.758 128.502C113.187 128.992 114.625 129.465 116.076 129.893C119.4 130.875 122.786 131.627 126.237 131.839C127.193 131.891 128.149 131.908 129.105 131.889Z" fill="#D6F3EC"/>
<path d="M133.515 125.947C133.087 126.724 132.615 127.489 132.1 128.242C132.002 128.385 131.903 128.527 131.802 128.667C131.759 128.729 131.715 128.792 131.671 128.849C131.608 128.933 131.55 129.015 131.488 129.099C131.441 129.161 131.394 129.224 131.345 129.29C131.289 129.366 131.231 129.441 131.172 129.516C131.074 129.643 130.975 129.769 130.875 129.894L130.688 130.126C130.653 130.168 130.619 130.21 130.585 130.251C130.297 130.596 130.004 130.931 129.704 131.258C129.638 131.33 129.572 131.401 129.507 131.471C129.444 131.538 129.382 131.604 129.319 131.671C129.257 131.737 129.178 131.817 129.107 131.89C129.008 131.991 128.908 132.091 128.809 132.191L128.713 132.287L128.517 132.474C128.513 132.477 128.51 132.48 128.507 132.483C128.405 132.581 128.303 132.677 128.201 132.774C128.186 132.786 128.172 132.8 128.158 132.813C127.967 132.99 127.774 133.165 127.578 133.337C127.565 133.348 127.552 133.359 127.539 133.371C127.342 133.544 127.142 133.714 126.941 133.88L126.677 134.096L126.618 134.143C126.415 134.306 126.21 134.467 126.003 134.624L125.789 134.784C125.731 134.827 125.674 134.87 125.616 134.913C125.508 134.993 125.399 135.071 125.291 135.148C125.194 135.218 125.098 135.285 125.001 135.352L124.887 135.431C124.807 135.487 124.727 135.542 124.645 135.597C124.618 135.614 124.59 135.634 124.563 135.651C124.455 135.723 124.347 135.795 124.239 135.866C124.13 135.937 124.021 136.007 123.911 136.076C123.801 136.145 123.69 136.216 123.579 136.284C123.383 136.406 123.186 136.525 122.988 136.642C122.878 136.707 122.768 136.771 122.657 136.834C122.64 136.844 122.624 136.854 122.608 136.862C122.483 136.934 122.358 137.004 122.233 137.074C122.162 137.113 122.091 137.153 122.019 137.192C122 137.203 121.981 137.213 121.961 137.223C121.893 137.261 121.825 137.298 121.756 137.334C121.651 137.391 121.545 137.448 121.439 137.502C121.344 137.552 121.251 137.601 121.156 137.648L120.953 137.752L120.842 137.807C120.656 137.901 120.468 137.993 120.28 138.083C120.212 138.115 120.143 138.149 120.074 138.181L120.05 138.193L119.65 138.38C119.633 138.387 119.616 138.395 119.599 138.403C119.482 138.456 119.364 138.508 119.247 138.561C119.071 138.639 118.893 138.718 118.714 138.793C118.563 138.855 118.412 138.922 118.259 138.985C118.106 139.048 117.968 139.105 117.822 139.163C117.805 139.171 117.789 139.177 117.772 139.183C117.643 139.235 117.514 139.286 117.385 139.336C117.363 139.345 117.342 139.353 117.322 139.361C117.177 139.418 117.031 139.473 116.885 139.528C116.769 139.573 116.652 139.616 116.535 139.657C116.333 139.733 116.129 139.806 115.925 139.877C115.777 139.929 115.63 139.98 115.482 140.03L115.079 140.166C114.969 140.203 114.857 140.24 114.746 140.274C114.635 140.309 114.507 140.352 114.387 140.389C114.364 140.398 114.342 140.405 114.319 140.411C114.201 140.449 114.083 140.486 113.964 140.522C113.551 140.649 113.134 140.772 112.715 140.891L112.309 141.004C112.184 141.038 112.059 141.073 111.935 141.106C111.754 141.155 111.574 141.203 111.392 141.249C111.282 141.279 111.17 141.308 111.058 141.336C110.632 141.446 110.205 141.55 109.774 141.648L109.485 141.715C109.273 141.765 109.059 141.813 108.845 141.861C108.741 141.884 108.635 141.908 108.533 141.93C108.391 141.962 108.25 141.993 108.108 142.022C107.536 142.146 106.962 142.263 106.385 142.372C106.26 142.398 106.129 142.421 106.002 142.446C105.566 142.529 105.129 142.609 104.69 142.685C101.995 143.163 99.2752 143.508 96.5311 143.722C95.5218 143.8 94.5106 143.863 93.4974 143.909C74.4045 144.753 54.7169 139.487 38.3672 129.547C41.9755 127.048 46.0498 125.027 49.79 123.488C51.0484 122.972 52.3184 122.503 53.6001 122.08C53.842 121.999 54.0844 121.92 54.3271 121.844C65.2115 118.396 76.8173 118.138 88.4013 119.343C95.1352 120.043 101.862 121.238 108.434 122.591C108.64 122.632 108.846 122.676 109.052 122.716C110.628 123.042 112.205 123.376 113.786 123.7C115.178 123.985 116.573 124.262 117.971 124.521H117.975C119.191 124.745 120.403 124.954 121.622 125.14C124.635 125.599 127.66 125.917 130.7 125.972C131.539 125.987 132.38 125.981 133.222 125.954L133.515 125.947Z" fill="#FF9F33"/>
<path d="M72.2522 7.13771C66.6511 7.07413 61.1168 8.35819 56.1159 10.8817C55.583 11.1498 55.0582 11.4311 54.5417 11.7254C54.4628 11.7708 54.3839 11.8161 54.3062 11.8618C52.9421 12.6538 51.6343 13.5391 50.3922 14.5113C49.8166 14.9611 49.2563 15.4287 48.7113 15.914C47.7798 16.743 46.894 17.622 46.058 18.5471C41.6608 23.4162 38.6769 29.5404 37.7339 36.3093C37.7164 36.4335 37.7002 36.5523 37.6858 36.6741C37.6803 36.6972 37.6792 36.7207 37.6768 36.7439C37.6612 36.8628 37.6464 36.9813 37.6332 37.1008C37.6171 37.246 37.6009 37.3917 37.5862 37.5391C37.574 37.6582 37.5625 37.7779 37.5517 37.8982L37.5493 37.9246C37.5294 38.1438 37.5119 38.3639 37.4967 38.5851L37.4757 38.9172L37.4583 39.2342L37.4553 39.2469C37.4439 39.4664 37.4355 39.6866 37.4258 39.9071C37.4262 39.9127 37.4261 39.9183 37.4257 39.9238L37.4196 40.1831C37.4161 40.3176 37.4139 40.4521 37.413 40.5868C37.4121 40.679 37.412 40.7708 37.411 40.8637L37.414 41.0603C37.4144 41.1099 37.4161 41.1591 37.4177 41.2089L37.4286 41.4318L37.4386 41.6397C37.4448 41.7696 37.454 41.9003 37.4637 42.0342C37.4701 42.1282 37.4773 42.2218 37.4869 42.3159C37.4929 42.3931 37.5006 42.4708 37.5078 42.5483C37.5411 42.8799 37.5819 43.2193 37.6303 43.5666L37.6318 43.5766C37.6593 43.7715 37.6893 43.969 37.722 44.1691L37.7263 44.1939C37.7434 44.2969 37.7604 44.4005 37.7804 44.5048C37.8091 44.6536 37.8336 44.8033 37.8655 44.9548C37.8991 45.1311 37.9349 45.3092 37.9715 45.4888C37.9975 45.6164 38.0251 45.7456 38.0532 45.875L38.1266 46.2021C38.1528 46.3208 38.1805 46.4385 38.2087 46.557C38.2547 46.7512 38.3027 46.947 38.3527 47.1444C38.3624 47.1846 38.3731 47.2231 38.3829 47.2627C38.413 47.382 38.4437 47.5016 38.475 47.6212C38.5034 47.7308 38.5332 47.84 38.5631 47.9512C38.5683 47.9723 38.5748 47.9938 38.581 48.0158L38.6726 48.3473L38.7465 48.6103L38.7723 48.6987C38.8744 49.0506 38.9805 49.4069 39.0908 49.7677L39.1115 49.8369L39.2307 50.2167C39.2704 50.343 39.3118 50.4711 39.3532 50.5985C39.4756 50.9819 39.6051 51.3697 39.7416 51.762C39.7863 51.8921 39.8316 52.023 39.8776 52.1548L39.9756 52.4351C40.0032 52.513 40.0304 52.5901 40.0597 52.6691C40.3064 53.3634 40.5689 54.0684 40.8474 54.7841C40.9242 54.9836 41.0025 55.1836 41.0821 55.3842L41.2471 55.798L41.4142 56.2137C41.469 56.3552 41.5269 56.4917 41.5835 56.6311L41.7561 57.0507C41.8547 57.2883 41.9543 57.5262 42.0549 57.7643C42.1329 57.9487 42.2111 58.1344 42.2915 58.3193C42.3511 58.462 42.4156 58.6059 42.4735 58.7481C42.63 59.1105 42.7894 59.4751 42.9517 59.8419C43.0397 60.0408 43.1292 60.2414 43.2194 60.4415C43.2319 60.4695 43.2437 60.498 43.2575 60.5264C43.4432 60.9407 43.6324 61.3571 43.8251 61.7757C43.892 61.9202 43.9596 62.0648 44.0277 62.2095C44.1625 62.5025 44.3001 62.7948 44.4385 63.0887C44.5085 63.2338 44.577 63.3825 44.6471 63.5296C45.1586 64.6136 45.6899 65.7039 46.2411 66.8008C46.3488 67.0192 46.4584 67.2349 46.5665 67.4514C46.9546 68.2259 47.3502 69.002 47.7533 69.78L48.0593 70.367L48.3974 71.013C48.5347 71.2749 48.6725 71.5367 48.8107 71.7984C48.9305 72.0254 49.0511 72.2514 49.1714 72.4787C49.6857 73.4434 50.2062 74.4066 50.7327 75.3682C50.8601 75.601 50.9887 75.834 51.1168 76.0663C51.245 76.2986 51.3825 76.5479 51.5159 76.7879C51.6209 76.9787 51.7269 77.1695 51.8337 77.3603L52.1062 77.8481C52.2713 78.1444 52.4362 78.4392 52.6011 78.7326L52.8502 79.1736C53.2663 79.908 53.6829 80.6381 54.1002 81.3638C54.2292 81.5873 54.3575 81.8107 54.4852 82.0339C54.8571 82.6794 55.2288 83.318 55.6005 83.9498L55.8506 84.3757C57.3108 86.8634 58.7602 89.2651 60.1496 91.5253C60.2124 91.6276 60.2741 91.7297 60.3372 91.8309L60.5221 92.132L60.7135 92.4436L61.0786 93.0331L61.2643 93.3306L61.4472 93.6241C61.7512 94.1147 62.0515 94.5962 62.3482 95.0688L62.7017 95.6318C63.639 97.1236 64.5306 98.5249 65.3621 99.8149C65.4629 99.9713 65.5621 100.126 65.6597 100.278C65.9997 100.805 66.3281 101.311 66.6448 101.798C66.9001 102.192 67.1471 102.572 67.3855 102.939C67.4739 103.074 67.5622 103.207 67.6476 103.339C68.2226 104.216 68.742 105.004 69.1975 105.688L69.7334 106.508C69.7639 106.553 69.793 106.598 69.8219 106.641C70.0471 106.977 70.2482 107.277 70.4251 107.54L70.4859 107.629C70.5457 107.717 70.601 107.801 70.6553 107.88C70.688 107.928 70.7199 107.975 70.75 108.021C70.7706 108.05 70.7905 108.08 70.8092 108.109C70.8394 108.152 70.8674 108.193 70.8938 108.233C70.9761 108.353 71.0449 108.455 71.1012 108.539L71.1327 108.585C71.1327 108.585 71.1327 108.585 71.1361 108.589C71.1543 108.618 71.1717 108.642 71.186 108.666L71.2087 108.699L71.245 108.752C71.2713 108.789 71.284 108.809 71.284 108.809L71.4109 108.63L71.5522 108.431L71.5958 108.37C71.8057 108.072 72.1192 107.629 72.5221 107.05C72.5745 106.973 72.6296 106.896 72.6857 106.814C72.758 106.711 72.8337 106.604 72.9112 106.492L73.0681 106.265L73.7166 105.329L73.8321 105.16L74.1265 104.734C74.2257 104.588 74.3294 104.439 74.434 104.287L74.4892 104.206C74.5356 104.138 74.5813 104.071 74.6292 104.002L74.6459 103.978L74.8516 103.676L75.0628 103.368C75.2203 103.136 75.382 102.897 75.5488 102.654L75.8165 102.26L75.9865 102.008L76.5112 101.234C76.5582 101.164 76.6093 101.093 76.6546 101.021L76.7425 100.89L76.8693 100.701L76.9972 100.51L77.0541 100.425L77.3216 100.026L77.3485 99.9864L77.5933 99.6204C77.6303 99.5651 77.6694 99.5063 77.7079 99.45C77.7672 99.3597 77.8279 99.2687 77.8901 99.177L78.5392 98.2L79.0184 97.4797C79.6171 96.573 80.2376 95.6273 80.8799 94.6424L81.4053 93.8337C81.6759 93.418 81.948 92.9965 82.2215 92.5691L82.2717 92.4905L82.4913 92.1494L82.4931 92.1421L82.9245 91.4688L82.9307 91.4587L83.359 90.7905C83.4393 90.6639 83.5203 90.5375 83.6002 90.4102L84.0171 89.7546L84.2778 89.3411C84.485 89.0117 84.6928 88.6799 84.9011 88.3457C84.9975 88.1932 85.0931 88.0405 85.1879 87.8877L85.5525 87.3057C86.0836 86.4543 86.6187 85.5899 87.1578 84.7122L87.4835 84.18C87.7258 83.7845 87.9677 83.3868 88.2094 82.9869C88.2883 82.8581 88.3659 82.7296 88.4437 82.6005C88.6785 82.2131 88.9128 81.8242 89.1465 81.434L89.3812 81.0406L89.5117 80.8226C89.6213 80.633 89.7375 80.445 89.8496 80.2554C90.1687 79.7178 90.4876 79.1775 90.8062 78.6346C90.9529 78.3864 91.0989 78.1356 91.2423 77.8853L91.7094 77.0812C92.4109 75.8699 93.1048 74.6521 93.7911 73.4277C98.8929 64.3203 103.391 55.0562 105.367 47.813C105.554 47.1258 105.718 46.4575 105.859 45.8082L105.907 45.5834L105.912 45.5603C105.923 45.5141 105.934 45.4679 105.941 45.4208L105.95 45.3837C105.97 45.3005 105.984 45.2152 106 45.1323C106.023 45.0157 106.045 44.9002 106.064 44.7855C106.065 44.7843 106.066 44.7829 106.066 44.7815C106.067 44.78 106.067 44.7785 106.066 44.777C106.087 44.6644 106.107 44.5511 106.125 44.4397C106.143 44.3284 106.163 44.2132 106.181 44.1004C106.198 43.9877 106.215 43.8756 106.23 43.7648C106.245 43.6541 106.259 43.5611 106.271 43.4606L106.276 43.4251L106.306 43.185C106.324 43.033 106.339 42.8827 106.353 42.734C106.361 42.6456 106.369 42.5575 106.376 42.4697C106.381 42.4068 106.386 42.3469 106.389 42.2853C106.396 42.1971 106.402 42.1092 106.407 42.0211C106.41 41.9788 106.412 41.9363 106.414 41.8944L106.419 41.7672C106.428 41.5924 106.433 41.4201 106.434 41.2504C106.443 40.2679 106.41 39.2967 106.335 38.3368C106.327 38.2342 106.32 38.1315 106.309 38.0288C106.309 38.0169 106.308 38.005 106.306 37.9933C106.283 37.7226 106.256 37.4515 106.225 37.1828C106.224 37.1678 106.222 37.1539 106.22 37.1392C106.21 37.0451 106.201 36.9503 106.187 36.8565C106.138 36.4556 106.082 36.0568 106.019 35.6602C105.971 35.3664 105.92 35.0742 105.865 34.7836C105.846 34.6788 105.826 34.5756 105.806 34.4719C105.782 34.3526 105.758 34.2326 105.732 34.1121C105.707 33.9916 105.682 33.8733 105.656 33.754C105.612 33.5509 105.566 33.3538 105.517 33.1551C105.451 32.876 105.38 32.5979 105.305 32.321C101.455 17.9522 88.1602 7.28943 72.2522 7.13771Z" fill="#75C1D4"/>
<path d="M105.315 32.3209C105.844 34.2893 106.189 36.3024 106.346 38.3345C106.421 39.2943 106.454 40.2655 106.444 41.248C106.426 43.1484 106.048 45.3647 105.38 47.8107C103.405 55.0539 98.9062 64.3172 93.8041 73.4284C91.116 72.6193 88.5549 71.3191 86.138 69.8671C82.5723 67.7242 79.2211 65.2216 75.5665 63.2361C75.4987 63.1999 75.4306 63.1625 75.3635 63.1233C83.2997 61.7361 89.9752 55.9662 91.9115 47.8685C91.9948 47.5204 92.0686 47.1713 92.1314 46.8228C92.7065 43.6923 92.5183 40.4693 91.5826 37.427C91.33 36.5985 91.0242 35.7873 90.667 34.9982C90.7643 35.0106 90.8635 35.0227 90.9622 35.0341C95.1254 35.4921 99.4176 34.8571 103.234 33.1314C103.899 32.8333 104.608 32.503 105.315 32.3209Z" fill="#57A4B9"/>
<path d="M37.7325 36.3136C40.0814 44.0983 43.3053 51.1456 46.87 57.3798C52.3796 67.0133 58.6991 74.6942 63.8439 80.1271C66.7175 83.1593 70.6282 84.9973 74.7964 85.2748C78.9647 85.5523 83.0845 84.2488 86.3346 81.6243C88.2759 80.0591 90.1415 78.472 91.7197 77.0826L91.2525 77.8867C91.1062 78.1362 90.9601 78.3871 90.8165 78.6359C90.4978 79.1789 90.179 79.7191 89.8599 80.2568C89.7502 80.447 89.6346 80.6351 89.522 80.824L89.3915 81.042L89.1568 81.4354C88.9234 81.8257 88.6892 82.2145 88.454 82.6019C88.3762 82.731 88.2986 82.8595 88.2196 82.9883C87.9777 83.3877 87.7358 83.7854 87.4938 84.1814L87.1681 84.7136C86.6296 85.5905 86.0945 86.455 85.5628 87.307L85.1982 87.889C85.1029 88.0422 85.0073 88.1949 84.9114 88.3471C84.7027 88.6825 84.495 89.0143 84.288 89.3424L84.0273 89.756L83.6105 90.4116C83.5306 90.5389 83.4496 90.6653 83.3692 90.7918L82.941 91.4601L82.9347 91.4702L82.5034 92.1435L82.5016 92.1508L82.282 92.4919L82.2317 92.5704C81.9583 92.9974 81.6863 93.419 81.4155 93.835L80.8901 94.6438C80.2496 95.6269 79.6291 96.5727 79.0287 97.4811L78.5495 98.2013L77.9003 99.1784C77.8386 99.2702 77.7778 99.3612 77.7182 99.4514C77.68 99.5065 77.6417 99.5616 77.6036 99.6218L77.3587 99.9878L77.3319 100.028L77.0643 100.427L77.0075 100.511L76.8796 100.702L76.7515 100.891L76.6637 101.022C76.6153 101.093 76.5654 101.165 76.5203 101.235L75.8248 102.264L75.5571 102.658C75.3904 102.902 75.2286 103.14 75.0711 103.372L74.8599 103.68L74.6543 103.982L74.6376 104.006C74.5896 104.075 74.5409 104.141 74.4975 104.21L74.4423 104.291C74.3365 104.443 74.2347 104.592 74.1348 104.739L73.8404 105.164L73.7249 105.333L73.0764 106.27L72.9195 106.496C72.8425 106.606 72.766 106.716 72.6941 106.818C72.6379 106.9 72.5828 106.977 72.5304 107.054C72.1282 107.63 71.8148 108.073 71.6041 108.374L71.5605 108.436L71.4192 108.634L71.2923 108.813C71.2923 108.813 71.2797 108.793 71.2534 108.756L71.2171 108.703L71.1943 108.67C71.1798 108.647 71.1625 108.623 71.1444 108.594C71.1444 108.594 71.1444 108.594 71.1411 108.589L71.1095 108.543C71.0531 108.46 70.9843 108.358 70.9022 108.237C70.8757 108.197 70.8477 108.156 70.8176 108.113C70.7988 108.084 70.7789 108.054 70.7583 108.025C70.7282 107.979 70.6963 107.932 70.6636 107.884C70.6089 107.807 70.554 107.722 70.4942 107.633L70.4334 107.544C70.2571 107.282 70.0561 106.982 69.8302 106.645C69.8013 106.602 69.7722 106.557 69.7417 106.513L69.2001 105.7C68.7452 105.013 68.2253 104.228 67.6503 103.35C67.5649 103.219 67.4765 103.086 67.3882 102.951C67.1497 102.585 66.9028 102.205 66.6475 101.81C66.3316 101.323 66.0032 100.816 65.6623 100.29C65.5646 100.138 65.4654 99.9839 65.3647 99.8266C64.5358 98.5366 63.6441 97.136 62.7044 95.6435L62.3509 95.0805C62.0546 94.6081 61.7542 94.1265 61.4498 93.6359L61.267 93.3423L61.0812 93.0449L60.7161 92.4554L60.5248 92.1437L60.3399 91.8426C60.2767 91.7415 60.2151 91.6394 60.1522 91.537C58.7656 89.2788 57.315 86.8768 55.8533 84.3874L55.6032 83.9616C55.2323 83.3283 54.8605 82.6896 54.4879 82.0457C54.3602 81.8225 54.2318 81.5991 54.1029 81.3756C53.6856 80.6516 53.2689 79.9215 52.8528 79.1854L52.6038 78.7443C52.4383 78.4479 52.2734 78.153 52.1089 77.8598L51.8363 77.3721C51.7295 77.1813 51.6236 76.9904 51.5185 76.7996C51.3853 76.5597 51.2523 76.3192 51.1195 76.0781C50.9913 75.8458 50.8628 75.6127 50.7354 75.38C50.2094 74.4193 49.689 73.4561 49.1741 72.4904C49.0538 72.2632 48.9331 72.0372 48.8134 71.8101C48.675 71.5488 48.5373 71.287 48.4001 71.0248L48.062 70.3787L47.756 69.7918C47.3547 69.0151 46.9591 68.2389 46.5692 67.4632C46.4603 67.2445 46.3516 67.0303 46.2437 66.8125C45.696 65.7157 45.1647 64.6253 44.6498 63.5414C44.5792 63.3961 44.5107 63.2474 44.4412 63.1004C44.3027 62.8066 44.1652 62.5142 44.0304 62.2212C43.9622 62.0765 43.8947 61.9319 43.8278 61.7875C43.6348 61.3697 43.4456 60.9532 43.2602 60.5381C43.2464 60.5098 43.2346 60.4813 43.222 60.4532C43.1318 60.2531 43.0423 60.0525 42.9544 59.8536C42.7928 59.4874 42.6333 59.1229 42.4761 58.7599C42.4152 58.6169 42.352 58.4733 42.2941 58.331C42.2138 58.1461 42.1355 57.9604 42.0576 57.7761C41.9566 57.5375 41.8563 57.299 41.7588 57.0624L41.5861 56.6429C41.5301 56.5011 41.4722 56.3645 41.4169 56.2254L41.2498 55.8098L41.0848 55.3959C41.0042 55.1956 40.926 54.9955 40.85 54.7958C40.5734 54.0798 40.3108 53.3748 40.0623 52.6808C40.033 52.6019 40.0059 52.5247 39.9783 52.4469L39.8803 52.1665C39.8339 52.0347 39.7885 51.9038 39.7443 51.7737C39.6102 51.382 39.4807 50.9942 39.3559 50.6103C39.3144 50.4828 39.2731 50.3548 39.2333 50.2284L39.1141 49.8486L39.0934 49.7794C39.0578 49.6598 39.0223 49.5396 38.9864 49.4212C38.8794 49.0629 38.7765 48.7091 38.6777 48.3596L38.5861 48.0282C38.5798 48.0061 38.5734 47.9847 38.5682 47.9635C38.5383 47.8523 38.5085 47.7431 38.4801 47.6336C38.4517 47.524 38.4178 47.3945 38.388 47.275C38.3782 47.2354 38.3675 47.1969 38.3578 47.1567C38.3083 46.959 38.2603 46.7632 38.2138 46.5693C38.1856 46.4508 38.1579 46.3331 38.1316 46.2144L38.0583 45.8873C38.0302 45.7579 38.0026 45.6287 37.9766 45.5011C37.9399 45.3215 37.9042 45.1434 37.8705 44.9671C37.8423 44.8165 37.8141 44.6659 37.7855 44.5171C37.7673 44.4132 37.7503 44.3096 37.7314 44.2062L37.727 44.1814C37.6948 43.9815 37.6647 43.784 37.6369 43.5889L37.6354 43.5789C37.5862 43.2315 37.5453 42.892 37.5129 42.5606C37.5057 42.4831 37.4979 42.4055 37.492 42.3283C37.4824 42.2341 37.4728 42.14 37.4688 42.0466C37.4584 41.9156 37.4499 41.782 37.4437 41.652L37.4337 41.4441L37.4228 41.2212C37.4212 41.1714 37.4195 41.1222 37.4191 41.0727L37.416 40.876C37.4152 40.7827 37.4153 40.6909 37.418 40.5991C37.4194 40.4645 37.4216 40.33 37.4247 40.1954L37.4308 39.9362C37.4312 39.9306 37.4312 39.925 37.4309 39.9195C37.4382 39.6984 37.4465 39.4782 37.4603 39.2593L37.4634 39.2465L37.4807 38.9296L37.5017 38.5974C37.5173 38.3764 37.5349 38.1562 37.5543 37.9369L37.5568 37.9106C37.5675 37.7907 37.579 37.671 37.5913 37.5515C37.6058 37.4047 37.6221 37.2589 37.6383 37.1132C37.6515 36.9936 37.6663 36.8752 37.6819 36.7562C37.6842 36.733 37.6872 36.71 37.6909 36.6864C37.6988 36.5567 37.7157 36.4349 37.7325 36.3136Z" fill="#57A4B9"/>
<path d="M37.5483 37.9289C37.5635 38.1098 37.5783 38.2977 37.5917 38.4942C37.7427 40.6746 38.5073 43.6704 39.6947 47.1834C41.7114 53.1533 44.9532 60.6198 48.49 68.1259C52.6609 76.9789 57.2435 85.886 60.7181 92.457L60.5267 92.1453L60.3418 91.8442C60.2787 91.7431 60.217 91.641 60.1542 91.5386C58.7675 89.2804 57.317 86.8784 55.8552 84.389L55.6052 83.9632C55.2343 83.3299 54.8625 82.6912 54.4899 82.0473C54.3621 81.8241 54.2338 81.6007 54.1048 81.3772C53.6876 80.6532 53.2709 79.9231 52.8548 79.187L52.6058 78.7459C52.4403 78.4495 52.2753 78.1546 52.1108 77.8614L51.8383 77.3737C51.7315 77.1829 51.6255 76.992 51.5205 76.8012C51.3873 76.5613 51.2543 76.3208 51.1214 76.0797C50.9933 75.8474 50.8647 75.6143 50.7373 75.3816C50.2114 74.4209 49.691 73.4577 49.1761 72.492C49.0557 72.2648 48.9351 72.0388 48.8153 71.8117C48.677 71.5504 48.5392 71.2887 48.402 71.0264L48.0639 70.3804L47.7579 69.7934C47.3567 69.0167 46.9611 68.2405 46.5711 67.4648C46.4622 67.2461 46.3535 67.0319 46.2457 66.8141C45.6979 65.7173 45.1666 64.6269 44.6517 63.543C44.5811 63.3977 44.5127 63.249 44.4431 63.102C44.3047 62.8082 44.1671 62.5158 44.0323 62.2228C43.9642 62.0781 43.8967 61.9335 43.8297 61.7891C43.6368 61.3713 43.4476 60.9548 43.2621 60.5397C43.2484 60.5114 43.2365 60.4829 43.224 60.4548C43.1338 60.2547 43.0443 60.0541 42.9564 59.8552C42.7947 59.489 42.6353 59.1245 42.4781 58.7615C42.4172 58.6185 42.3539 58.4749 42.2961 58.3326C42.2157 58.1477 42.1375 57.962 42.0595 57.7777C41.9585 57.5395 41.8589 57.3016 41.7607 57.064L41.5881 56.6445C41.5321 56.5027 41.4742 56.3661 41.4188 56.227L41.2517 55.8114L41.0867 55.3975C41.0062 55.1972 40.9279 54.9971 40.852 54.7974C40.5754 54.0814 40.3128 53.3764 40.0643 52.6824C40.035 52.6035 40.0078 52.5263 39.9802 52.4485L39.8822 52.1681C39.8358 52.0363 39.7905 51.9054 39.7462 51.7753C39.6121 51.3836 39.4827 50.9958 39.3578 50.6119C39.3164 50.4844 39.2751 50.3564 39.2353 50.23L39.1161 49.8502L39.0954 49.781C38.9474 49.3004 38.8081 48.8269 38.6772 48.3606L38.5856 48.0292C38.5794 48.0072 38.5729 47.9857 38.5677 47.9646C38.5378 47.8534 38.508 47.7441 38.4796 47.6346C38.4512 47.525 38.4173 47.3956 38.3875 47.276C38.3777 47.2364 38.367 47.1979 38.3573 47.1577C38.3078 46.9601 38.2598 46.7643 38.2133 46.5703C38.1851 46.4518 38.1574 46.3341 38.1312 46.2155L38.0578 45.8884C38.0297 45.759 38.0022 45.6297 37.9761 45.5021C37.9395 45.3225 37.9037 45.1444 37.8701 44.9681C37.8419 44.8175 37.8137 44.6669 37.785 44.5182C37.7668 44.4143 37.7499 44.3107 37.7309 44.2072L37.7266 44.1824C37.6944 43.9821 37.6644 43.7846 37.6364 43.5899L37.6349 43.58C37.5857 43.2325 37.5449 42.8931 37.5124 42.5616C37.5052 42.4841 37.4975 42.4065 37.4915 42.3293C37.4819 42.2352 37.4723 42.141 37.4683 42.0476C37.4579 41.9167 37.4494 41.783 37.4432 41.6531L37.4332 41.4452L37.4223 41.2223C37.4207 41.1724 37.419 41.1232 37.4186 41.0737L37.4156 40.8771C37.4148 40.7838 37.4149 40.6919 37.4176 40.6001C37.4189 40.4656 37.4211 40.331 37.4242 40.1964L37.4303 39.9372C37.4307 39.9316 37.4308 39.9261 37.4304 39.9205C37.4377 39.6994 37.4461 39.4792 37.4599 39.2603L37.4629 39.2475L37.4803 38.9306L37.5013 38.5984C37.5132 38.3714 37.5289 38.1482 37.5483 37.9289Z" fill="#448FA2"/>
<path d="M76.0381 23.0325C82.8121 24.6523 88.0685 29.2372 90.6682 34.9979C91.0253 35.7871 91.3314 36.5984 91.5844 37.4268C92.5201 40.47 92.7084 43.6939 92.1332 46.8252C92.07 47.173 91.996 47.5226 91.9128 47.8707C89.9768 55.9666 83.2999 61.7349 75.3631 63.1245C72.4266 63.6351 69.4167 63.5383 66.5191 62.84C58.71 60.9726 52.9142 55.1625 50.8861 48.1526C50.0645 45.3197 49.8841 42.3394 50.3581 39.4281C50.8321 36.5168 51.9486 33.7476 53.6264 31.3216C53.9768 30.8159 54.3489 30.329 54.7425 29.861C56.3811 27.9114 58.3684 26.2839 60.6027 25.0617C61.3429 24.6543 62.1069 24.2916 62.8905 23.9756C62.9738 23.9425 63.0579 23.9093 63.1429 23.8761C65.79 22.8506 68.614 22.3597 71.4518 22.4316C72.0904 22.4469 72.731 22.4911 73.3737 22.5643C74.2705 22.666 75.1603 22.8223 76.0381 23.0325Z" fill="white"/>
</svg>
