<svg width="24" height="24" viewBox="0 0 24 24" fill="none" xmlns="http://www.w3.org/2000/svg">
<path d="M3.71366 20.2864C5.77392 22.3465 8.52768 23.5654 11.4379 23.7052C14.3481 23.845 17.206 22.8958 19.4543 21.0427C19.5022 21.0031 19.5325 20.9461 19.5384 20.8842C19.5443 20.8224 19.5254 20.7607 19.4859 20.7127C19.4463 20.6648 19.3893 20.6345 19.3274 20.6286C19.2656 20.6227 19.2039 20.6416 19.1559 20.6811C16.9507 22.4987 14.1364 23.4089 11.2845 23.2269C8.43263 23.045 5.75684 21.7846 3.80045 19.7015C1.84406 17.6185 0.753704 14.869 0.750766 12.0113C0.747828 9.15362 1.83253 6.4019 3.78463 4.31486L4.35543 4.88565C4.38918 4.91939 4.43152 4.94326 4.47786 4.95468C4.5242 4.96609 4.57279 4.96462 4.61835 4.95042C4.66392 4.93622 4.70473 4.90983 4.73638 4.87411C4.76804 4.83839 4.78932 4.79469 4.79793 4.74775L5.15094 2.82146C5.15854 2.78001 5.15602 2.73734 5.14359 2.69708C5.13117 2.65681 5.1092 2.62014 5.07957 2.59018C5.04993 2.56022 5.0135 2.53786 4.97337 2.525C4.93324 2.51214 4.8906 2.50916 4.84907 2.51631L2.90493 2.85146C2.85765 2.85959 2.81351 2.88056 2.77734 2.91207C2.74118 2.94359 2.71437 2.98444 2.69986 3.03017C2.68534 3.07589 2.68367 3.12473 2.69504 3.17133C2.70641 3.21794 2.73037 3.26053 2.7643 3.29443L3.45336 3.9835C1.37137 6.20286 0.234414 9.14512 0.283038 12.1878C0.331661 15.2305 1.56205 18.1349 3.7139 20.2866L3.71366 20.2864Z" fill="#FF9F33"/>
<path d="M15.5348 1.31643C15.882 1.43123 16.2276 1.56487 16.562 1.71327C16.6187 1.73767 16.6827 1.73874 16.7401 1.71625C16.7976 1.69377 16.8438 1.64954 16.8689 1.59316C16.8939 1.53679 16.8957 1.47281 16.8739 1.41511C16.8521 1.3574 16.8084 1.31063 16.7523 1.28493C16.4039 1.13024 16.0438 0.991025 15.682 0.8714C15.6527 0.861501 15.6218 0.857491 15.591 0.859602C15.5601 0.861712 15.53 0.869901 15.5024 0.883697C15.4747 0.897494 15.45 0.916624 15.4298 0.939988C15.4096 0.963353 15.3941 0.990488 15.3844 1.01983C15.3747 1.04918 15.3709 1.08015 15.3732 1.11098C15.3756 1.1418 15.3839 1.17186 15.3979 1.19943C15.4119 1.22699 15.4312 1.25152 15.4547 1.2716C15.4782 1.29168 15.5054 1.30692 15.5348 1.31643Z" fill="#FF9F33"/>
<path d="M21.4238 5.85308C21.4406 5.87884 21.4624 5.90104 21.4878 5.9184C21.5132 5.93576 21.5418 5.94794 21.5719 5.95425C21.6021 5.96057 21.6331 5.96088 21.6634 5.95518C21.6936 5.94949 21.7225 5.93789 21.7482 5.92105C21.774 5.90421 21.7962 5.88246 21.8135 5.85704C21.8309 5.83163 21.8431 5.80304 21.8494 5.77291C21.8557 5.74279 21.856 5.71172 21.8503 5.68147C21.8446 5.65122 21.833 5.62239 21.8162 5.59663C21.6078 5.27788 21.3811 4.96545 21.1424 4.66813C21.1034 4.61964 21.0469 4.5886 20.9851 4.58184C20.9233 4.57507 20.8613 4.59314 20.8128 4.63205C20.7643 4.67097 20.7333 4.72756 20.7265 4.78936C20.7198 4.85117 20.7378 4.91312 20.7767 4.96161C21.0061 5.24708 21.2238 5.54699 21.4238 5.85308Z" fill="#FF9F33"/>
<path d="M17.5055 2.18672C17.8242 2.36588 18.1379 2.56313 18.438 2.77289C18.4632 2.79053 18.4917 2.80302 18.5217 2.80966C18.5518 2.81629 18.5829 2.81694 18.6132 2.81157C18.6435 2.80619 18.6725 2.7949 18.6984 2.77833C18.7244 2.76176 18.7468 2.74024 18.7644 2.715C18.7821 2.68977 18.7946 2.6613 18.8012 2.63123C18.8078 2.60117 18.8085 2.57009 18.8031 2.53977C18.7977 2.50945 18.7864 2.48049 18.7699 2.45454C18.7533 2.42859 18.7318 2.40616 18.7066 2.38852C18.3939 2.16999 18.0671 1.96458 17.7352 1.77797C17.7083 1.76235 17.6786 1.75223 17.6478 1.74819C17.617 1.74415 17.5857 1.74628 17.5557 1.75444C17.5258 1.7626 17.4977 1.77665 17.4732 1.79575C17.4487 1.81486 17.4282 1.83864 17.413 1.86572C17.3978 1.8928 17.3881 1.92264 17.3845 1.9535C17.3809 1.98435 17.3835 2.01562 17.3921 2.04547C17.4007 2.07532 17.4152 2.10317 17.4346 2.12738C17.4541 2.1516 17.4782 2.17171 17.5055 2.18653V2.18672Z" fill="#FF9F33"/>
<path d="M13.4344 0.840506C13.7977 0.886725 14.1625 0.951459 14.5185 1.03269C14.5487 1.03986 14.5799 1.041 14.6105 1.03603C14.641 1.03106 14.6703 1.02009 14.6966 1.00375C14.7229 0.98741 14.7456 0.966023 14.7636 0.940824C14.7816 0.915626 14.7944 0.887115 14.8013 0.856938C14.8082 0.826761 14.8091 0.795517 14.8038 0.765008C14.7986 0.734499 14.7874 0.705331 14.7708 0.679188C14.7542 0.653045 14.7326 0.630444 14.7073 0.612691C14.6819 0.594939 14.6533 0.582385 14.623 0.575756C14.2521 0.490912 13.8721 0.423459 13.4933 0.375319C13.4628 0.371332 13.4317 0.37342 13.4019 0.381463C13.3721 0.389505 13.3443 0.403345 13.3198 0.422187C13.2954 0.44103 13.275 0.464506 13.2596 0.491269C13.2443 0.518032 13.2344 0.547556 13.2305 0.578149C13.2267 0.608742 13.2288 0.639802 13.237 0.669549C13.2451 0.699297 13.259 0.727146 13.2779 0.751502C13.2969 0.775857 13.3204 0.796239 13.3472 0.81148C13.374 0.826721 13.4036 0.836521 13.4342 0.840319L13.4344 0.840506Z" fill="#FF9F33"/>
<path d="M9.09375 1.12093C9.11376 1.12092 9.13369 1.11834 9.15304 1.11324C9.50662 1.02104 9.86934 0.945339 10.2312 0.888245C10.2616 0.883446 10.2907 0.872707 10.317 0.856639C10.3432 0.840571 10.3661 0.81949 10.3842 0.794599C10.4023 0.769707 10.4153 0.741494 10.4225 0.711569C10.4297 0.681644 10.431 0.650593 10.4262 0.62019C10.4214 0.589787 10.4106 0.560627 10.3945 0.534374C10.3785 0.508122 10.3574 0.485291 10.3325 0.467186C10.3076 0.449081 10.2794 0.436055 10.2495 0.428854C10.2196 0.421652 10.1885 0.420415 10.1581 0.425214C9.78122 0.484698 9.40341 0.563589 9.03487 0.659589C8.97958 0.673828 8.93139 0.707759 8.89934 0.755013C8.8673 0.802267 8.85361 0.859592 8.86083 0.916227C8.86806 0.972862 8.89571 1.02491 8.9386 1.0626C8.98148 1.10029 9.03665 1.12104 9.09375 1.12093Z" fill="#FF9F33"/>
<path d="M11.2654 0.773116C11.2703 0.773116 11.2753 0.773115 11.2804 0.772647C11.6446 0.749631 12.0172 0.744194 12.3819 0.756334C12.4437 0.757832 12.5036 0.734877 12.5485 0.692463C12.5934 0.65005 12.6198 0.59161 12.6218 0.529857C12.6239 0.468103 12.6015 0.408033 12.5595 0.362714C12.5175 0.317396 12.4593 0.290495 12.3976 0.287865C12.0179 0.275115 11.63 0.280881 11.2507 0.304787C11.1898 0.308443 11.1328 0.335682 11.0916 0.380722C11.0505 0.425761 11.0286 0.485054 11.0305 0.54601C11.0324 0.606965 11.0579 0.664784 11.1018 0.707188C11.1456 0.749591 11.2042 0.773241 11.2652 0.773116H11.2654Z" fill="#FF9F33"/>
<path d="M23.4579 12.8117C23.396 12.806 23.3344 12.8252 23.2866 12.8649C23.2388 12.9047 23.2088 12.9618 23.2031 13.0237C23.1696 13.3877 23.1176 13.7549 23.0484 14.1145C23.0422 14.1449 23.0422 14.1762 23.0482 14.2066C23.0542 14.237 23.0662 14.2659 23.0834 14.2916C23.1007 14.3173 23.1229 14.3394 23.1487 14.3565C23.1745 14.3736 23.2035 14.3854 23.2339 14.3913C23.2643 14.3971 23.2956 14.3969 23.3259 14.3905C23.3563 14.3842 23.385 14.3719 23.4106 14.3544C23.4362 14.3369 23.458 14.3145 23.4748 14.2885C23.4917 14.2625 23.5032 14.2334 23.5087 14.2029C23.5807 13.8279 23.6349 13.4458 23.6697 13.0665C23.6754 13.0047 23.6563 12.943 23.6166 12.8952C23.5768 12.8475 23.5197 12.8174 23.4579 12.8117Z" fill="#FF9F33"/>
<path d="M23.0917 14.9816C23.0621 14.973 23.0312 14.9703 23.0006 14.9737C22.97 14.977 22.9403 14.9863 22.9133 15.0011C22.8863 15.0159 22.8625 15.0359 22.8433 15.0599C22.824 15.0839 22.8096 15.1115 22.801 15.141C22.6988 15.4922 22.5782 15.8427 22.4423 16.183C22.4308 16.2116 22.4252 16.2421 22.4256 16.2729C22.4259 16.3037 22.4324 16.3341 22.4445 16.3624C22.4567 16.3907 22.4743 16.4163 22.4963 16.4378C22.5183 16.4592 22.5444 16.4762 22.573 16.4876C22.6016 16.499 22.6321 16.5047 22.6629 16.5043C22.6937 16.5039 22.7241 16.4975 22.7524 16.4853C22.7806 16.4732 22.8063 16.4556 22.8277 16.4335C22.8492 16.4115 22.8662 16.3855 22.8776 16.3569C23.019 16.0026 23.1448 15.6376 23.2511 15.2719C23.2684 15.2123 23.2613 15.1482 23.2314 15.0938C23.2015 15.0394 23.1513 14.999 23.0917 14.9816Z" fill="#FF9F33"/>
<path d="M20.0783 4.1702C20.0997 4.1923 20.1253 4.20996 20.1536 4.22217C20.1818 4.23438 20.2122 4.2409 20.243 4.24137C20.2738 4.24184 20.3043 4.23624 20.333 4.22489C20.3616 4.21355 20.3877 4.19668 20.4098 4.17524C20.4319 4.15381 20.4495 4.12823 20.4617 4.09997C20.4739 4.07171 20.4805 4.04133 20.4809 4.01055C20.4814 3.97977 20.4758 3.9492 20.4645 3.92058C20.4531 3.89196 20.4362 3.86586 20.4148 3.84377C20.1495 3.57011 19.8676 3.30639 19.5772 3.05997C19.5298 3.01975 19.4684 3.00001 19.4064 3.00509C19.3445 3.01016 19.2871 3.03964 19.2469 3.08704C19.2066 3.13444 19.1869 3.19587 19.192 3.25782C19.1971 3.31977 19.2265 3.37717 19.2739 3.41739C19.5528 3.65416 19.8235 3.90737 20.0783 4.1702Z" fill="#FF9F33"/>
<path d="M7.02946 1.87862C7.06458 1.87858 7.09925 1.87065 7.1309 1.85541C7.46076 1.69679 7.8022 1.55284 8.1457 1.42754C8.17497 1.41727 8.20192 1.40129 8.22497 1.38053C8.24802 1.35977 8.26672 1.33464 8.27999 1.3066C8.29326 1.27856 8.30082 1.24816 8.30225 1.21717C8.30368 1.18618 8.29894 1.15522 8.28831 1.12607C8.27769 1.09693 8.26138 1.07018 8.24033 1.04739C8.21929 1.0246 8.19393 1.00621 8.16572 0.993288C8.13752 0.98037 8.10703 0.973179 8.07602 0.972133C8.04502 0.971088 8.01412 0.976208 7.9851 0.987196C7.62721 1.1177 7.27143 1.26765 6.92774 1.43298C6.87984 1.45598 6.84119 1.49458 6.81811 1.54245C6.79503 1.59031 6.7889 1.64459 6.80072 1.6964C6.81255 1.7482 6.84162 1.79445 6.88318 1.82756C6.92474 1.86067 6.97632 1.87867 7.02946 1.87862Z" fill="#FF9F33"/>
<path d="M23.4038 10.6125C23.3732 10.6155 23.3435 10.6246 23.3163 10.6391C23.2892 10.6537 23.2652 10.6734 23.2457 10.6972C23.2262 10.7211 23.2116 10.7485 23.2027 10.778C23.1938 10.8074 23.1908 10.8383 23.1939 10.869C23.2301 11.232 23.2489 11.6021 23.2501 11.9689C23.2503 12.031 23.275 12.0905 23.319 12.1343C23.3629 12.1781 23.4224 12.2027 23.4845 12.2027H23.4851C23.5159 12.2026 23.5464 12.1965 23.5748 12.1846C23.6032 12.1727 23.6289 12.1554 23.6506 12.1335C23.6723 12.1117 23.6895 12.0858 23.7012 12.0573C23.7129 12.0288 23.7188 11.9983 23.7187 11.9675C23.7178 11.5856 23.6981 11.2002 23.6603 10.8222C23.6541 10.7604 23.6236 10.7036 23.5755 10.6643C23.5274 10.6249 23.4656 10.6063 23.4038 10.6125Z" fill="#FF9F33"/>
<path d="M22.424 7.76094C22.4354 7.78979 22.4523 7.8161 22.4739 7.83835C22.4955 7.86059 22.5213 7.87833 22.5498 7.89054C22.5783 7.90274 22.609 7.90916 22.64 7.90944C22.671 7.90972 22.7017 7.90384 22.7305 7.89214C22.7592 7.88045 22.7853 7.86317 22.8073 7.84132C22.8293 7.81946 22.8467 7.79346 22.8586 7.76481C22.8705 7.73617 22.8765 7.70545 22.8764 7.67445C22.8764 7.64344 22.8701 7.61276 22.8581 7.58418C22.7145 7.23144 22.5516 6.88152 22.3737 6.54407C22.3595 6.51662 22.34 6.49226 22.3163 6.47239C22.2926 6.45252 22.2653 6.43753 22.2358 6.42828C22.2063 6.41904 22.1752 6.41572 22.1444 6.41852C22.1136 6.42132 22.0837 6.43018 22.0564 6.4446C22.029 6.45901 22.0048 6.4787 21.9851 6.50251C21.9654 6.52633 21.9506 6.55381 21.9415 6.58338C21.9325 6.61294 21.9294 6.644 21.9324 6.67476C21.9354 6.70553 21.9445 6.7354 21.9591 6.76264C22.1296 7.0865 22.2861 7.42236 22.424 7.76094Z" fill="#FF9F33"/>
<path d="M22.7754 8.75625C22.8806 9.10635 22.9696 9.46593 23.0399 9.82499C23.0503 9.87828 23.0789 9.92629 23.1208 9.96083C23.1627 9.99537 23.2153 10.0143 23.2696 10.0144C23.2848 10.0143 23.3 10.0129 23.3149 10.01C23.3451 10.004 23.3738 9.99224 23.3995 9.97522C23.4251 9.95819 23.4472 9.93628 23.4643 9.91074C23.4815 9.8852 23.4935 9.85652 23.4996 9.82635C23.5057 9.79618 23.5058 9.76511 23.4999 9.7349C23.4266 9.36074 23.3338 8.98607 23.2241 8.62129C23.2156 8.59145 23.2012 8.56361 23.1818 8.53937C23.1624 8.51514 23.1384 8.49499 23.1112 8.48011C23.0839 8.46523 23.054 8.45591 23.0232 8.45268C22.9923 8.44946 22.9611 8.4524 22.9314 8.46133C22.9016 8.47027 22.874 8.48502 22.85 8.50472C22.826 8.52443 22.8062 8.54871 22.7917 8.57614C22.7772 8.60357 22.7682 8.63361 22.7654 8.66452C22.7626 8.69543 22.7659 8.72659 22.7753 8.7562L22.7754 8.75625Z" fill="#FF9F33"/>
<path d="M20.3241 17.7262L20.2688 19.6396C20.2676 19.6816 20.2766 19.7233 20.2949 19.7611C20.3133 19.7989 20.3405 19.8318 20.3743 19.8568C20.408 19.8818 20.4473 19.8983 20.4889 19.9049C20.5304 19.9115 20.5729 19.9079 20.6127 19.8946L22.4411 19.2825C22.4865 19.2673 22.5268 19.24 22.5577 19.2034C22.5886 19.1668 22.6088 19.1225 22.6162 19.0752C22.6236 19.028 22.6179 18.9796 22.5996 18.9353C22.5813 18.8911 22.5513 18.8527 22.5127 18.8244L21.8574 18.3435C22.0605 18.0261 22.2509 17.6947 22.4229 17.3583C22.4378 17.3308 22.447 17.3007 22.45 17.2696C22.4531 17.2385 22.4498 17.2071 22.4406 17.1773C22.4313 17.1475 22.4162 17.1198 22.3961 17.0959C22.376 17.072 22.3513 17.0524 22.3235 17.0382C22.2957 17.024 22.2654 17.0154 22.2342 17.0131C22.2031 17.0108 22.1718 17.0147 22.1422 17.0246C22.1126 17.0346 22.0853 17.0503 22.0618 17.0709C22.0384 17.0916 22.0193 17.1167 22.0057 17.1448C21.8451 17.4589 21.6676 17.7682 21.4786 18.0655L20.7396 17.5233C20.7012 17.4951 20.6558 17.478 20.6084 17.4738C20.561 17.4695 20.5133 17.4783 20.4705 17.4992C20.4277 17.5201 20.3915 17.5523 20.3657 17.5923C20.3399 17.6323 20.3255 17.6787 20.3241 17.7262Z" fill="#FF9F33"/>
<path d="M7.1776 19.6313C7.17723 19.7066 7.19173 19.7813 7.22027 19.8511C7.24881 19.9209 7.29083 19.9843 7.34393 20.0378C7.39702 20.0913 7.46014 20.1338 7.52969 20.1629C7.59923 20.192 7.67382 20.207 7.7492 20.2073H16.2509C16.4021 20.2059 16.5467 20.1448 16.6532 20.0374C16.7597 19.9299 16.8195 19.7848 16.8195 19.6335C16.8195 19.4822 16.7597 19.337 16.6532 19.2296C16.5467 19.1221 16.4021 19.0611 16.2509 19.0597H7.7492C7.59766 19.0599 7.45237 19.1201 7.34521 19.2273C7.23806 19.3344 7.17778 19.4797 7.1776 19.6313Z" fill="#FF9F33"/>
<path d="M8.06006 18.5906H15.94V16.7168C15.9397 15.8985 15.6847 15.1005 15.2104 14.4335C14.736 13.7666 14.0659 13.2638 13.293 12.995C13.0483 12.9114 12.836 12.7534 12.6857 12.5431C12.5353 12.3328 12.4545 12.0808 12.4545 11.8223C12.4545 11.5638 12.5353 11.3118 12.6857 11.1015C12.836 10.8912 13.0483 10.7332 13.293 10.6496C14.2554 10.3151 15.0508 9.62061 15.512 8.71205H8.48803C8.94929 9.62061 9.74468 10.3151 10.7071 10.6496C10.9518 10.7332 11.1641 10.8912 11.3145 11.1015C11.4649 11.3118 11.5457 11.5638 11.5457 11.8223C11.5457 12.0808 11.4649 12.3328 11.3145 12.5431C11.1641 12.7534 10.9518 12.9114 10.7071 12.995C9.9342 13.2639 9.26409 13.7667 8.78978 14.4336C8.31546 15.1005 8.06045 15.8985 8.06011 16.7168L8.06006 18.5906ZM14.8341 17.3745C14.8863 17.3745 14.9373 17.3899 14.9807 17.4189C15.0241 17.4479 15.0579 17.4892 15.0779 17.5374C15.0979 17.5856 15.1031 17.6387 15.0929 17.6899C15.0827 17.741 15.0576 17.7881 15.0207 17.825C14.9838 17.8619 14.9367 17.887 14.8855 17.8972C14.8344 17.9074 14.7813 17.9022 14.7331 17.8822C14.6848 17.8622 14.6436 17.8284 14.6146 17.785C14.5856 17.7416 14.5702 17.6906 14.5702 17.6384C14.5702 17.5684 14.5981 17.5013 14.6475 17.4518C14.697 17.4024 14.7641 17.3745 14.8341 17.3745ZM13.5156 15.9866C13.5678 15.9866 13.6188 16.0021 13.6622 16.0311C13.7056 16.0601 13.7394 16.1013 13.7594 16.1495C13.7794 16.1977 13.7846 16.2508 13.7744 16.302C13.7643 16.3532 13.7391 16.4002 13.7022 16.4371C13.6653 16.474 13.6183 16.4991 13.5671 16.5093C13.5159 16.5195 13.4628 16.5143 13.4146 16.4943C13.3664 16.4743 13.3252 16.4405 13.2962 16.3971C13.2672 16.3537 13.2517 16.3027 13.2517 16.2505C13.2518 16.1805 13.2796 16.1134 13.3291 16.064C13.3786 16.0145 13.4456 15.9867 13.5156 15.9866ZM10.8787 9.85261C10.8265 9.85262 10.7754 9.83715 10.732 9.80816C10.6886 9.77917 10.6548 9.73795 10.6348 9.68973C10.6148 9.64151 10.6096 9.58845 10.6198 9.53725C10.6299 9.48606 10.6551 9.43903 10.692 9.40211C10.7289 9.3652 10.7759 9.34006 10.8271 9.32988C10.8783 9.31969 10.9314 9.32491 10.9796 9.34489C11.0278 9.36486 11.069 9.39868 11.098 9.44208C11.127 9.48548 11.1425 9.53651 11.1425 9.58871C11.1424 9.65867 11.1146 9.72574 11.0652 9.77522C11.0157 9.82469 10.9486 9.85253 10.8787 9.85261ZM12.461 17.7077C12.461 17.7599 12.4455 17.811 12.4165 17.8544C12.3875 17.8978 12.3463 17.9316 12.2981 17.9516C12.2499 17.9715 12.1968 17.9768 12.1456 17.9666C12.0944 17.9564 12.0474 17.9313 12.0105 17.8943C11.9736 17.8574 11.9485 17.8104 11.9383 17.7592C11.9281 17.708 11.9333 17.655 11.9533 17.6067C11.9733 17.5585 12.0071 17.5173 12.0505 17.4883C12.0939 17.4593 12.1449 17.4438 12.1971 17.4438C12.2671 17.4439 12.3341 17.4718 12.3836 17.5212C12.4331 17.5707 12.4609 17.6378 12.461 17.7077ZM12.5441 9.81057C12.5963 9.81056 12.6473 9.82603 12.6907 9.85502C12.7341 9.88401 12.7679 9.92523 12.7879 9.97345C12.8079 10.0217 12.8131 10.0747 12.803 10.1259C12.7928 10.1771 12.7677 10.2242 12.7307 10.2611C12.6938 10.298 12.6468 10.3231 12.5956 10.3333C12.5444 10.3435 12.4914 10.3383 12.4431 10.3183C12.3949 10.2983 12.3537 10.2645 12.3247 10.2211C12.2957 10.1777 12.2802 10.1267 12.2802 10.0745C12.2803 10.0045 12.3081 9.93745 12.3576 9.88798C12.4071 9.8385 12.4741 9.81067 12.5441 9.81057ZM12.0583 14.5988C12.1105 14.5988 12.1615 14.6142 12.2049 14.6432C12.2483 14.6722 12.2821 14.7134 12.3021 14.7616C12.3221 14.8099 12.3273 14.8629 12.3171 14.9141C12.3069 14.9653 12.2818 15.0123 12.2449 15.0492C12.208 15.0861 12.161 15.1112 12.1098 15.1214C12.0586 15.1316 12.0055 15.1264 11.9573 15.1064C11.9091 15.0864 11.8679 15.0526 11.8389 15.0092C11.8099 14.9658 11.7944 14.9148 11.7944 14.8626C11.7945 14.7927 11.8223 14.7256 11.8718 14.6761C11.9213 14.6267 11.9884 14.5988 12.0583 14.5988ZM10.6011 15.9866C10.6533 15.9866 10.7043 16.002 10.7477 16.031C10.7911 16.06 10.8249 16.1012 10.8449 16.1495C10.8649 16.1977 10.8701 16.2508 10.8599 16.3019C10.8498 16.3531 10.8246 16.4002 10.7877 16.4371C10.7508 16.474 10.7038 16.4991 10.6526 16.5093C10.6014 16.5195 10.5483 16.5143 10.5001 16.4943C10.4519 16.4743 10.4107 16.4405 10.3817 16.3971C10.3527 16.3537 10.3372 16.3027 10.3372 16.2505C10.3373 16.1805 10.3651 16.1135 10.4146 16.064C10.464 16.0145 10.5311 15.9867 10.6011 15.9866ZM9.14381 17.3745C9.196 17.3745 9.24703 17.3899 9.29043 17.4189C9.33383 17.4479 9.36765 17.4892 9.38763 17.5374C9.4076 17.5856 9.41283 17.6387 9.40264 17.6899C9.39246 17.741 9.36733 17.7881 9.33042 17.825C9.29351 17.8619 9.24649 17.887 9.19529 17.8972C9.1441 17.9074 9.09104 17.9022 9.04282 17.8822C8.99459 17.8622 8.95338 17.8284 8.92438 17.785C8.89538 17.7416 8.8799 17.6906 8.8799 17.6384C8.87998 17.5684 8.90781 17.5013 8.95728 17.4518C9.00676 17.4024 9.07384 17.3745 9.14381 17.3745Z" fill="#FF9F33"/>
<path d="M16.2509 3.79292H7.74927C7.598 3.79429 7.45338 3.85534 7.3469 3.9628C7.24041 4.07025 7.18066 4.21541 7.18066 4.3667C7.18066 4.51798 7.24041 4.66314 7.3469 4.77059C7.45338 4.87805 7.598 4.9391 7.74927 4.94047H16.2509C16.4022 4.9391 16.5468 4.87805 16.6533 4.77059C16.7598 4.66314 16.8196 4.51798 16.8196 4.3667C16.8196 4.21541 16.7598 4.07025 16.6533 3.9628C16.5468 3.85534 16.4022 3.79429 16.2509 3.79292Z" fill="#FF9F33"/>
<path d="M15.9399 6.92751V5.40938H8.06018V6.92765C8.06021 7.37595 8.13696 7.82093 8.2871 8.24334H15.713C15.8631 7.82089 15.9399 7.37585 15.9399 6.92751ZM8.85926 6.5625H8.76551C8.70335 6.5625 8.64373 6.53781 8.59978 6.49385C8.55583 6.4499 8.53113 6.39029 8.53113 6.32813C8.53113 6.26597 8.55583 6.20635 8.59978 6.1624C8.64373 6.11844 8.70335 6.09375 8.76551 6.09375H8.85926C8.92142 6.09375 8.98103 6.11844 9.02499 6.1624C9.06894 6.20635 9.09363 6.26597 9.09363 6.32813C9.09363 6.39029 9.06894 6.4499 9.02499 6.49385C8.98103 6.53781 8.92142 6.5625 8.85926 6.5625ZM12.703 6.5625H9.79676C9.7346 6.5625 9.67498 6.53781 9.63103 6.49385C9.58708 6.4499 9.56238 6.39029 9.56238 6.32813C9.56238 6.26597 9.58708 6.20635 9.63103 6.1624C9.67498 6.11844 9.7346 6.09375 9.79676 6.09375H12.703C12.7652 6.09375 12.8248 6.11844 12.8687 6.1624C12.9127 6.20635 12.9374 6.26597 12.9374 6.32813C12.9374 6.39029 12.9127 6.4499 12.8687 6.49385C12.8248 6.53781 12.7652 6.5625 12.703 6.5625Z" fill="#FF9F33"/>
</svg>
