<svg width="8" height="12" viewBox="0 0 8 12" fill="none" xmlns="http://www.w3.org/2000/svg">
<path d="M4 0C1.80467 0 0 1.71192 0 4.15385C0 5.02529 0.205266 5.6315 0.586538 6.3029L3.73077 11.8414C3.75739 11.8894 3.79639 11.9295 3.84374 11.9574C3.89108 11.9853 3.94504 12 4 12C4.05496 12 4.10892 11.9853 4.15626 11.9574C4.20361 11.9295 4.24262 11.8894 4.26923 11.8414L7.41346 6.3029C7.79474 5.63148 8 5.02528 8 4.15385C8 1.71192 6.19533 0 4 0ZM4 2.15385C5.0196 2.15385 5.84615 2.9804 5.84615 4C5.84615 5.01959 5.0196 5.84615 4 5.84615C2.9804 5.84615 2.15385 5.01959 2.15385 4C2.15385 2.9804 2.9804 2.15385 4 2.15385Z" fill="#26282B"/>
</svg>
