<svg width="230" height="80" viewBox="0 0 230 80" fill="none" xmlns="http://www.w3.org/2000/svg">
<path d="M33.8573 8.60037H23.8417V41.7726C23.8417 43.6877 23.4195 45.1027 22.5646 46.0283C21.7202 46.9539 20.6226 47.4113 19.2822 47.4113C17.9207 47.4113 16.8019 46.9433 15.9472 46.007C15.0923 45.0707 14.6595 43.6664 14.6595 41.7726V8.60037H4.64369C3.07127 8.60037 1.91019 8.24934 1.15023 7.55772C0.390453 6.85565 0 5.93002 0 4.781C0 3.60003 0.400913 2.66371 1.19246 1.97231C1.98397 1.2807 3.13438 0.940308 4.64369 0.940308H33.8573C35.4512 0.940308 36.6227 1.29134 37.4034 2.00426C38.174 2.71701 38.5645 3.64265 38.5645 4.781C38.5645 5.93002 38.1634 6.85565 37.3825 7.55772C36.6014 8.24934 35.4299 8.60037 33.8573 8.60037Z" fill="white"/>
<path d="M109.231 39.6817L101.929 10.5071V42.1128C101.929 43.8615 101.537 45.1732 100.763 46.0476C99.9896 46.9219 98.9616 47.3592 97.69 47.3592C96.4501 47.3592 95.4326 46.9219 94.6483 46.0582C93.8642 45.1945 93.4719 43.883 93.4719 42.1128V5.8791C93.4719 3.87442 93.9912 2.53101 95.0194 1.82713C96.0579 1.13409 97.4568 0.782227 99.2053 0.782227H102.067C103.784 0.782227 105.024 0.942078 105.797 1.25131C106.571 1.56051 107.154 2.12568 107.525 2.93612C107.896 3.74656 108.319 5.06888 108.796 6.90286L115.409 32.0041L122.023 6.90286C122.499 5.06888 122.923 3.74656 123.294 2.93612C123.665 2.12568 124.237 1.56051 125.011 1.25131C125.785 0.942078 127.035 0.782227 128.752 0.782227H131.603C133.362 0.782227 134.761 1.13409 135.8 1.82713C136.828 2.53101 137.347 3.87442 137.347 5.8791V42.1128C137.347 43.8615 136.955 45.1732 136.181 46.0476C135.408 46.9219 134.369 47.3592 133.076 47.3592C131.857 47.3592 130.85 46.9219 130.066 46.0476C129.282 45.1732 128.89 43.8615 128.89 42.1128V10.5071L121.588 39.6817C121.111 41.569 120.729 42.9658 120.422 43.8509C120.125 44.7252 119.574 45.5357 118.769 46.2609C117.953 46.9965 116.84 47.3592 115.409 47.3592C114.329 47.3592 113.417 47.1246 112.675 46.6553C111.933 46.1863 111.35 45.589 110.937 44.864C110.524 44.1281 110.195 43.3286 109.962 42.4433C109.718 41.5583 109.475 40.6306 109.231 39.6817Z" fill="white"/>
<path d="M229.114 32.8428C229.114 35.6046 228.406 38.089 226.989 40.2963C225.582 42.5037 223.51 44.2311 220.781 45.4786C218.053 46.7263 214.817 47.3448 211.084 47.3448C206.601 47.3448 202.9 46.4917 199.992 44.7963C197.929 43.5698 196.258 41.9278 194.969 39.8805C193.678 37.833 193.033 35.839 193.033 33.8985C193.033 32.7788 193.424 31.819 194.196 31.0086C194.969 30.209 195.952 29.8143 197.147 29.8143C198.12 29.8143 198.934 30.1235 199.6 30.7528C200.277 31.3712 200.848 32.2989 201.324 33.5358C201.895 34.9859 202.529 36.2124 203.196 37.1826C203.872 38.1638 204.814 38.974 206.03 39.6139C207.256 40.243 208.853 40.5629 210.841 40.5629C213.559 40.5629 215.78 39.9232 217.482 38.6435C219.185 37.364 220.041 35.7644 220.041 33.845C220.041 32.3202 219.586 31.0833 218.666 30.1448C217.746 29.1959 216.551 28.4709 215.092 27.9697C213.644 27.4684 211.687 26.9352 209.255 26.3701C205.998 25.6025 203.259 24.6959 201.07 23.6724C198.871 22.638 197.126 21.2304 195.836 19.4497C194.546 17.669 193.9 15.4617 193.9 12.8066C193.9 10.29 194.577 8.0507 195.941 6.08864C197.306 4.13722 199.283 2.63374 201.863 1.57804C204.443 0.522511 207.478 0 210.968 0C213.749 0 216.16 0.351819 218.201 1.04507C220.231 1.74874 221.923 2.67638 223.267 3.82803C224.599 4.97965 225.582 6.19537 226.206 7.46421C226.819 8.73327 227.137 9.98078 227.137 11.1857C227.137 12.284 226.746 13.2863 225.973 14.1715C225.202 15.0565 224.229 15.4936 223.076 15.4936C222.019 15.4936 221.225 15.227 220.676 14.7045C220.126 14.1715 219.533 13.2969 218.899 12.092C218.064 10.3646 217.08 9.01031 215.917 8.04003C214.764 7.06974 212.903 6.58984 210.333 6.58984C207.965 6.58984 206.04 7.1124 204.591 8.1681C203.132 9.22363 202.402 10.482 202.402 11.9641C202.402 12.8811 202.646 13.6703 203.143 14.342C203.64 15.003 204.327 15.5788 205.194 16.0588C206.061 16.5387 206.939 16.9118 207.827 17.1891C208.716 17.4557 210.185 17.8501 212.227 18.3727C214.786 18.9805 217.112 19.6417 219.185 20.3773C221.257 21.1025 223.023 21.9876 224.482 23.0326C225.942 24.0669 227.073 25.3892 227.888 26.9779C228.702 28.5774 229.114 30.5288 229.114 32.8428Z" fill="white"/>
<path d="M63.294 0.40979C68.0159 0.40979 72.0604 1.36114 75.4377 3.27457C78.8154 5.17732 81.3774 7.89393 83.1139 11.4141C84.8501 14.9341 85.7183 19.0673 85.7183 23.8136C85.7183 27.3231 85.2418 30.5156 84.289 33.3802C83.336 36.2554 81.9174 38.7396 80.0116 40.8432C78.1059 42.9468 75.7767 44.5536 73.0026 45.6741C70.2287 46.7841 67.0629 47.3444 63.4844 47.3444C59.927 47.3444 56.7401 46.7735 53.9345 45.6212C51.1182 44.4796 48.7783 42.8624 46.8937 40.7799C45.0092 38.6974 43.5904 36.1921 42.6269 33.2533C41.6635 30.3252 41.187 27.154 41.187 23.7502C41.187 20.2618 41.6846 17.0695 42.6905 14.1518C43.6963 11.2448 45.1467 8.77132 47.0525 6.72056C48.9478 4.68031 51.2663 3.11593 53.998 2.0377C56.719 0.948807 59.8211 0.40979 63.294 0.40979ZM76.3803 23.7502C76.3803 20.4309 75.84 17.5452 74.7708 15.1032C73.691 12.6719 72.1556 10.8327 70.1653 9.57471C68.1747 8.32739 65.8773 7.70373 63.294 7.70373C61.4622 7.70373 59.7577 8.05256 58.2014 8.73955C56.6342 9.43717 55.2897 10.4414 54.1673 11.7629C53.045 13.0843 52.1558 14.7755 51.4993 16.8262C50.8536 18.8876 50.5252 21.1921 50.5252 23.7502C50.5252 26.34 50.8536 28.6657 51.4993 30.7587C52.1558 32.8412 53.0768 34.5749 54.2628 35.949C55.4484 37.3232 56.8143 38.3486 58.3496 39.0251C59.8952 39.7121 61.5787 40.0505 63.4209 40.0505C65.7818 40.0505 67.9417 39.4586 69.9217 38.2851C71.891 37.1117 73.458 35.2936 74.6331 32.8305C75.7978 30.3781 76.3803 27.3442 76.3803 23.7502Z" fill="white"/>
<path fill-rule="evenodd" clip-rule="evenodd" d="M169.986 24.4287L165.382 11.1515L160.763 24.4707C158.533 30.9162 156.409 37.9232 153.757 44.1613C153.376 45.0686 153.026 45.7542 152.696 46.1973C152.355 46.6402 151.945 46.9883 151.465 47.2414C150.974 47.5052 150.384 47.6318 149.703 47.6318C148.533 47.6318 147.522 47.1992 146.691 46.3238C145.85 45.48 145.43 44.5202 145.43 43.4548C145.43 42.8323 145.53 42.189 145.72 41.5348C145.866 41.0498 146.076 40.4358 146.354 39.6801L146.356 39.6746L146.36 39.6656C146.438 39.4507 146.52 39.2287 146.608 38.9999L146.611 38.9913L146.629 38.9458L146.691 38.7815L157.679 9.37215C157.999 8.52834 158.369 7.51544 158.81 6.33408C159.25 5.14222 159.72 4.16112 160.221 3.38064C160.721 2.59994 161.372 1.96703 162.182 1.48191C162.993 0.996571 163.994 0.753906 165.184 0.753906C165.573 0.753906 165.94 0.778626 166.285 0.827686C167.165 0.907698 167.926 1.13991 168.567 1.52392C169.378 2.00905 170.028 2.64195 170.528 3.42265C171.029 4.20313 171.499 5.18427 171.94 6.37609C172.38 7.55745 172.75 8.57037 173.07 9.41418L183.02 36.0447L183.978 38.5391C184.359 39.5025 184.658 40.3512 184.874 41.0862C184.932 41.2625 184.983 41.426 185.029 41.5768C185.219 42.231 185.319 42.8744 185.319 43.4968C185.319 44.5622 184.899 45.522 184.058 46.3658C183.217 47.2098 182.247 47.6318 181.156 47.6318C180.091 47.6318 179.271 47.3588 178.702 46.8188C178.463 46.6282 178.247 46.407 178.054 46.1553C177.723 45.7122 177.373 45.0266 176.993 44.1193C174.34 37.8812 172.216 30.8742 169.986 24.4287Z" fill="white"/>
<path fill-rule="evenodd" clip-rule="evenodd" d="M167.517 38.0111L165.397 32.2953L163.271 38.0292C162.244 40.804 161.266 43.8205 160.045 46.506C159.87 46.8966 159.709 47.1917 159.557 47.3825C159.4 47.5732 159.211 47.723 158.99 47.8319C158.764 47.9455 158.492 48 158.179 48C157.64 48 157.174 47.8138 156.792 47.437C156.405 47.0737 156.211 46.6605 156.211 46.2018C156.211 45.9339 156.258 45.6569 156.345 45.3752C156.412 45.1665 156.509 44.9021 156.637 44.5768L156.638 44.5745L156.639 44.5706C156.675 44.4781 156.713 44.3825 156.754 44.284L156.755 44.2803L156.763 44.2607L156.792 44.19L161.851 31.5292C161.998 31.166 162.169 30.7299 162.372 30.2213C162.574 29.7083 162.791 29.2859 163.021 28.9499C163.251 28.6138 163.551 28.3414 163.924 28.1325C164.298 27.9235 164.758 27.8191 165.306 27.8191C165.485 27.8191 165.654 27.8297 165.813 27.8509C166.218 27.8853 166.569 27.9853 166.864 28.1506C167.237 28.3594 167.537 28.6319 167.767 28.968C167.997 29.304 168.214 29.7264 168.417 30.2395C168.619 30.748 168.79 31.1841 168.937 31.5474L173.518 43.0118L173.959 44.0856C174.135 44.5004 174.272 44.8657 174.372 45.1822C174.398 45.258 174.422 45.3284 174.443 45.3933C174.531 45.675 174.577 45.9519 174.577 46.2199C174.577 46.6785 174.383 47.0917 173.996 47.455C173.609 47.8184 173.162 48 172.66 48C172.169 48 171.792 47.8825 171.53 47.65C171.42 47.568 171.321 47.4728 171.232 47.3644C171.08 47.1736 170.918 46.8785 170.743 46.4879C169.522 43.8024 168.544 40.7859 167.517 38.0111Z" fill="white"/>
<g clip-path="url(#clip0)">
<path d="M140.172 62.2972H144.789C145.83 62.2818 146.869 62.3952 147.881 62.6349C148.748 62.8599 149.549 63.2845 150.22 63.8743C152.042 65.4277 152.947 67.7917 152.936 70.9662C152.949 71.9237 152.863 72.8801 152.678 73.8199C152.512 74.6347 152.227 75.4209 151.832 76.1534C151.447 76.848 150.951 77.4753 150.363 78.0108C149.905 78.4245 149.386 78.7661 148.825 79.024C148.254 79.2831 147.649 79.4637 147.029 79.5609C146.312 79.6707 145.586 79.7226 144.86 79.7163H140.244C139.741 79.7466 139.239 79.6465 138.788 79.4259C138.631 79.3361 138.493 79.2161 138.384 79.0729C138.274 78.9296 138.195 78.766 138.149 78.5917C138.039 78.1432 137.989 77.6822 138 77.2206V64.4585C138 63.6998 138.171 63.1493 138.513 62.8071C138.854 62.4649 139.408 62.2949 140.172 62.2972ZM141.53 65.0866V76.9065H144.215C144.806 76.9065 145.268 76.9065 145.6 76.8593C145.955 76.8228 146.304 76.7434 146.639 76.6229C146.98 76.5051 147.296 76.3241 147.569 76.0893C148.753 75.0896 149.345 73.3718 149.348 70.9358C149.348 69.2157 149.087 67.929 148.567 67.0758C148.153 66.3107 147.464 65.7285 146.639 65.4446C145.737 65.1974 144.804 65.0836 143.869 65.1069L141.53 65.0866Z" fill="white"/>
<path d="M160.828 72.2597H159.589V77.8488C159.638 78.4333 159.463 79.0147 159.1 79.4766C158.936 79.6494 158.738 79.7855 158.517 79.8758C158.296 79.966 158.059 80.0084 157.82 80.0001C157.574 80.014 157.329 79.972 157.102 79.8771C156.875 79.7823 156.672 79.6373 156.51 79.453C156.168 78.9904 156.003 78.4216 156.045 77.8488V64.4586C156.045 63.6999 156.216 63.1494 156.558 62.8072C156.897 62.4695 157.45 62.2972 158.214 62.2972H163.985C164.665 62.2916 165.345 62.3254 166.021 62.3986C166.549 62.4557 167.064 62.5936 167.549 62.8072C168.095 63.0362 168.59 63.3715 169.005 63.7933C169.424 64.219 169.751 64.7259 169.966 65.2826C170.189 65.8567 170.304 66.4669 170.305 67.0826C170.362 68.2233 169.966 69.3406 169.202 70.1929C168.457 70.9697 167.335 71.519 165.835 71.841C166.519 72.2205 167.13 72.7192 167.637 73.3134C168.207 73.96 168.72 74.6537 169.171 75.3869C169.568 76.0217 169.919 76.6842 170.22 77.3693C170.411 77.7515 170.539 78.1621 170.597 78.585C170.591 78.8267 170.514 79.0614 170.376 79.2605C170.225 79.4887 170.017 79.6738 169.772 79.7974C169.498 79.9313 169.195 79.9984 168.89 79.9933C168.529 80.0086 168.173 79.9106 167.871 79.713C167.604 79.5234 167.374 79.2864 167.192 79.0139C166.999 78.7303 166.734 78.3081 166.398 77.7543L164.979 75.3903C164.59 74.6931 164.135 74.0339 163.621 73.4214C163.291 73.0229 162.873 72.7052 162.399 72.4927C161.895 72.3171 161.362 72.2381 160.828 72.2597ZM162.864 64.9449H159.589V69.7303H162.78C163.502 69.7436 164.224 69.6699 164.928 69.5107C165.433 69.3969 165.891 69.1331 166.242 68.7543C166.568 68.3409 166.731 67.8233 166.7 67.2987C166.711 66.8488 166.583 66.4064 166.334 66.0309C166.084 65.6554 165.725 65.3648 165.305 65.1982C164.891 65.0316 164.075 64.9471 162.858 64.9449H162.864Z" fill="white"/>
<path d="M173.788 77.8488V64.1377C173.744 63.5611 173.918 62.989 174.276 62.5336C174.436 62.3591 174.632 62.2211 174.851 62.129C175.069 62.0369 175.305 61.9929 175.543 62C175.784 61.9909 176.024 62.0333 176.248 62.1241C176.472 62.215 176.673 62.3522 176.839 62.5268C177.202 62.9827 177.378 63.5582 177.331 64.1377V77.8488C177.378 78.4294 177.202 79.0061 176.839 79.463C176.674 79.6394 176.473 79.7786 176.249 79.8712C176.026 79.9638 175.785 80.0077 175.543 80C175.306 80.0059 175.071 79.9607 174.853 79.8674C174.636 79.7741 174.441 79.635 174.283 79.4596C173.922 79.0031 173.745 78.4285 173.788 77.8488Z" fill="white"/>
<path d="M183.886 64.3167L187.848 75.9846L191.819 64.2322C192.026 63.6142 192.182 63.1853 192.287 62.9422C192.401 62.686 192.577 62.462 192.8 62.2904C193.082 62.0832 193.428 61.9805 193.778 62C194.074 61.9975 194.365 62.0758 194.619 62.2262C194.871 62.3694 195.08 62.5755 195.227 62.824C195.367 63.052 195.443 63.3132 195.448 63.5805C195.442 63.7709 195.415 63.9601 195.366 64.1444C195.318 64.3448 195.258 64.5422 195.186 64.7354C195.115 64.9313 195.044 65.1305 194.972 65.3365L190.746 76.7107C190.594 77.1463 190.444 77.5583 190.292 77.9501C190.156 78.3126 189.981 78.6591 189.769 78.9835C189.55 79.3092 189.25 79.5735 188.899 79.751C188.548 79.9284 188.156 80.013 187.763 79.9966C187.341 80.0092 186.924 79.9126 186.551 79.7163C186.229 79.5382 185.956 79.2856 185.753 78.9801C185.539 78.6533 185.36 78.3046 185.22 77.9399C185.071 77.5549 184.918 77.1429 184.769 76.7073L180.604 65.4277C180.533 65.2217 180.458 65.0191 180.383 64.8232C180.304 64.6141 180.239 64.3997 180.19 64.1816C180.144 63.9911 180.119 63.7964 180.115 63.6007C180.118 63.3934 180.162 63.1888 180.246 62.9991C180.33 62.8093 180.452 62.6384 180.604 62.4964C180.763 62.3331 180.954 62.2045 181.165 62.119C181.377 62.0336 181.604 61.993 181.833 62C182.076 61.9754 182.321 62.0131 182.546 62.1094C182.771 62.2058 182.967 62.3576 183.116 62.5504C183.449 63.1032 183.708 63.697 183.886 64.3167Z" fill="white"/>
<path d="M209.623 65.0157H201.653V69.2912H209.005C209.44 69.2569 209.872 69.3858 210.217 69.6525C210.349 69.7735 210.453 69.9216 210.523 70.0866C210.592 70.2516 210.624 70.4296 210.617 70.6082C210.624 70.7877 210.592 70.9666 210.524 71.1331C210.456 71.2995 210.354 71.4498 210.224 71.5741C209.882 71.8519 209.445 71.9864 209.005 71.9489H201.653V76.8998H209.911C210.365 76.8661 210.814 77.0035 211.171 77.2848C211.309 77.4147 211.418 77.572 211.491 77.7465C211.564 77.9211 211.599 78.1089 211.595 78.2979C211.602 78.4873 211.568 78.6759 211.495 78.8508C211.421 79.0257 211.311 79.1827 211.171 79.311C210.814 79.5923 210.365 79.7297 209.911 79.696H200.281C199.511 79.696 198.954 79.5238 198.618 79.1861C198.282 78.8484 198.109 78.2945 198.109 77.5347V64.4585C198.093 64.0327 198.17 63.6085 198.336 63.2157C198.478 62.9034 198.73 62.6544 199.046 62.5167C199.437 62.3578 199.858 62.283 200.281 62.2972H209.623C210.08 62.2584 210.535 62.3936 210.896 62.6754C211.034 62.7973 211.143 62.9479 211.217 63.1165C211.29 63.2852 211.325 63.4677 211.32 63.6514C211.328 63.8361 211.295 64.0203 211.224 64.1912C211.153 64.362 211.046 64.5155 210.909 64.6409C210.544 64.9248 210.084 65.0589 209.623 65.0157Z" fill="white"/>
<path d="M219.171 72.2597H217.932V77.8488C217.979 78.4353 217.8 79.0175 217.43 79.4766C217.267 79.6497 217.069 79.786 216.849 79.8763C216.629 79.9666 216.392 80.0088 216.154 80.0001C215.908 80.014 215.662 79.972 215.435 79.8771C215.208 79.7823 215.006 79.6373 214.843 79.453C214.5 78.9909 214.334 78.422 214.375 77.8488V64.4586C214.375 63.6999 214.547 63.1494 214.891 62.8072C215.235 62.465 215.79 62.295 216.558 62.2972H222.328C223.008 62.2916 223.689 62.3254 224.365 62.3986C224.892 62.4557 225.407 62.5936 225.892 62.8072C226.438 63.0356 226.932 63.3709 227.345 63.7933C227.762 64.2185 228.085 64.7258 228.292 65.2826C228.517 65.8563 228.632 66.4668 228.632 67.0826C228.689 68.2233 228.293 69.3406 227.528 70.1929C226.793 70.9697 225.677 71.519 224.182 71.841C224.866 72.2205 225.477 72.7192 225.984 73.3134C227.041 74.5302 227.912 75.8958 228.567 77.3659C228.758 77.7481 228.886 78.1587 228.944 78.5817C228.938 78.8239 228.86 79.059 228.72 79.2571C228.571 79.4859 228.364 79.6712 228.119 79.7941C227.845 79.9279 227.542 79.995 227.237 79.9899C226.876 80.0041 226.52 79.9061 226.218 79.7096C225.945 79.5189 225.709 79.2797 225.522 79.0038C225.325 78.7201 225.061 78.298 224.728 77.7441L223.309 75.3802C222.918 74.6837 222.464 74.0246 221.951 73.4113C221.621 73.0128 221.203 72.6951 220.729 72.4826C220.229 72.3121 219.7 72.2365 219.171 72.2597ZM221.208 64.9449H217.939V69.7303H221.113C221.835 69.7434 222.557 69.6697 223.262 69.5107C223.77 69.3989 224.232 69.1349 224.585 68.7543C224.912 68.3409 225.074 67.8233 225.044 67.2987C225.054 66.8488 224.926 66.4064 224.677 66.0309C224.428 65.6554 224.069 65.3648 223.649 65.1982C223.235 65.0395 222.416 64.9449 221.201 64.9449H221.208Z" fill="white"/>
</g>
<defs>
<clipPath id="clip0">
<rect width="90.9474" height="18" fill="white" transform="translate(138 62)"/>
</clipPath>
</defs>
</svg>
