<svg width="115" height="40" viewBox="0 0 115 40" fill="none" xmlns="http://www.w3.org/2000/svg">
<path d="M16.929 4.30022H11.9211V20.8868C11.9211 21.8443 11.71 22.5518 11.2826 23.0146C10.8604 23.4775 10.3116 23.7062 9.64136 23.7062C8.96058 23.7062 8.40114 23.4722 7.9738 23.004C7.54635 22.5358 7.32992 21.8336 7.32992 20.8868V4.30022H2.3219C1.53567 4.30022 0.955116 4.1247 0.575129 3.77888C0.195231 3.42784 0 2.96501 0 2.39049C0 1.79999 0.200462 1.33182 0.596245 0.986107C0.992011 0.640293 1.56723 0.470093 2.3219 0.470093H16.929C17.726 0.470093 18.3118 0.645613 18.7022 1.00208C19.0875 1.35846 19.2827 1.8213 19.2827 2.39049C19.2827 2.96501 19.0822 3.42784 18.6917 3.77888C18.3012 4.1247 17.7154 4.30022 16.929 4.30022Z" fill="#CC0000"/>
<path d="M54.6168 19.8413L50.9657 5.25367V21.0569C50.9657 21.9313 50.7698 22.5871 50.3828 23.0243C49.996 23.4615 49.482 23.6802 48.8461 23.6802C48.2262 23.6802 47.7174 23.4615 47.3253 23.0297C46.9332 22.5978 46.7371 21.9421 46.7371 21.0569V2.93961C46.7371 1.93725 46.9967 1.26553 47.5108 0.913576C48.0301 0.56705 48.7295 0.391113 49.6038 0.391113H51.0345C51.893 0.391113 52.513 0.471041 52.8999 0.625662C53.2867 0.780264 53.5781 1.06286 53.7637 1.46809C53.9491 1.87332 54.161 2.53449 54.3995 3.4515L57.7061 16.0024L61.0128 3.4515C61.2511 2.53449 61.4631 1.87332 61.6485 1.46809C61.834 1.06286 62.1202 0.780264 62.507 0.625662C62.8938 0.471041 63.5191 0.391113 64.3775 0.391113H65.8029C66.6827 0.391113 67.3821 0.56705 67.9015 0.913576C68.4155 1.26553 68.6751 1.93725 68.6751 2.93961V21.0569C68.6751 21.9313 68.479 22.5871 68.0923 23.0243C67.7054 23.4615 67.186 23.6802 66.5396 23.6802C65.9302 23.6802 65.4268 23.4615 65.0347 23.0243C64.6425 22.5871 64.4465 21.9313 64.4465 21.0569V5.25367L60.7954 19.8413C60.557 20.785 60.3662 21.4834 60.2126 21.926C60.0642 22.3632 59.7886 22.7684 59.3858 23.131C58.9778 23.4988 58.4214 23.6802 57.7061 23.6802C57.1656 23.6802 56.7099 23.5629 56.339 23.3282C55.968 23.0937 55.6765 22.795 55.4699 22.4325C55.2633 22.0646 55.099 21.6648 54.9824 21.2222C54.8605 20.7796 54.7386 20.3158 54.6168 19.8413Z" fill="#CC0000"/>
<path d="M114.56 16.4218C114.56 17.8027 114.206 19.045 113.497 20.1487C112.794 21.2524 111.758 22.1161 110.393 22.7399C109.029 23.3637 107.411 23.673 105.545 23.673C103.303 23.673 101.452 23.2464 99.9983 22.3987C98.9672 21.7855 98.1317 20.9644 97.4867 19.9408C96.8416 18.917 96.519 17.9199 96.519 16.9497C96.519 16.3898 96.7147 15.9099 97.1007 15.5047C97.4867 15.1049 97.9784 14.9075 98.5759 14.9075C99.0624 14.9075 99.4696 15.0621 99.8026 15.3768C100.141 15.686 100.427 16.1498 100.664 16.7683C100.95 17.4934 101.267 18.1066 101.6 18.5918C101.939 19.0823 102.409 19.4875 103.017 19.8075C103.631 20.122 104.429 20.282 105.423 20.282C106.782 20.282 107.893 19.9621 108.744 19.3222C109.595 18.6825 110.023 17.8827 110.023 16.9229C110.023 16.1605 109.796 15.5421 109.336 15.0728C108.876 14.5983 108.278 14.2358 107.549 13.9852C106.824 13.7346 105.846 13.468 104.63 13.1854C103.002 12.8015 101.632 12.3483 100.538 11.8365C99.4378 11.3193 98.5653 10.6155 97.9203 9.72509C97.2752 8.83471 96.9526 7.73102 96.9526 6.40344C96.9526 5.14513 97.291 4.02545 97.9731 3.0444C98.6553 2.06866 99.644 1.3169 100.934 0.789038C102.224 0.261262 103.742 0 105.487 0C106.877 0 108.083 0.175914 109.103 0.522547C110.118 0.874392 110.965 1.33822 111.636 1.91406C112.302 2.48989 112.794 3.09776 113.106 3.7322C113.413 4.36674 113.571 4.99051 113.571 5.59299C113.571 6.14216 113.376 6.6433 112.99 7.08593C112.604 7.52844 112.117 7.747 111.541 7.747C111.012 7.747 110.616 7.61371 110.341 7.35242C110.066 7.08593 109.769 6.64863 109.452 6.04615C109.035 5.18242 108.543 4.50527 107.961 4.02011C107.385 3.53496 106.454 3.295 105.169 3.295C103.985 3.295 103.023 3.55629 102.298 4.08415C101.569 4.61193 101.204 5.24114 101.204 5.98222C101.204 6.44073 101.325 6.8353 101.574 7.17117C101.822 7.50171 102.166 7.78962 102.6 8.02959C103.033 8.26954 103.472 8.45613 103.916 8.59476C104.36 8.72805 105.095 8.92529 106.116 9.18656C107.395 9.49046 108.559 9.8211 109.595 10.1889C110.632 10.5515 111.514 10.9941 112.244 11.5166C112.974 12.0337 113.54 12.6949 113.947 13.4893C114.354 14.2891 114.56 15.2648 114.56 16.4218Z" fill="#CC0000"/>
<path d="M31.6478 0.204834C34.0088 0.204834 36.0311 0.680522 37.7198 1.63726C39.4086 2.58866 40.6897 3.94699 41.5579 5.70714C42.4261 7.46719 42.8602 9.53384 42.8602 11.907C42.8602 13.6618 42.6219 15.2581 42.1455 16.6904C41.669 18.1281 40.9597 19.3702 40.0068 20.4221C39.0539 21.4739 37.8893 22.2773 36.5022 22.8375C35.1152 23.3925 33.5323 23.6727 31.743 23.6727C29.9642 23.6727 28.3707 23.3872 26.9679 22.8111C25.5597 22.2403 24.3897 21.4317 23.4474 20.3904C22.5051 19.3491 21.7957 18.0964 21.314 16.627C20.8322 15.1629 20.594 13.5773 20.594 11.8753C20.594 10.1311 20.8428 8.53489 21.3457 7.07603C21.8487 5.62249 22.5739 4.3857 23.5268 3.3603C24.4745 2.34015 25.6338 1.55794 26.9996 1.01881C28.3602 0.474349 29.9112 0.204834 31.6478 0.204834ZM38.191 11.8753C38.191 10.2156 37.9209 8.77274 37.3863 7.55172C36.8464 6.33605 36.0786 5.4164 35.0835 4.78741C34.0882 4.16373 32.9395 3.8519 31.6478 3.8519C30.7319 3.8519 29.8796 4.02631 29.1014 4.36981C28.3178 4.71864 27.6455 5.22078 27.0843 5.88154C26.5232 6.54222 26.0785 7.38786 25.7503 8.41325C25.4274 9.44397 25.2632 10.5962 25.2632 11.8753C25.2632 13.1702 25.4274 14.3332 25.7503 15.3797C26.0785 16.4209 26.539 17.2878 27.132 17.9749C27.7249 18.662 28.4078 19.1747 29.1755 19.513C29.9483 19.8565 30.7901 20.0257 31.7112 20.0257C32.8917 20.0257 33.9717 19.7297 34.9617 19.1429C35.9463 18.5562 36.7299 17.6472 37.3175 16.4156C37.8998 15.1893 38.191 13.6724 38.191 11.8753Z" fill="#CC0000"/>
<path fill-rule="evenodd" clip-rule="evenodd" d="M84.9951 12.2146L82.6929 5.57586L80.3835 12.2357C79.2684 15.4585 78.2063 18.9621 76.8801 22.0812C76.6899 22.5349 76.5147 22.8777 76.3497 23.0992C76.1795 23.3207 75.9743 23.4947 75.7342 23.6213C75.489 23.7532 75.1937 23.8165 74.8534 23.8165C74.268 23.8165 73.7626 23.6002 73.3473 23.1624C72.9269 22.7405 72.7168 22.2606 72.7168 21.7279C72.7168 21.4167 72.7668 21.095 72.8619 20.7679C72.9348 20.5254 73.0399 20.2184 73.1789 19.8405L73.1799 19.8378L73.1816 19.8333C73.2205 19.7258 73.2618 19.6148 73.3058 19.5004L73.3074 19.4961L73.3161 19.4734L73.3473 19.3912L78.8415 4.68618C79.0015 4.26427 79.1866 3.7578 79.4067 3.16711C79.627 2.57116 79.8621 2.0806 80.1123 1.69035C80.3624 1.29999 80.6878 0.983532 81.0931 0.740964C81.4985 0.498289 81.9987 0.376953 82.5941 0.376953C82.7883 0.376953 82.9717 0.389313 83.1447 0.413844C83.5845 0.453851 83.9648 0.569957 84.2854 0.76197C84.6908 1.00454 85.0161 1.321 85.2662 1.71136C85.5164 2.10161 85.7516 2.59219 85.9718 3.18811C86.192 3.77881 86.3771 4.28528 86.5372 4.7072L91.5122 18.0228L91.9912 19.27C92.1818 19.7517 92.331 20.1761 92.4391 20.5436C92.4681 20.6318 92.4939 20.7135 92.5167 20.7889C92.6118 21.116 92.6618 21.4377 92.6618 21.7489C92.6618 22.2816 92.4515 22.7615 92.0313 23.1835C91.6109 23.6055 91.1256 23.8165 90.5802 23.8165C90.0475 23.8165 89.6376 23.68 89.3532 23.41C89.2338 23.3146 89.1258 23.2041 89.0289 23.0782C88.8638 22.8566 88.6887 22.5138 88.4986 22.0602C87.1723 18.9411 86.1102 15.4375 84.9951 12.2146Z" fill="#CC0000"/>
<path fill-rule="evenodd" clip-rule="evenodd" d="M83.7607 19.006L82.7008 16.1481L81.6375 19.0151C81.1241 20.4025 80.6351 21.9108 80.0245 23.2536C79.9369 23.4489 79.8563 23.5965 79.7803 23.6918C79.7019 23.7872 79.6075 23.8621 79.4969 23.9166C79.384 23.9734 79.2481 24.0006 79.0914 24.0006C78.8219 24.0006 78.5892 23.9075 78.398 23.7191C78.2044 23.5374 78.1077 23.3308 78.1077 23.1015C78.1077 22.9675 78.1307 22.829 78.1745 22.6882C78.2081 22.5838 78.2564 22.4516 78.3204 22.289L78.3209 22.2878L78.3216 22.2859C78.3396 22.2396 78.3586 22.1918 78.3789 22.1426L78.3796 22.1407L78.3836 22.1309L78.398 22.0956L80.9275 15.765C81.0012 15.5834 81.0864 15.3654 81.1878 15.1111C81.2892 14.8545 81.3974 14.6433 81.5126 14.4753C81.6278 14.3073 81.7776 14.1711 81.9642 14.0666C82.1509 13.9621 82.3812 13.9099 82.6553 13.9099C82.7447 13.9099 82.8291 13.9152 82.9088 13.9258C83.1113 13.943 83.2863 13.993 83.434 14.0757C83.6206 14.1801 83.7704 14.3163 83.8855 14.4844C84.0007 14.6524 84.109 14.8636 84.2104 15.1201C84.3117 15.3744 84.397 15.5925 84.4707 15.7741L86.7612 21.5064L86.9818 22.0434C87.0695 22.2508 87.1382 22.4334 87.188 22.5917C87.2013 22.6296 87.2132 22.6648 87.2237 22.6973C87.2675 22.8381 87.2905 22.9766 87.2905 23.1105C87.2905 23.3399 87.1937 23.5465 87.0002 23.7281C86.8067 23.9098 86.5832 24.0006 86.3321 24.0006C86.0869 24.0006 85.8982 23.9419 85.7672 23.8256C85.7122 23.7846 85.6625 23.737 85.6179 23.6828C85.5419 23.5874 85.4613 23.4398 85.3738 23.2445C84.7631 21.9018 84.2741 20.3935 83.7607 19.006Z" fill="#CC0000"/>
<g clip-path="url(#clip0)">
<path d="M70.088 31.1492H72.3963C72.9167 31.1416 73.4361 31.1983 73.9425 31.3181C74.3757 31.4306 74.7763 31.6429 75.1119 31.9378C76.0227 32.7146 76.4753 33.8966 76.4697 35.4839C76.4764 35.9627 76.4332 36.4408 76.3407 36.9107C76.258 37.3182 76.1156 37.7113 75.9181 38.0776C75.7255 38.4248 75.4773 38.7385 75.1832 39.0063C74.9543 39.2131 74.695 39.3839 74.4143 39.5129C74.1286 39.6424 73.8266 39.7327 73.5164 39.7814C73.1576 39.8362 72.7949 39.8622 72.4319 39.859H70.1236C69.8724 39.8742 69.6215 39.8242 69.3955 39.7138C69.3171 39.6689 69.2484 39.6089 69.1936 39.5373C69.1388 39.4657 69.099 39.3839 69.0764 39.2967C69.0213 39.0725 68.9962 38.842 69.0017 38.6112V32.2299C69.0017 31.8506 69.0872 31.5753 69.258 31.4042C69.4289 31.2331 69.7055 31.1481 70.088 31.1492ZM70.7669 32.544V38.4541H72.1094C72.4047 38.4541 72.6356 38.4541 72.8019 38.4305C72.9792 38.4122 73.1536 38.3725 73.3213 38.3123C73.4918 38.2534 73.6497 38.1629 73.7863 38.0455C74.3781 37.5457 74.6745 36.6867 74.6757 35.4687C74.6757 34.6086 74.5456 33.9653 74.2853 33.5386C74.0781 33.1561 73.734 32.865 73.3213 32.723C72.8704 32.5994 72.4038 32.5425 71.9363 32.5542L70.7669 32.544Z" fill="#CC0000"/>
<path d="M80.4159 36.1307H79.7964V38.9253C79.8209 39.2176 79.7336 39.5083 79.552 39.7392C79.4702 39.8257 79.3708 39.8937 79.2604 39.9388C79.1501 39.984 79.0313 40.0052 78.9121 40.001C78.7892 40.0079 78.6663 39.9869 78.5528 39.9395C78.4392 39.8921 78.3381 39.8196 78.257 39.7274C78.0859 39.4961 78.0035 39.2117 78.0244 38.9253V32.2301C78.0244 31.8507 78.1099 31.5754 78.2807 31.4043C78.4505 31.2355 78.7271 31.1494 79.109 31.1494H81.9943C82.3345 31.1465 82.6745 31.1634 83.0127 31.2C83.2763 31.2286 83.534 31.2975 83.7765 31.4043C84.0497 31.5189 84.2973 31.6865 84.5046 31.8974C84.7143 32.1103 84.8778 32.3637 84.9849 32.6421C85.0967 32.9291 85.1542 33.2343 85.1547 33.5421C85.1833 34.1125 84.9852 34.6711 84.603 35.0973C84.2308 35.4857 83.6695 35.7603 82.9194 35.9213C83.2616 36.1111 83.5669 36.3605 83.8206 36.6576C84.1054 36.9809 84.3621 37.3277 84.5878 37.6944C84.7863 38.0118 84.9616 38.343 85.1122 38.6856C85.2078 38.8767 85.2714 39.082 85.3006 39.2935C85.2976 39.4143 85.2592 39.5316 85.1903 39.6312C85.1148 39.7453 85.0107 39.8378 84.8882 39.8997C84.751 39.9666 84.5997 40.0002 84.4469 39.9976C84.2666 40.0053 84.0884 39.9562 83.9377 39.8574C83.804 39.7627 83.6889 39.6442 83.5983 39.5079C83.5015 39.3661 83.3691 39.155 83.2011 38.8781L82.4916 37.696C82.2969 37.3474 82.0696 37.0178 81.8127 36.7116C81.6475 36.5123 81.4384 36.3535 81.2017 36.2472C80.9495 36.1594 80.6829 36.1199 80.4159 36.1307ZM81.4342 32.4732H79.7964V34.866H81.3918C81.7531 34.8726 82.1138 34.8358 82.4662 34.7562C82.7186 34.6993 82.9477 34.5674 83.123 34.3779C83.286 34.1713 83.3675 33.9124 83.3522 33.6502C83.3575 33.4252 83.2935 33.204 83.1688 33.0162C83.0441 32.8285 82.8647 32.6832 82.6546 32.5999C82.4475 32.5166 82.0396 32.4743 81.4309 32.4732H81.4342Z" fill="#CC0000"/>
<path d="M86.8959 38.9253V32.0696C86.874 31.7813 86.9612 31.4952 87.1403 31.2675C87.2202 31.1803 87.3182 31.1113 87.4275 31.0652C87.5368 31.0192 87.6547 30.9972 87.7734 31.0007C87.8941 30.9962 88.0143 31.0174 88.1261 31.0628C88.2379 31.1082 88.3387 31.1769 88.4217 31.2641C88.603 31.4921 88.6909 31.7798 88.6678 32.0696V38.9253C88.6912 39.2156 88.6032 39.504 88.4217 39.7325C88.3392 39.8207 88.2386 39.8902 88.1268 39.9366C88.0149 39.9829 87.8944 40.0048 87.7734 40.0009C87.655 40.0039 87.5374 39.9813 87.4287 39.9347C87.32 39.888 87.2227 39.8184 87.1437 39.7308C86.9629 39.5025 86.8745 39.2152 86.8959 38.9253Z" fill="#CC0000"/>
<path d="M91.9452 32.1591L93.9259 37.9932L95.9117 32.1169C96.0153 31.8079 96.0933 31.5934 96.146 31.4718C96.2029 31.3437 96.291 31.2317 96.4022 31.1459C96.5432 31.0423 96.7161 30.991 96.8911 31.0007C97.0391 30.9995 97.1847 31.0386 97.312 31.1138C97.4377 31.1855 97.5424 31.2885 97.6158 31.4127C97.6859 31.5267 97.724 31.6574 97.7261 31.791C97.7234 31.8862 97.7097 31.9808 97.6854 32.073C97.6613 32.1732 97.6313 32.2718 97.5954 32.3685C97.5598 32.4664 97.5241 32.566 97.4885 32.669L95.3754 38.3562C95.299 38.5741 95.2243 38.7801 95.148 38.976C95.0802 39.1572 94.9925 39.3305 94.8866 39.4927C94.7771 39.6556 94.6273 39.7877 94.4516 39.8764C94.276 39.9651 94.0803 40.0074 93.8835 39.9992C93.6727 40.0055 93.4639 39.9572 93.2776 39.8591C93.1169 39.77 92.98 39.6438 92.8787 39.491C92.7715 39.3276 92.6821 39.1532 92.6123 38.9709C92.5376 38.7784 92.4612 38.5724 92.3865 38.3546L90.304 32.7146C90.2683 32.6116 90.231 32.5103 90.1937 32.4124C90.1539 32.3078 90.1216 32.2006 90.0969 32.0915C90.0741 31.9963 90.0616 31.899 90.0596 31.8011C90.0609 31.6975 90.0833 31.5951 90.1253 31.5003C90.1673 31.4054 90.228 31.3199 90.304 31.2489C90.3834 31.1673 90.479 31.103 90.5848 31.0603C90.6906 31.0175 90.8042 30.9972 90.9184 31.0007C91.04 30.9884 91.1628 31.0073 91.2751 31.0555C91.3874 31.1036 91.4854 31.1795 91.56 31.276C91.7266 31.5523 91.8561 31.8492 91.9452 32.1591Z" fill="#CC0000"/>
<path d="M104.814 32.5087H100.829V34.6465H104.505C104.723 34.6293 104.939 34.6938 105.111 34.8271C105.177 34.8876 105.229 34.9617 105.264 35.0442C105.299 35.1267 105.315 35.2157 105.311 35.305C105.315 35.3948 105.299 35.4842 105.265 35.5674C105.231 35.6507 105.18 35.7258 105.115 35.7879C104.944 35.9269 104.725 35.9941 104.505 35.9754H100.829V38.4509H104.958C105.185 38.434 105.41 38.5027 105.588 38.6434C105.657 38.7083 105.712 38.787 105.748 38.8743C105.785 38.9615 105.802 39.0554 105.8 39.1499C105.804 39.2446 105.787 39.3389 105.75 39.4264C105.713 39.5139 105.658 39.5924 105.588 39.6565C105.41 39.7971 105.185 39.8659 104.958 39.849H100.143C99.7579 39.849 99.4796 39.7629 99.3115 39.594C99.1435 39.4252 99.057 39.1483 99.057 38.7683V32.2301C99.0489 32.0172 99.0877 31.8051 99.1707 31.6087C99.2414 31.4525 99.3678 31.328 99.5254 31.2591C99.7213 31.1797 99.9318 31.1423 100.143 31.1494H104.814C105.043 31.13 105.27 31.1976 105.451 31.3385C105.52 31.3995 105.574 31.4747 105.611 31.5591C105.648 31.6434 105.665 31.7347 105.663 31.8265C105.667 31.9189 105.65 32.011 105.615 32.0964C105.579 32.1818 105.526 32.2586 105.457 32.3213C105.275 32.4632 105.045 32.5303 104.814 32.5087Z" fill="#CC0000"/>
<path d="M109.588 36.1307H108.969V38.9253C108.992 39.2186 108.902 39.5097 108.718 39.7392C108.636 39.8258 108.537 39.8939 108.427 39.9391C108.317 39.9842 108.198 40.0054 108.079 40.001C107.957 40.0079 107.834 39.9869 107.72 39.9395C107.607 39.8921 107.505 39.8196 107.424 39.7274C107.253 39.4964 107.17 39.2119 107.19 38.9253V32.2301C107.19 31.8507 107.276 31.5754 107.448 31.4043C107.62 31.2332 107.898 31.1482 108.281 31.1494H111.167C111.507 31.1465 111.847 31.1634 112.185 31.2C112.449 31.2286 112.706 31.2975 112.949 31.4043C113.222 31.5185 113.469 31.6862 113.675 31.8974C113.884 32.11 114.045 32.3637 114.149 32.6421C114.261 32.9289 114.319 33.2342 114.319 33.5421C114.347 34.1125 114.149 34.6711 113.767 35.0973C113.399 35.4857 112.841 35.7603 112.093 35.9213C112.436 36.1111 112.741 36.3605 112.995 36.6576C113.523 37.266 113.958 37.9488 114.286 38.6839C114.382 38.875 114.446 39.0803 114.475 39.2918C114.472 39.4129 114.433 39.5304 114.363 39.6295C114.288 39.7439 114.185 39.8366 114.062 39.898C113.925 39.9649 113.774 39.9985 113.621 39.9959C113.441 40.003 113.263 39.954 113.112 39.8558C112.975 39.7604 112.857 39.6408 112.764 39.5028C112.665 39.361 112.533 39.1499 112.367 38.873L111.657 37.691C111.462 37.3427 111.235 37.0132 110.978 36.7065C110.813 36.5073 110.604 36.3484 110.367 36.2422C110.117 36.1569 109.853 36.1191 109.588 36.1307ZM110.607 32.4732H108.972V34.866H110.559C110.92 34.8725 111.281 34.8357 111.634 34.7562C111.888 34.7002 112.119 34.5683 112.295 34.3779C112.458 34.1713 112.54 33.9124 112.525 33.6502C112.53 33.4252 112.466 33.204 112.341 33.0162C112.217 32.8285 112.037 32.6832 111.827 32.5999C111.62 32.5205 111.211 32.4732 110.603 32.4732H110.607Z" fill="#CC0000"/>
</g>
<defs>
<clipPath id="clip0">
<rect width="45.4748" height="9.00022" fill="white" transform="translate(69.0017 31.0007)"/>
</clipPath>
</defs>
</svg>
