<svg width="115" height="41" viewBox="0 0 115 41" fill="none" xmlns="http://www.w3.org/2000/svg">
<path d="M16.929 4.30029H11.9211V20.8868C11.9211 21.8444 11.71 22.5519 11.2826 23.0147C10.8604 23.4775 10.3116 23.7063 9.64136 23.7063C8.96058 23.7063 8.40114 23.4722 7.9738 23.0041C7.54635 22.5359 7.32992 21.8337 7.32992 20.8868V4.30029H2.3219C1.53567 4.30029 0.955116 4.12477 0.575129 3.77895C0.195231 3.42791 0 2.96508 0 2.39056C0 1.80006 0.200462 1.33189 0.596245 0.98618C0.99201 0.640365 1.56723 0.470165 2.3219 0.470165H16.929C17.726 0.470165 18.3118 0.645685 18.7022 1.00216C19.0875 1.35854 19.2827 1.82137 19.2827 2.39056C19.2827 2.96508 19.0822 3.42791 18.6917 3.77895C18.3012 4.12477 17.7154 4.30029 16.929 4.30029Z" fill="#CC0000"/>
<path d="M54.6168 19.8413L50.9657 5.2537V21.0569C50.9657 21.9313 50.7697 22.5872 50.3828 23.0244C49.996 23.4616 49.482 23.6802 48.8461 23.6802C48.2262 23.6802 47.7174 23.4616 47.3252 23.0297C46.9332 22.5978 46.7371 21.9421 46.7371 21.0569V2.93964C46.7371 1.93727 46.9967 1.26555 47.5108 0.913601C48.0301 0.567075 48.7295 0.391138 49.6038 0.391138H51.0345C51.893 0.391138 52.513 0.471066 52.8999 0.625686C53.2867 0.780289 53.5781 1.06288 53.7637 1.46811C53.9491 1.87334 54.161 2.53452 54.3995 3.45153L57.7061 16.0025L61.0128 3.45153C61.2511 2.53452 61.4631 1.87334 61.6485 1.46811C61.834 1.06288 62.1202 0.780289 62.507 0.625686C62.8938 0.471066 63.5191 0.391138 64.3775 0.391138H65.8029C66.6826 0.391138 67.3821 0.567075 67.9015 0.913601C68.4155 1.26555 68.6751 1.93727 68.6751 2.93964V21.0569C68.6751 21.9313 68.479 22.5872 68.0923 23.0244C67.7054 23.4616 67.186 23.6802 66.5396 23.6802C65.9302 23.6802 65.4268 23.4616 65.0347 23.0244C64.6425 22.5872 64.4465 21.9313 64.4465 21.0569V5.2537L60.7954 19.8413C60.557 20.785 60.3662 21.4835 60.2126 21.926C60.0642 22.3632 59.7886 22.7684 59.3858 23.131C58.9778 23.4988 58.4214 23.6802 57.7061 23.6802C57.1656 23.6802 56.7099 23.5629 56.339 23.3283C55.968 23.0937 55.6765 22.795 55.4699 22.4325C55.2633 22.0646 55.099 21.6648 54.9824 21.2222C54.8604 20.7797 54.7386 20.3158 54.6168 19.8413Z" fill="#CC0000"/>
<path d="M114.56 16.4218C114.56 17.8027 114.206 19.045 113.497 20.1486C112.794 21.2524 111.758 22.1161 110.393 22.7399C109.029 23.3637 107.411 23.673 105.545 23.673C103.303 23.673 101.452 23.2464 99.9983 22.3987C98.9672 21.7854 98.1317 20.9644 97.4867 19.9408C96.8416 18.917 96.519 17.9199 96.519 16.9496C96.519 16.3898 96.7146 15.9099 97.1007 15.5047C97.4867 15.1049 97.9784 14.9075 98.5758 14.9075C99.0624 14.9075 99.4695 15.0621 99.8026 15.3768C100.141 15.686 100.427 16.1498 100.664 16.7683C100.95 17.4934 101.267 18.1066 101.6 18.5918C101.939 19.0823 102.409 19.4875 103.017 19.8075C103.631 20.122 104.429 20.282 105.423 20.282C106.782 20.282 107.892 19.9621 108.744 19.3222C109.595 18.6825 110.023 17.8827 110.023 16.9229C110.023 16.1605 109.796 15.5421 109.336 15.0728C108.876 14.5983 108.278 14.2358 107.549 13.9852C106.824 13.7346 105.846 13.468 104.63 13.1854C103.002 12.8015 101.632 12.3483 100.538 11.8365C99.4377 11.3193 98.5653 10.6155 97.9203 9.72509C97.2752 8.83471 96.9526 7.73102 96.9526 6.40344C96.9526 5.14513 97.291 4.02545 97.973 3.0444C98.6552 2.06866 99.6439 1.3169 100.934 0.789038C102.224 0.261262 103.742 0 105.487 0C106.877 0 108.083 0.175914 109.103 0.522546C110.118 0.874391 110.965 1.33822 111.636 1.91406C112.302 2.48989 112.794 3.09776 113.106 3.7322C113.413 4.36674 113.571 4.99051 113.571 5.59299C113.571 6.14216 113.376 6.6433 112.99 7.08593C112.604 7.52844 112.117 7.74699 111.541 7.74699C111.012 7.74699 110.615 7.61371 110.341 7.35242C110.066 7.08593 109.769 6.64863 109.452 6.04615C109.035 5.18242 108.543 4.50527 107.961 4.02011C107.385 3.53496 106.454 3.295 105.169 3.295C103.985 3.295 103.023 3.55629 102.298 4.08415C101.569 4.61193 101.204 5.24114 101.204 5.98222C101.204 6.44073 101.325 6.8353 101.574 7.17117C101.822 7.50171 102.166 7.78962 102.6 8.02959C103.033 8.26954 103.472 8.45613 103.916 8.59476C104.36 8.72805 105.095 8.92529 106.116 9.18655C107.395 9.49046 108.559 9.8211 109.595 10.1889C110.631 10.5515 111.514 10.9941 112.244 11.5166C112.974 12.0337 113.54 12.6949 113.947 13.4893C114.354 14.2891 114.56 15.2648 114.56 16.4218Z" fill="#CC0000"/>
<path d="M31.6478 0.20487C34.0088 0.20487 36.0311 0.680557 37.7198 1.63729C39.4086 2.58869 40.6897 3.94703 41.5579 5.70718C42.4261 7.46722 42.8602 9.53387 42.8602 11.907C42.8602 13.6619 42.6219 15.2582 42.1455 16.6905C41.669 18.1281 40.9597 19.3703 40.0068 20.4221C39.0539 21.4739 37.8893 22.2773 36.5022 22.8376C35.1152 23.3926 33.5323 23.6728 31.743 23.6728C29.9642 23.6728 28.3707 23.3873 26.9679 22.8111C25.5597 22.2403 24.3897 21.4317 23.4474 20.3904C22.5051 19.3491 21.7957 18.0965 21.314 16.627C20.8322 15.1629 20.594 13.5773 20.594 11.8754C20.594 10.1311 20.8428 8.53492 21.3457 7.07606C21.8487 5.62252 22.5739 4.38574 23.5268 3.36033C24.4745 2.34018 25.6338 1.55797 26.9996 1.01885C28.3602 0.474385 29.9112 0.20487 31.6478 0.20487ZM38.191 11.8754C38.191 10.2157 37.9209 8.77278 37.3863 7.55175C36.8464 6.33608 36.0786 5.41644 35.0835 4.78744C34.0882 4.16377 32.9394 3.85193 31.6478 3.85193C30.7319 3.85193 29.8796 4.02635 29.1014 4.36985C28.3178 4.71867 27.6455 5.22081 27.0843 5.88158C26.5231 6.54226 26.0785 7.3879 25.7503 8.41328C25.4274 9.444 25.2632 10.5963 25.2632 11.8754C25.2632 13.1703 25.4274 14.3332 25.7503 15.3797C26.0785 16.421 26.539 17.2878 27.132 17.9749C27.7249 18.662 28.4078 19.1747 29.1755 19.513C29.9483 19.8565 30.7901 20.0257 31.7112 20.0257C32.8917 20.0257 33.9717 19.7297 34.9617 19.143C35.9463 18.5563 36.7299 17.6472 37.3175 16.4156C37.8998 15.1894 38.191 13.6724 38.191 11.8754Z" fill="#CC0000"/>
<path fill-rule="evenodd" clip-rule="evenodd" d="M84.9951 12.2147L82.6929 5.57588L80.3835 12.2357C79.2684 15.4585 78.2064 18.9621 76.8801 22.0812C76.6899 22.5349 76.5148 22.8777 76.3497 23.0993C76.1795 23.3207 75.9743 23.4947 75.7343 23.6213C75.489 23.7532 75.1938 23.8165 74.8535 23.8165C74.2681 23.8165 73.7627 23.6002 73.3474 23.1625C72.927 22.7406 72.7169 22.2607 72.7169 21.7279C72.7169 21.4167 72.7669 21.095 72.8619 20.7679C72.9349 20.5254 73.0399 20.2184 73.1789 19.8405L73.1799 19.8378L73.1816 19.8333C73.2205 19.7258 73.2618 19.6148 73.3058 19.5004L73.3074 19.4961L73.3161 19.4734L73.3474 19.3913L78.8415 4.68621C79.0015 4.26429 79.1867 3.75783 79.4068 3.16713C79.627 2.57119 79.8622 2.08063 80.1123 1.69038C80.3625 1.30002 80.6879 0.983557 81.0931 0.740988C81.4985 0.498313 81.9988 0.376978 82.5942 0.376978C82.7883 0.376978 82.9718 0.389338 83.1447 0.413869C83.5846 0.453876 83.9648 0.569982 84.2855 0.761994C84.6908 1.00456 85.0162 1.32102 85.2663 1.71138C85.5164 2.10163 85.7517 2.59221 85.9719 3.18814C86.192 3.77883 86.3771 4.28531 86.5373 4.70722L91.5122 18.0228L91.9913 19.27C92.1819 19.7518 92.331 20.1761 92.4391 20.5436C92.4681 20.6318 92.494 20.7135 92.5167 20.7889C92.6118 21.116 92.6618 21.4377 92.6618 21.749C92.6618 22.2817 92.4516 22.7616 92.0313 23.1835C91.611 23.6055 91.1256 23.8165 90.5803 23.8165C90.0476 23.8165 89.6377 23.68 89.3532 23.41C89.2338 23.3147 89.1258 23.2041 89.0289 23.0782C88.8639 22.8567 88.6887 22.5139 88.4987 22.0602C87.1723 18.9411 86.1103 15.4375 84.9951 12.2147Z" fill="#CC0000"/>
<path fill-rule="evenodd" clip-rule="evenodd" d="M83.7607 19.006L82.7007 16.148L81.6375 19.015C81.124 20.4025 80.6351 21.9108 80.0245 23.2535C79.9369 23.4488 79.8563 23.5964 79.7803 23.6918C79.7019 23.7871 79.6074 23.862 79.4969 23.9165C79.384 23.9733 79.2481 24.0006 79.0914 24.0006C78.8219 24.0006 78.5892 23.9074 78.3979 23.719C78.2044 23.5374 78.1076 23.3308 78.1076 23.1014C78.1076 22.9675 78.1307 22.829 78.1745 22.6881C78.208 22.5838 78.2564 22.4516 78.3204 22.2889L78.3208 22.2877L78.3216 22.2858C78.3396 22.2395 78.3586 22.1918 78.3788 22.1425L78.3795 22.1406L78.3836 22.1309L78.3979 22.0955L80.9275 15.765C81.0012 15.5833 81.0864 15.3653 81.1878 15.111C81.2891 14.8545 81.3974 14.6433 81.5126 14.4753C81.6278 14.3072 81.7776 14.171 81.9642 14.0666C82.1508 13.9621 82.3811 13.9099 82.6553 13.9099C82.7446 13.9099 82.8291 13.9152 82.9087 13.9257C83.1113 13.943 83.2863 13.9929 83.4339 14.0756C83.6206 14.18 83.7704 14.3163 83.8855 14.4843C84.0007 14.6523 84.109 14.8635 84.2104 15.1201C84.3117 15.3744 84.397 15.5924 84.4707 15.774L86.7612 21.5064L86.9818 22.0433C87.0695 22.2507 87.1382 22.4334 87.188 22.5916C87.2013 22.6295 87.2132 22.6647 87.2237 22.6972C87.2675 22.838 87.2905 22.9765 87.2905 23.1105C87.2905 23.3398 87.1937 23.5464 87.0002 23.7281C86.8067 23.9097 86.5832 24.0006 86.3321 24.0006C86.0869 24.0006 85.8981 23.9418 85.7672 23.8256C85.7122 23.7845 85.6625 23.7369 85.6179 23.6828C85.5419 23.5874 85.4612 23.4398 85.3737 23.2445C84.7631 21.9017 84.2741 20.3934 83.7607 19.006Z" fill="#CC0000"/>
<path d="M70.0879 31.1494H72.3962C72.9167 31.1417 73.436 31.1984 73.9424 31.3182C74.3757 31.4307 74.7762 31.643 75.1118 31.9379C76.0227 32.7147 76.4753 33.8967 76.4696 35.484C76.4764 35.9628 76.4331 36.4409 76.3407 36.9108C76.258 37.3183 76.1156 37.7114 75.918 38.0777C75.7254 38.4249 75.4772 38.7386 75.1831 39.0064C74.9543 39.2132 74.695 39.384 74.4143 39.513C74.1286 39.6425 73.8265 39.7328 73.5164 39.7815C73.1576 39.8363 72.7949 39.8623 72.4319 39.8591H70.1236C69.8723 39.8743 69.6214 39.8243 69.3954 39.7139C69.317 39.6691 69.2484 39.6091 69.1936 39.5374C69.1388 39.4658 69.0989 39.384 69.0764 39.2968C69.0213 39.0726 68.9962 38.8421 69.0017 38.6113V32.2301C69.0017 31.8507 69.0871 31.5754 69.258 31.4043C69.4288 31.2332 69.7055 31.1482 70.0879 31.1494ZM70.7668 32.5441V38.4542H72.1094C72.4047 38.4542 72.6355 38.4542 72.8019 38.4306C72.9792 38.4123 73.1536 38.3727 73.3212 38.3124C73.4918 38.2535 73.6496 38.163 73.7863 38.0456C74.3781 37.5458 74.6745 36.6868 74.6756 35.4688C74.6756 34.6087 74.5455 33.9654 74.2853 33.5387C74.0781 33.1562 73.734 32.8651 73.3212 32.7231C72.8704 32.5995 72.4037 32.5426 71.9363 32.5543L70.7668 32.5441Z" fill="#CC0000"/>
<path d="M80.4158 36.1307H79.7963V38.9254C79.8208 39.2176 79.7336 39.5083 79.5519 39.7393C79.4701 39.8257 79.3707 39.8937 79.2603 39.9389C79.15 39.984 79.0313 40.0052 78.912 40.001C78.7891 40.008 78.6662 39.987 78.5527 39.9395C78.4391 39.8921 78.338 39.8196 78.2569 39.7275C78.0858 39.4962 78.0034 39.2117 78.0244 38.9254V32.2301C78.0244 31.8507 78.1098 31.5755 78.2806 31.4044C78.4504 31.2355 78.727 31.1494 79.1089 31.1494H81.9942C82.3344 31.1465 82.6744 31.1635 83.0126 31.2C83.2763 31.2286 83.5339 31.2976 83.7764 31.4044C84.0496 31.5189 84.2972 31.6865 84.5045 31.8974C84.7142 32.1103 84.8777 32.3638 84.9848 32.6421C85.0966 32.9292 85.1541 33.2343 85.1546 33.5421C85.1832 34.1125 84.9851 34.6712 84.6029 35.0973C84.2307 35.4857 83.6695 35.7604 82.9193 35.9214C83.2615 36.1111 83.5668 36.3605 83.8205 36.6576C84.1053 36.9809 84.362 37.3278 84.5877 37.6944C84.7862 38.0118 84.9615 38.3431 85.1121 38.6856C85.2077 38.8767 85.2713 39.082 85.3005 39.2935C85.2975 39.4143 85.2591 39.5317 85.1902 39.6312C85.1147 39.7453 85.0106 39.8379 84.8881 39.8997C84.7508 39.9666 84.5996 40.0002 84.4468 39.9976C84.2665 40.0053 84.0883 39.9563 83.9376 39.8575C83.8039 39.7627 83.6888 39.6442 83.5982 39.5079C83.5014 39.3661 83.369 39.155 83.201 38.8781L82.4915 37.6961C82.2968 37.3475 82.0695 37.0179 81.8126 36.7116C81.6474 36.5124 81.4383 36.3535 81.2016 36.2473C80.9494 36.1595 80.6828 36.1199 80.4158 36.1307ZM81.4342 32.4732H79.7963V34.866H81.3917C81.753 34.8727 82.1137 34.8358 82.4661 34.7562C82.7185 34.6993 82.9476 34.5674 83.1229 34.378C83.2859 34.1713 83.3674 33.9125 83.3521 33.6502C83.3574 33.4252 83.2934 33.204 83.1687 33.0163C83.044 32.8285 82.8646 32.6832 82.6545 32.5999C82.4474 32.5166 82.0395 32.4744 81.4308 32.4732H81.4342Z" fill="#CC0000"/>
<path d="M86.8959 38.9253V32.0696C86.8741 31.7813 86.9613 31.4952 87.1403 31.2675C87.2203 31.1803 87.3183 31.1113 87.4276 31.0652C87.5368 31.0192 87.6548 30.9972 87.7734 31.0007C87.8941 30.9962 88.0144 31.0174 88.1262 31.0628C88.238 31.1082 88.3388 31.1769 88.4218 31.2641C88.603 31.4921 88.691 31.7798 88.6679 32.0696V38.9253C88.6912 39.2156 88.6033 39.504 88.4218 39.7325C88.3392 39.8207 88.2387 39.8902 88.1268 39.9366C88.015 39.9829 87.8945 40.0048 87.7734 40.0009C87.6551 40.0039 87.5375 39.9813 87.4287 39.9347C87.32 39.888 87.2228 39.8185 87.1437 39.7308C86.9629 39.5025 86.8745 39.2152 86.8959 38.9253Z" fill="#CC0000"/>
<path d="M91.9453 32.1591L93.926 37.9932L95.9118 32.1169C96.0153 31.8079 96.0934 31.5934 96.146 31.4719C96.203 31.3438 96.291 31.2318 96.4023 31.146C96.5433 31.0424 96.7162 30.991 96.8911 31.0007C97.0392 30.9995 97.1848 31.0387 97.312 31.1139C97.4378 31.1855 97.5425 31.2885 97.6159 31.4128C97.6859 31.5268 97.724 31.6574 97.7262 31.791C97.7235 31.8862 97.7098 31.9808 97.6855 32.073C97.6614 32.1732 97.6314 32.2719 97.5955 32.3685C97.5599 32.4664 97.5242 32.5661 97.4886 32.6691L95.3755 38.3563C95.2991 38.5741 95.2244 38.7801 95.148 38.976C95.0802 39.1572 94.9926 39.3305 94.8867 39.4927C94.7771 39.6556 94.6273 39.7877 94.4517 39.8765C94.276 39.9652 94.0804 40.0075 93.8836 39.9993C93.6728 40.0056 93.464 39.9573 93.2777 39.8591C93.1169 39.7701 92.9801 39.6438 92.8788 39.491C92.7715 39.3276 92.6822 39.1533 92.6123 38.9709C92.5377 38.7784 92.4613 38.5724 92.3866 38.3546L90.3041 32.7147C90.2684 32.6117 90.2311 32.5103 90.1937 32.4124C90.154 32.3078 90.1216 32.2006 90.097 32.0916C90.0742 31.9964 90.0617 31.899 90.0596 31.8011C90.061 31.6975 90.0834 31.5952 90.1254 31.5003C90.1674 31.4054 90.2281 31.3199 90.3041 31.249C90.3834 31.1673 90.4791 31.103 90.5849 31.0603C90.6907 31.0175 90.8043 30.9973 90.9185 31.0007C91.0401 30.9885 91.1629 31.0073 91.2752 31.0555C91.3875 31.1036 91.4855 31.1795 91.56 31.276C91.7266 31.5524 91.8562 31.8493 91.9453 32.1591Z" fill="#CC0000"/>
<path d="M104.814 32.5086H100.829V34.6464H104.505C104.723 34.6293 104.939 34.6937 105.111 34.8271C105.177 34.8876 105.229 34.9617 105.264 35.0442C105.298 35.1267 105.315 35.2156 105.311 35.305C105.315 35.3947 105.299 35.4842 105.265 35.5674C105.231 35.6506 105.18 35.7258 105.114 35.7879C104.943 35.9268 104.725 35.9941 104.505 35.9753H100.829V38.4508H104.958C105.185 38.434 105.41 38.5027 105.588 38.6433C105.657 38.7083 105.711 38.7869 105.748 38.8742C105.785 38.9615 105.802 39.0554 105.8 39.1499C105.804 39.2446 105.786 39.3389 105.75 39.4264C105.713 39.5138 105.658 39.5923 105.588 39.6565C105.41 39.7971 105.185 39.8658 104.958 39.849H100.143C99.7578 39.849 99.4794 39.7629 99.3114 39.594C99.1434 39.4251 99.0568 39.1482 99.0568 38.7683V32.23C99.0487 32.0171 99.0875 31.805 99.1705 31.6086C99.2413 31.4525 99.3677 31.3279 99.5253 31.2591C99.7212 31.1796 99.9317 31.1422 100.143 31.1493H104.814C105.043 31.13 105.27 31.1975 105.45 31.3385C105.52 31.3994 105.574 31.4747 105.611 31.559C105.648 31.6433 105.665 31.7346 105.663 31.8265C105.667 31.9188 105.65 32.0109 105.615 32.0964C105.579 32.1818 105.526 32.2585 105.457 32.3212C105.275 32.4632 105.045 32.5302 104.814 32.5086Z" fill="#CC0000"/>
<path d="M109.588 36.1307H108.969V38.9254C108.992 39.2186 108.903 39.5097 108.718 39.7393C108.636 39.8258 108.537 39.894 108.427 39.9391C108.317 39.9843 108.199 40.0054 108.079 40.001C107.957 40.008 107.834 39.987 107.72 39.9395C107.607 39.8921 107.505 39.8196 107.424 39.7275C107.253 39.4964 107.17 39.212 107.19 38.9254V32.2301C107.19 31.8507 107.276 31.5755 107.448 31.4044C107.62 31.2332 107.898 31.1483 108.281 31.1494H111.167C111.507 31.1465 111.847 31.1635 112.185 31.2C112.449 31.2286 112.706 31.2976 112.949 31.4044C113.222 31.5186 113.469 31.6862 113.675 31.8974C113.884 32.11 114.045 32.3637 114.149 32.6421C114.261 32.9289 114.319 33.2342 114.319 33.5421C114.347 34.1125 114.149 34.6712 113.767 35.0973C113.399 35.4857 112.841 35.7604 112.094 35.9214C112.436 36.1111 112.741 36.3605 112.995 36.6576C113.523 37.266 113.959 37.9488 114.286 38.6839C114.382 38.875 114.446 39.0803 114.475 39.2918C114.472 39.4129 114.433 39.5305 114.363 39.6295C114.288 39.7439 114.185 39.8366 114.062 39.898C113.925 39.9649 113.774 39.9985 113.621 39.9959C113.441 40.003 113.263 39.954 113.112 39.8558C112.975 39.7604 112.857 39.6408 112.764 39.5029C112.665 39.361 112.533 39.15 112.367 38.873L111.657 37.691C111.462 37.3428 111.235 37.0132 110.978 36.7066C110.813 36.5073 110.604 36.3484 110.367 36.2422C110.117 36.1569 109.853 36.1191 109.588 36.1307ZM110.607 32.4732H108.972V34.866H110.559C110.92 34.8726 111.281 34.8357 111.634 34.7562C111.888 34.7003 112.119 34.5683 112.295 34.378C112.459 34.1713 112.54 33.9125 112.525 33.6502C112.53 33.4252 112.466 33.204 112.341 33.0163C112.217 32.8285 112.037 32.6832 111.827 32.5999C111.62 32.5205 111.211 32.4732 110.603 32.4732H110.607Z" fill="#CC0000"/>
</svg>
