<svg width="375" height="250" viewBox="0 0 375 250" fill="none" xmlns="http://www.w3.org/2000/svg">
<defs>
<clipPath id="clip0">
<rect width="51.7352" height="51.7352" fill="white" transform="translate(52.9998 163.801)"/>
</clipPath>
</defs>
<path d="M375 0H0V250H375V0Z" fill="white"/>
<path d="M171.081 218.795C171.081 218.795 58.5543 237.953 64.1006 123.497C69.6469 9.04134 178.657 27.0516 203.965 44.5341C234.726 65.7847 243.889 61.4363 270.363 83.5238C311.708 118.02 298.755 196.625 171.081 218.795Z" fill="#DFF5FB"/>
<path d="M322.204 192.267C322.204 195.646 307.689 198.622 285.692 200.352C273.973 201.274 260.132 201.843 245.233 201.931C243.878 201.94 242.515 201.944 241.144 201.944C238.81 201.944 236.501 201.932 234.217 201.908C223.658 201.802 213.677 201.453 204.661 200.91C178.218 199.317 160.083 196.044 160.083 192.267C160.083 188.38 179.297 185.024 207.01 183.487C211.588 183.232 216.398 183.028 221.391 182.882C223.919 182.808 226.493 182.747 229.112 182.699C233.039 182.628 237.049 182.593 241.143 182.593C256.034 182.593 269.988 183.072 281.978 183.909C306.04 185.584 322.204 188.7 322.204 192.267Z" fill="#FF9F33"/>
<path d="M286.07 199.963L285.691 200.079C273.973 201.001 260.132 201.57 245.233 201.658C240.469 194.221 234.808 189.375 234.808 189.375L234.216 201.639C223.658 201.532 213.677 201.183 204.661 200.64L203.688 187.301C203.688 187.301 204.905 185.747 207.01 183.217C217.892 170.139 252.496 131.077 264.975 147.204L265.034 147.284C265.991 148.521 266.91 149.818 267.793 151.16L267.799 151.169C268.62 152.418 269.411 153.703 270.173 155.025C275.52 164.28 279.395 174.994 281.979 183.64C284.784 193.014 286.07 199.963 286.07 199.963Z" fill="#DFF5FB" stroke="#FF9F33" stroke-width="0.5" stroke-miterlimit="10"/>
<path d="M264.887 152.543C264.887 152.543 281.909 182.65 279.724 200.171L285.761 199.826C285.761 199.826 278.967 166.898 266.908 150.469L264.887 152.543Z" fill="white"/>
<path d="M257.785 168.047C257.785 168.047 265.283 173.877 276.978 169.494" stroke="#FF9F33" stroke-width="0.5" stroke-miterlimit="10" stroke-linecap="round"/>
<path d="M260.444 157.542C260.444 157.542 253.126 180.201 204.049 192.267L203.686 182.59L260.444 157.542Z" fill="#FF9F33"/>
<path d="M116.882 183.714C116.882 183.714 116.346 185 111.198 186.745C105.294 188.747 101.461 188.761 101.709 189.365C101.958 189.969 103.034 190.42 103.034 190.42C103.034 190.42 101.328 190.982 100.697 191.025C100.067 191.067 101.076 193.116 102.955 192.573C102.955 192.573 101.038 193.351 100.687 193.4C100.335 193.449 99.5373 194.143 100.374 194.712C101.211 195.28 102.351 194.919 102.351 194.919C102.351 194.919 100.969 195.696 101.784 196.095C102.6 196.494 104.018 196.65 113.469 193.422C113.469 193.422 115.896 192.213 115.983 192.882C116.071 193.55 114.947 195.009 113.386 196.018C111.824 197.028 112.828 197.913 115.295 197.336C117.763 196.759 122.118 193.138 123 189.506C123.881 185.873 116.882 183.714 116.882 183.714Z" fill="white" stroke="#FF9F33" stroke-width="0.5" stroke-miterlimit="10"/>
<path d="M117.731 186.508C117.731 186.508 118.738 189.319 119.911 190.352C121.084 191.385 120.123 194.188 120.123 194.188C120.123 194.188 122.907 191.21 123.06 188.583C123.212 185.957 117.731 186.508 117.731 186.508Z" fill="#FF9F33"/>
<path d="M102.35 194.917C102.35 194.917 108.112 192.637 109.83 191.522" stroke="#FF9F33" stroke-width="0.5" stroke-miterlimit="10" stroke-linecap="round"/>
<path d="M102.953 192.57C102.953 192.57 106.279 191.266 108.906 189.8" stroke="#FF9F33" stroke-width="0.5" stroke-miterlimit="10" stroke-linecap="round"/>
<path d="M103.033 190.42C103.033 190.42 106.228 189.729 107.881 188.769" stroke="#FF9F33" stroke-width="0.5" stroke-miterlimit="10" stroke-linecap="round"/>
<path d="M118.29 179.737L115.562 183.823C115.562 183.823 121.331 191.967 124.941 190.732L129.64 185.837L118.29 179.737Z" fill="#DFF5FB" stroke="#FF9F33" stroke-width="0.5" stroke-miterlimit="10"/>
<path d="M142.096 84.5583C142.096 84.5583 144.3 91.5088 147.144 94.3001C147.144 94.3001 146.247 97.2045 148.109 97.6087C149.21 97.8479 150.903 96.7943 150.903 96.7943C150.903 96.7943 154.685 100.873 159.645 98.4982C161.539 97.5914 162.304 96.8236 162.559 96.5119C162.571 96.4979 162.586 96.4871 162.603 96.4808C162.62 96.4744 162.639 96.4726 162.657 96.4756C162.675 96.4785 162.692 96.4862 162.706 96.4977C162.72 96.5092 162.731 96.5242 162.737 96.5412L166.682 106.495C166.682 106.495 169.685 114.129 172.146 112.016C175.188 109.404 181.554 95.7251 183.449 92.179L167.09 81.6548C167.09 81.6548 170.558 76.9911 168.024 73.5539C165.49 70.1166 161.815 70.8317 161.103 72.6289C160.39 74.4261 158.626 68.1726 152.854 70.9751C147.082 73.7775 142.096 84.5583 142.096 84.5583Z" fill="white" stroke="#FF9F33" stroke-width="0.5" stroke-miterlimit="10"/>
<path d="M152.566 74.4419C152.566 74.4419 148.656 86.7919 135.776 84.9895C129.023 84.0395 133.922 68.2436 142.931 64.2043C145.115 63.2258 147.633 63.5601 149.596 64.9281C150.67 65.676 152.36 65.8288 154.555 62.7595C156.909 59.4656 159.874 62.1601 162.016 66.1674C164.141 70.1444 164.357 71.1661 164.357 71.1661C164.357 71.1661 159.936 70.7343 161.348 77.0026C162.373 81.5531 160.947 82.5937 159.638 81.7387C158.33 80.8837 153.961 71.4425 152.566 74.4419Z" fill="#FF9F33"/>
<path d="M164.567 76.9308C164.567 76.9308 165.086 75.0869 164.846 74.0031" stroke="#FF9F33" stroke-width="6" stroke-miterlimit="10" stroke-linecap="round"/>
<path d="M163.275 73.6134C163.275 73.5028 165.417 73.3024 166.442 75.5506" stroke="#FF9F33" stroke-width="6" stroke-miterlimit="10" stroke-linecap="round"/>
<path d="M162.378 96.283C163.409 95.3577 164.36 94.3465 165.22 93.2603C165.285 93.1805 165.373 93.1236 165.472 93.098C165.572 93.0724 165.677 93.0796 165.772 93.1184C165.866 93.1572 165.946 93.2255 165.999 93.3133C166.052 93.4011 166.076 93.5037 166.066 93.6058C165.83 95.8573 165.461 99.8809 165.408 103.278L162.378 96.283Z" fill="#FF9F33"/>
<path d="M182.442 89.6771C182.442 89.6771 209.343 87.3453 236.952 110.516C264.562 133.686 268.024 148.491 268.024 148.491C268.024 148.491 241.979 186.478 197.891 187.67L183.346 163.3C183.346 163.3 173.201 160.686 164.518 152.543C164.518 152.543 143.037 178.745 129.161 188.316C129.161 188.316 123.814 188.252 117.088 179.598C117.088 179.598 140.406 145.908 147.968 129.41C155.53 112.912 158.736 105.372 161.7 104.729C164.664 104.087 171.383 107.493 171.383 107.493L182.442 89.6771Z" fill="#FFEAD2" stroke="#FF9F33" stroke-width="0.5" stroke-miterlimit="10"/>
<path d="M161.85 135.686C161.85 135.686 158.684 132.541 157.906 129.507C157.128 126.473 153.896 118.294 148.111 122.017C148.111 122.017 147.627 122.095 148.095 122.754C148.562 123.412 150.209 124.017 149.881 124.526C149.553 125.034 147.954 126.431 146.878 125.329C145.802 124.227 145.755 123.527 145.1 123.837C144.446 124.148 142.726 125.123 143.102 126.374C143.478 127.624 145.844 132.541 147.364 133.797C148.884 135.053 156.045 139.583 156.804 140.839C157.562 142.095 161.85 135.686 161.85 135.686Z" fill="white" stroke="#FF9F33" stroke-width="0.5" stroke-miterlimit="10"/>
<path d="M161.902 140.935L165.298 145.194L161.04 141.471L157.881 144.305L154.702 140.478C154.702 140.478 161.162 135.607 161.741 133.709L166.75 136.31C165.482 138.273 161.902 140.935 161.902 140.935Z" fill="#DFF5FB" stroke="#FF9F33" stroke-width="0.5" stroke-miterlimit="10"/>
<path d="M166.751 136.314C166.912 136.078 167.039 135.821 167.13 135.55C167.13 135.55 180.288 139.931 189.532 140.946C189.532 140.946 175.496 115.987 183.746 89.755" stroke="#FF9F33" stroke-width="0.5" stroke-miterlimit="10" stroke-linecap="round"/>
<path d="M157.882 144.306L157.778 144.398C160.155 147.985 164.515 152.543 164.515 152.543" stroke="#FF9F33" stroke-width="0.5" stroke-miterlimit="10" stroke-linecap="round"/>
<path d="M189.533 140.943C189.533 140.943 195.153 140.822 200.89 145.156C200.89 145.156 203.662 146.912 198.83 140.425C193.998 133.939 189.004 138.463 184.616 128.923C184.616 128.923 186.858 135.72 189.533 140.943Z" fill="#FF9F33"/>
<path d="M183.347 163.3C183.347 163.3 202.235 171.634 209.304 155.708C216.373 139.782 216.632 119.408 216.632 119.408C216.632 119.408 216.945 116.952 217.237 124.033C217.528 131.114 217.059 142.384 217.809 145.569C219.542 152.928 211.273 172.698 183.347 163.3Z" fill="#FF9F33"/>
<path d="M161.547 124.455L169.296 136.237" stroke="#FF9F33" stroke-width="0.5" stroke-miterlimit="10" stroke-linecap="round"/>
<path d="M216.572 184.878L201.545 163.969" stroke="#FF9F33" stroke-width="0.5" stroke-miterlimit="10" stroke-linecap="round"/>
<path d="M171.382 107.489C171.382 107.489 179.031 126.966 187.988 140.747" stroke="#FF9F33" stroke-width="0.5" stroke-miterlimit="10" stroke-linecap="round"/>
<path d="M227.144 148.247C227.144 148.247 240.857 152.978 248.762 146.347C248.762 146.347 249.094 145.15 247.455 145.369C245.816 145.587 243.482 148.234 238.631 147.163C233.78 146.092 230.909 147.373 227.144 148.247Z" fill="#FF9F33"/>
<path d="M149.184 123.227L145.241 118.522C145.15 118.413 145.021 118.343 144.88 118.325C144.738 118.307 144.596 118.343 144.48 118.426L142.94 119.526C142.877 119.571 142.824 119.628 142.785 119.694C142.745 119.76 142.719 119.833 142.708 119.909C142.698 119.985 142.703 120.063 142.724 120.137C142.745 120.211 142.78 120.281 142.829 120.34L147.262 125.827C147.262 125.827 150.532 125.536 149.184 123.227Z" fill="#FF9F33"/>
<path d="M142.939 116.256L145.258 119.463L143.698 120.55L141.402 117.566L142.939 116.256Z" fill="#FF9F33"/>
<path d="M142.719 116.42C144.614 114.875 144.105 111.116 141.583 108.024C139.061 104.932 135.481 103.677 133.586 105.222C131.692 106.767 132.201 110.526 134.723 113.619C137.245 116.711 140.825 117.965 142.719 116.42Z" stroke="#FF9F33" stroke-width="0.5" stroke-miterlimit="10"/>
<path d="M142.277 115.88C143.873 114.578 143.32 111.259 141.041 108.465C138.763 105.671 135.622 104.462 134.026 105.763C132.431 107.064 132.984 110.384 135.263 113.178C137.541 115.971 140.682 117.181 142.277 115.88Z" stroke="#FF9F33" stroke-width="0.5" stroke-miterlimit="10"/>
<path d="M133.791 105.971C133.791 105.971 140.368 106.181 142.028 113.668C142.146 114.185 142.156 114.72 142.058 115.241C141.997 115.587 141.869 115.917 141.68 116.212" stroke="#FF9F33" stroke-width="0.5" stroke-miterlimit="10"/>
<path d="M134.303 104.73C134.303 104.73 131.258 105.478 131.603 109.216C131.947 112.954 135.126 116.339 137.907 117.375C137.907 117.375 141.401 118.528 143.161 115.949" stroke="#FF9F33" stroke-width="0.5" stroke-miterlimit="10"/>
<path d="M179.602 88.6996L171.382 107.489C171.382 107.489 176.362 103.447 181.304 105.597L183.914 88.6218L179.602 88.6996Z" fill="#FF9F33"/>
<path d="M163.067 101.543L171.384 107.489C171.384 107.489 166.94 108.611 166.007 113.081L159.357 104.994L163.067 101.543Z" fill="#FF9F33"/>
<path d="M183.347 163.3C183.347 163.3 204.585 173.912 211.408 150.304C218.23 126.697 216.635 119.406 216.635 119.406" stroke="#FF9F33" stroke-width="0.5" stroke-miterlimit="10" stroke-linecap="round"/>
<path d="M182.003 54.6138L182.136 54.1457C182.377 53.181 183.081 52.2457 184.339 51.5427C185.477 50.8915 186.167 50.3716 186.46 49.5857C186.791 48.6936 186.453 47.8912 185.359 47.4646C184.73 47.2306 183.952 47.1796 183.391 47.3497L183.382 46.0923C184.132 45.8936 185.215 45.9783 186.145 46.3229C188.155 47.0708 188.603 48.6504 188.109 49.9786C187.666 51.167 186.677 51.7923 185.474 52.4616C184.366 53.0843 183.794 53.7665 183.515 54.6777L183.37 55.1207L182.003 54.6138ZM181.312 58.3965C180.717 58.1745 180.473 57.5475 180.701 56.9352C180.942 56.2892 181.547 55.9965 182.16 56.2245C182.772 56.4525 183.023 57.063 182.782 57.709C182.554 58.3214 181.976 58.6435 181.329 58.4L181.312 58.3965Z" fill="#FF9F33"/>
<path d="M153.388 49.9697V49.4835C153.361 48.4894 153.791 47.403 154.814 46.3865C155.736 45.4546 156.263 44.7698 156.334 43.9338C156.416 42.9838 155.876 42.3032 154.707 42.184C154.038 42.127 153.275 42.2859 152.781 42.5994L152.435 41.3904C153.105 40.9983 154.171 40.7901 155.156 40.8722C157.293 41.0553 158.146 42.4578 158.025 43.8699C157.917 45.1334 157.131 46.0022 156.15 46.9669C155.249 47.8624 154.88 48.6734 154.854 49.626L154.833 50.0915L153.388 49.9697ZM153.733 53.7999C153.1 53.7455 152.697 53.2058 152.754 52.5546C152.813 51.868 153.319 51.4241 153.969 51.4802C154.619 51.5363 155.024 52.058 154.965 52.7446C154.909 53.3949 154.439 53.8604 153.756 53.8008L153.733 53.7999Z" fill="#FF9F33"/>
<path d="M123.785 64.0134L123.411 63.7017C122.626 63.0971 122.056 62.0729 121.917 60.6375C121.779 59.3334 121.582 58.4922 120.98 57.9075C120.298 57.2443 119.426 57.2305 118.596 58.0604C118.128 58.5415 117.768 59.2332 117.698 59.8144L116.543 59.3161C116.664 58.5492 117.177 57.5889 117.866 56.8841C119.361 55.3451 120.986 55.5723 122.003 56.5603C122.912 57.4438 123.088 58.6019 123.212 59.9716C123.335 61.236 123.73 62.0349 124.45 62.6575L124.796 62.9693L123.785 64.0134ZM126.969 66.1725C126.527 66.6277 125.854 66.5983 125.386 66.1432C124.891 65.6621 124.868 64.9902 125.324 64.5213C125.78 64.0523 126.438 64.0704 126.932 64.5515C127.401 65.0058 127.463 65.6647 126.982 66.1596L126.969 66.1725Z" fill="#FF9F33"/>
<path d="M125.825 202.171H144.048" stroke="#FF9F33" stroke-width="0.5" stroke-miterlimit="10" stroke-linecap="round"/>
<path d="M58.6399 194.188H63.5004" stroke="#FF9F33" stroke-width="0.5" stroke-miterlimit="10" stroke-linecap="round"/>
<path d="M73.9141 201.702H89.95" stroke="#FF9F33" stroke-width="0.5" stroke-miterlimit="10" stroke-linecap="round"/>
<path d="M85.489 194.916H90.3496" stroke="#FF9F33" stroke-width="0.5" stroke-miterlimit="10" stroke-linecap="round"/>
<path d="M125.825 195.255H130.686" stroke="#FF9F33" stroke-width="0.5" stroke-miterlimit="10" stroke-linecap="round"/>
<path d="M63.5012 160.087C63.5012 160.087 38.4575 43.7819 130.424 30" stroke="#FF9F33" stroke-width="0.5" stroke-miterlimit="10" stroke-linecap="round"/>
<g clip-path="url(#clip0)">
<path d="M94.8576 209.045L82.0872 165.645C81.7582 164.552 80.7499 163.801 79.6097 163.801H77.9069C76.7644 163.801 75.7582 164.55 75.4294 165.645L62.6547 209.045H60.4758C58.6833 209.045 57.2302 210.498 57.2302 212.291C57.2302 214.083 58.6833 215.536 60.4758 215.536H97.2593C99.0518 215.536 100.505 214.083 100.505 212.291C100.505 210.498 99.0518 209.045 97.2593 209.045H94.8576Z" fill="#FF9F33"/>
<path d="M65.2019 200.39H92.3107L89.7641 191.735H67.7496L65.2019 200.39Z" fill="#FFEAD2"/>
<path d="M70.2974 183.08H87.2176L84.6709 174.425H72.845L70.2974 183.08Z" fill="#FFEAD2"/>
<path d="M97.2593 209.045C83.5304 209.045 74.2894 209.045 60.4758 209.045C58.6833 209.045 57.2302 210.498 57.2302 212.291C57.2302 214.083 58.6833 215.536 60.4758 215.536H97.2593C99.0518 215.536 100.505 214.083 100.505 212.291C100.505 210.498 99.0517 209.045 97.2593 209.045Z" fill="#E47900"/>
</g>
<path d="M212.972 57.3675L212.145 55.0001L204.771 57.5766C204.107 57.8087 203.575 58.2842 203.27 58.9162C202.964 59.552 202.923 60.2639 203.155 60.9281C203.387 61.5923 203.862 62.1237 204.498 62.4303C205.13 62.735 205.842 62.7761 206.506 62.5441L212.217 60.5487C212.198 60.511 212.18 60.4694 212.168 60.4258L211.722 59.158C211.609 58.8344 211.629 58.4899 211.778 58.1796C211.926 57.8732 212.183 57.6432 212.505 57.534L212.972 57.3675Z" fill="#FF9F33"/>
<path d="M228.411 54.7092C228.296 54.6062 228.137 54.5724 227.99 54.6239L224.655 55.792L222.746 54.0831L223.176 51.557L226.512 50.3945C226.66 50.343 226.764 50.214 226.789 50.0653C226.815 49.9128 226.758 49.7577 226.638 49.6624C225.149 48.4628 223.189 48.122 221.395 48.7488C219.488 49.4152 218.128 51.0399 217.799 53.0245L216.494 53.4807L217.317 55.8462L217.781 55.6873C218.11 55.5723 218.452 55.5959 218.755 55.7418C219.061 55.8895 219.295 56.1486 219.406 56.4666L219.853 57.7534C219.918 57.9312 219.94 58.1211 219.916 58.3078C221.369 59.3957 223.274 59.705 225.011 59.0981C226.805 58.4713 228.126 56.9841 228.544 55.1181C228.578 54.9692 228.527 54.8121 228.411 54.7092Z" fill="#FF9F33"/>
<path d="M210.206 49.0467L211.227 49.808L213.773 57.0878L216.515 56.1299L213.974 48.848L214.299 47.6167C214.326 47.5022 214.309 47.3807 214.247 47.2846L212.356 44.2536C212.253 44.0858 212.043 44.0127 211.856 44.0782L209.914 44.7565C209.727 44.822 209.608 45.0101 209.631 45.2056L210.04 48.7543C210.051 48.8683 210.113 48.9739 210.206 49.0467Z" fill="#FF9F33"/>
<path d="M219.049 58.0313L218.605 56.7502C218.527 56.5288 218.286 56.4124 218.061 56.4879L212.785 58.3344C212.563 58.4117 212.447 58.653 212.524 58.8744L212.975 60.1536C213.05 60.3789 213.291 60.4952 213.515 60.414L213.916 60.277L214.303 61.384L213.903 61.5267C213.682 61.6041 213.566 61.8454 213.643 62.0668L215.341 66.9359C215.625 67.7477 216.206 68.4012 216.984 68.7761C217.758 69.1491 218.631 69.1974 219.443 68.9138C221.118 68.3287 222.006 66.4863 221.421 64.8116L219.717 59.9445C219.684 59.8385 219.604 59.7483 219.505 59.7003C219.401 59.6505 219.285 59.6464 219.177 59.6841L218.776 59.8211L218.389 58.7141L218.789 58.5714C219.014 58.4959 219.13 58.2546 219.049 58.0313Z" fill="#FF9F33"/>
</svg>
