<svg width="375" height="250" viewBox="0 0 375 250" fill="none" xmlns="http://www.w3.org/2000/svg">
<g opacity="0.71">
<path opacity="0.71" d="M315.285 154.643C312.015 163.591 307.185 171.907 300.716 179.058C297.575 182.532 294.09 185.679 290.315 188.451C289.371 189.145 288.409 189.801 287.432 190.421C270.554 201.166 248.854 201.509 228.63 201.403C224.924 201.384 221.213 201.347 217.499 201.294C201.722 201.083 185.905 200.713 170.16 201.087H170.109C162.941 201.259 177.437 201.41 170.16 201.087C139.688 207.554 128.253 201.304 120.68 200.211C110.014 198.264 99.1088 197.818 88.805 195.71C87.1183 195.367 85.4478 194.975 83.7979 194.527C83.3543 194.407 82.9122 194.282 82.4716 194.153C82.1496 194.06 81.8288 193.963 81.5092 193.864C75.8787 192.121 70.5042 189.607 65.539 185.754C65.2148 185.503 64.8925 185.246 64.5723 184.984C64.5543 184.969 64.5381 184.955 64.5201 184.941C64.1776 184.658 63.8368 184.369 63.4977 184.073C62.1077 182.857 60.7991 181.551 59.5805 180.163C57.9697 178.324 56.5108 176.356 55.2181 174.281C54.5902 173.283 54.0006 172.261 53.4492 171.216C52.8601 170.106 52.311 168.974 51.8018 167.819C51.4074 166.925 51.0363 166.019 50.6887 165.101C49.9457 163.138 49.3055 161.138 48.7708 159.108C48.309 157.362 47.9203 155.593 47.6046 153.799C46.7534 148.941 46.3946 144.01 46.5335 139.08C46.6299 135.429 46.9913 131.789 47.6149 128.19C47.8204 127.007 48.0533 125.839 48.3136 124.688C53.4509 101.978 71.4503 80.1542 94.0691 72.8755C95.3151 72.4759 96.5749 72.1191 97.8484 71.8052C111.875 68.3803 124.943 67.2415 137.462 59.3429C141.578 56.7451 145.682 54.1251 149.817 51.577C167.7 40.548 186.075 30.8565 207.88 30.0859C233.426 29.1877 259.441 35.3285 281.328 48.689C291.767 55.0712 300.259 63.9485 306.627 74.2591C308.82 77.8122 310.76 81.5148 312.435 85.3394C321.954 107.023 323.292 132.729 315.285 154.643Z" fill="#BEE5EF"/>
</g>
<path d="M287.335 164.956C288.756 163.582 290.634 162.78 292.609 162.707C292.458 164.746 291.767 166.797 290.375 168.295C288.919 169.866 286.849 170.58 284.794 170.897C285.145 168.584 285.632 166.617 287.335 164.956Z" fill="white"/>
<path d="M139.429 172.217L139.221 172.045C138.831 171.72 138.419 171.36 137.963 170.937L137.501 170.509L138.116 170.642C138.594 170.747 139.083 170.828 139.571 170.885L139.766 170.908L139.429 172.217ZM138.648 171.096C138.85 171.277 139.045 171.448 139.232 171.61L139.336 171.205C139.106 171.173 138.877 171.136 138.648 171.096Z" fill="white" stroke="black" stroke-width="4" stroke-miterlimit="10"/>
<path d="M273.545 123.427C273.545 172.569 233.707 212.407 184.565 212.407C135.424 212.407 93.3867 170.828 93.3867 121.686C93.3867 72.5442 135.427 34.4467 184.568 34.4467C233.709 34.4467 273.545 74.284 273.545 123.427Z" fill="#88CADB"/>
<path opacity="0.56" d="M100.373 101.363C100.356 101.363 100.34 101.361 100.325 101.357C100.301 101.351 100.279 101.34 100.259 101.325C100.24 101.31 100.224 101.291 100.211 101.27C100.199 101.249 100.191 101.226 100.188 101.201C100.185 101.177 100.186 101.153 100.193 101.129C101.151 97.5343 102.359 94.011 103.808 90.5846C103.829 90.543 103.866 90.5111 103.91 90.4953C103.954 90.4795 104.003 90.4809 104.046 90.4992C104.089 90.5176 104.124 90.5516 104.143 90.5944C104.163 90.6372 104.165 90.6857 104.15 90.7302C102.708 94.1403 101.507 97.6471 100.554 101.225C100.543 101.265 100.52 101.3 100.487 101.325C100.454 101.35 100.414 101.363 100.373 101.363Z" fill="white"/>
<path opacity="0.56" d="M113.971 73.5537C113.936 73.5536 113.902 73.5439 113.873 73.5257C113.844 73.5074 113.82 73.4813 113.804 73.4503C113.789 73.4193 113.782 73.3846 113.785 73.35C113.789 73.3155 113.801 73.2826 113.822 73.2549C130.227 51.5009 156.654 38.5129 184.515 38.5129C196.41 38.5129 207.915 40.924 218.712 45.6803C218.734 45.6902 218.754 45.7044 218.771 45.7222C218.788 45.7399 218.802 45.7608 218.811 45.7837C218.819 45.8066 218.824 45.8311 218.823 45.8556C218.823 45.8802 218.817 45.9044 218.807 45.9269C218.798 45.9494 218.783 45.9697 218.766 45.9867C218.748 46.0037 218.727 46.017 218.704 46.0259C218.681 46.0348 218.657 46.0391 218.632 46.0386C218.608 46.0381 218.583 46.0327 218.561 46.0228C207.812 41.2879 196.357 38.8879 184.515 38.8879C156.774 38.8879 130.455 51.8168 114.119 73.4792C114.102 73.5024 114.08 73.5212 114.054 73.5341C114.028 73.5471 114 73.5538 113.971 73.5537Z" fill="white"/>
<path d="M261.442 123.426C261.442 165.965 226.958 200.449 184.42 200.449C141.882 200.449 105.493 164.458 105.493 121.92C105.493 107.057 109.935 93.3606 117.531 81.8308C111.055 91.9607 107.293 103.853 107.293 116.712C107.293 155.103 140.816 187.583 180.003 187.583C219.189 187.583 250.958 156.461 250.958 118.073C250.958 79.6843 219.192 48.5615 180.003 48.5615C160.795 48.5615 142.948 55.711 129.743 67.5242C144.085 54.3744 163.512 46.4047 184.42 46.4047C226.958 46.4047 261.442 80.889 261.442 123.426Z" fill="#FF9F33"/>
<path d="M250.958 118.077C250.958 156.466 219.192 187.588 180.003 187.588C140.814 187.588 107.293 155.107 107.293 116.717C107.293 103.857 111.055 91.965 117.531 81.8351C120.999 76.583 125.1 71.7779 129.743 67.5285C142.948 55.7127 160.795 48.5658 180.003 48.5658C219.191 48.5615 250.958 79.6825 250.958 118.077Z" fill="white"/>
<path d="M129.743 71.8412C125.1 76.0906 120.999 80.8956 117.531 86.1477C120.933 80.8464 125.041 76.0333 129.743 71.8412Z" fill="#A8E0EE"/>
<path d="M195.906 58.1776C197.06 58.3882 198.125 58.9363 198.968 59.7524C199.81 60.5686 200.391 61.6162 200.638 62.7628C200.885 63.9095 200.787 65.1035 200.355 66.1941C199.923 67.2847 199.178 68.2227 198.213 68.8896C197.248 69.5565 196.107 69.9223 194.934 69.9408C193.762 69.9592 192.61 69.6295 191.624 68.9933C190.639 68.3571 189.865 67.4429 189.399 66.3665C188.933 65.2901 188.797 64.0997 189.008 62.9459C189.29 61.3988 190.176 60.0273 191.469 59.1331C192.763 58.2389 194.359 57.8952 195.906 58.1776Z" fill="#88CADB"/>
<path d="M163.467 68.0704C164.067 69.5902 163.919 71.0141 163.131 71.2496C162.343 71.485 161.215 70.4439 160.612 68.9241C160.009 67.4043 160.16 65.9796 160.948 65.7441C161.737 65.5086 162.865 66.5498 163.467 68.0704Z" fill="#88CADB"/>
<path d="M135.698 89.4734C137.002 90.4598 137.613 91.7552 137.062 92.3657C136.51 92.9762 135.007 92.6722 133.702 91.6859C132.397 90.6995 131.786 89.404 132.338 88.7935C132.889 88.183 134.394 88.4879 135.698 89.4734Z" fill="#88CADB"/>
<path d="M245.296 97.2486C246.773 96.5456 248.203 96.6004 248.492 97.3719C248.78 98.1433 247.816 99.3412 246.339 100.041C244.862 100.74 243.432 100.688 243.145 99.9174C242.857 99.1468 243.82 97.9515 245.296 97.2486Z" fill="#88CADB"/>
<path d="M220.784 71.9235C221.68 70.5535 222.931 69.86 223.578 70.3695C224.224 70.8789 224.021 72.4004 223.125 73.7678C222.228 75.1352 220.976 75.8313 220.33 75.3218C219.683 74.8124 219.886 73.2909 220.784 71.9235Z" fill="#88CADB"/>
<path d="M71.7047 219.688H71.6755L71.7115 219.626C71.7138 219.647 71.7114 219.668 71.7047 219.688Z" fill="#B6CEC4"/>
<path d="M71.2526 219.69L71.7115 219.626L72.1148 219.57L72.4247 219.526C72.4267 219.541 72.4267 219.556 72.4247 219.57C72.4179 219.61 72.4073 219.649 72.393 219.687H71.7081H71.679L71.2526 219.69Z" fill="#B6CEC4"/>
<path d="M94.4501 151.843C94.1367 152.144 93.8308 152.445 93.5322 152.745C93.8302 152.443 94.1362 152.142 94.4501 151.843Z" fill="#FFC83E"/>
<path d="M164.784 91.9478C164.791 91.9436 164.812 91.9478 164.857 91.9821C164.818 91.9624 164.795 91.9521 164.784 91.9478Z" fill="#72120C"/>
<path d="M164.731 91.9616C164.693 91.9326 164.656 91.9014 164.621 91.8682C164.645 91.8828 164.67 91.8956 164.694 91.9076C164.833 91.9787 164.747 91.9316 164.78 91.9479C164.766 91.9564 164.861 92.0618 164.731 91.9616Z" fill="#72120C"/>
<path d="M51.1571 194.074C53.6975 197.383 57.5299 200.657 61.5644 199.597C62.1638 199.438 62.7632 199.169 63.1639 198.693C63.6545 198.108 63.7761 197.298 63.7709 196.534C63.7375 191.391 59.1705 187.647 55.624 183.922C48.0893 176.009 43.9066 165.005 44.2765 154.086C44.3622 151.68 44.1909 148.548 41.8791 147.857C37.5013 164.033 40.8448 180.649 51.1571 194.074Z" fill="#BEE5EF" fill-opacity="0.71"/>
<path d="M327.882 114.211C328.734 126.15 327.368 138.515 324.734 150.153C326.532 142.199 331.691 135.759 333.333 127.433C334.976 119.107 334.783 110.67 333.19 102.364C332.744 100.042 331.376 90.3243 327.825 90.6249C325.044 90.8603 325.141 97.7212 325.29 99.5612C325.686 104.437 327.504 109.1 327.865 113.976C327.871 114.054 327.876 114.132 327.882 114.211Z" fill="#BEE5EF" fill-opacity="0.71"/>
<path d="M318.949 164.606C320.969 165.746 323.836 165.098 325.096 163.15C326.356 161.202 325.718 158.254 323.721 157.071C321.723 155.888 318.767 156.825 317.885 158.971C317.003 161.117 318.532 163.911 320.827 164.247" fill="#BEE5EF" fill-opacity="0.71"/>
<path d="M328.582 156.349C328.13 157.443 329.696 158.518 330.774 158.034C331.853 157.55 332.295 156.231 332.31 155.049C332.316 154.675 332.286 154.291 332.12 153.957C331.552 152.818 329.702 153.026 328.926 154.035C328.15 155.043 328.139 156.424 328.162 157.697" fill="#BEE5EF" fill-opacity="0.71"/>
<path d="M213.24 88.5878H207.006V87.341C207.066 86.4165 206.76 85.5055 206.153 84.8054C205.546 84.1053 204.688 83.6724 203.764 83.6006H200.772C200.441 83.6006 200.124 83.7319 199.89 83.9657C199.657 84.1996 199.525 84.5167 199.525 84.8474C199.525 85.178 199.657 85.4952 199.89 85.729C200.124 85.9628 200.441 86.0942 200.772 86.0942H203.764C204.117 86.0942 204.512 86.6278 204.512 87.341V88.5878H188.304V87.341C188.364 86.4165 188.058 85.5055 187.451 84.8054C186.844 84.1053 185.986 83.6724 185.062 83.6006H182.07C181.739 83.6006 181.422 83.7319 181.188 83.9657C180.954 84.1996 180.823 84.5167 180.823 84.8474C180.823 85.178 180.954 85.4952 181.188 85.729C181.422 85.9628 181.739 86.0942 182.07 86.0942H185.062C185.415 86.0942 185.81 86.6278 185.81 87.341V88.5878H169.602V87.341C169.662 86.4165 169.356 85.5055 168.749 84.8054C168.142 84.1053 167.284 83.6724 166.36 83.6006H163.368C163.037 83.6006 162.72 83.7319 162.486 83.9657C162.252 84.1996 162.121 84.5167 162.121 84.8474C162.121 85.178 162.252 85.4952 162.486 85.729C162.72 85.9628 163.037 86.0942 163.368 86.0942H166.36C166.713 86.0942 167.108 86.6278 167.108 87.341V88.5878H155.887C155.858 88.5878 155.835 88.6027 155.806 88.604C155.646 88.6279 155.489 88.6697 155.338 88.7287C155.276 88.7648 155.216 88.8065 155.161 88.8534C155.09 88.9005 155.025 88.9553 154.966 89.0167C154.919 89.0732 154.877 89.1337 154.841 89.1975C154.791 89.2706 154.749 89.3487 154.716 89.4306C154.708 89.4556 154.689 89.473 154.683 89.498L139.721 141.864C139.72 141.874 139.72 141.885 139.721 141.895C139.713 141.921 139.715 141.947 139.71 141.974C139.686 142.097 139.681 142.223 139.696 142.348C139.696 142.369 139.696 142.388 139.696 142.409C139.696 142.43 139.707 142.435 139.71 142.449C139.734 142.58 139.779 142.706 139.844 142.823C139.851 142.833 139.859 142.842 139.867 142.851C139.916 142.936 139.975 143.014 140.044 143.084L155.005 158.046C155.241 158.278 155.557 158.408 155.887 158.409H213.24C213.571 158.409 213.888 158.278 214.122 158.044C214.356 157.81 214.487 157.493 214.487 157.162V89.8346C214.487 89.5039 214.356 89.1868 214.122 88.953C213.888 88.7191 213.571 88.5878 213.24 88.5878ZM154.64 154.152L143.52 143.032L154.64 141.178V154.152ZM202.019 91.0814H204.512V92.3282C204.512 93.0414 204.117 93.575 203.764 93.575H202.767C202.414 93.575 202.019 93.0414 202.019 92.3282V91.0814ZM183.317 91.0814H185.81V92.3282C185.81 93.0414 185.415 93.575 185.062 93.575H184.065C183.712 93.575 183.317 93.0414 183.317 92.3282V91.0814ZM164.615 91.0814H167.108V92.3282C167.108 93.0414 166.713 93.575 166.36 93.575H165.363C165.01 93.575 164.615 93.0414 164.615 92.3282V91.0814ZM211.993 155.915H157.134V101.056H208.253C208.584 101.056 208.901 100.924 209.135 100.691C209.368 100.457 209.5 100.14 209.5 99.8091C209.5 99.4784 209.368 99.1612 209.135 98.9274C208.901 98.6936 208.584 98.5622 208.253 98.5622H157.134V91.0814H162.121V92.3282C162.061 93.2527 162.367 94.1637 162.974 94.8638C163.581 95.5639 164.439 95.9968 165.363 96.0686H166.36C167.284 95.9968 168.142 95.5639 168.749 94.8638C169.356 94.1637 169.662 93.2527 169.602 92.3282V91.0814H180.823V92.3282C180.763 93.2527 181.069 94.1637 181.676 94.8638C182.283 95.5639 183.141 95.9968 184.065 96.0686H185.062C185.986 95.9968 186.844 95.5639 187.451 94.8638C188.058 94.1637 188.364 93.2527 188.304 92.3282V91.0814H199.525V92.3282C199.465 93.2527 199.772 94.1637 200.378 94.8638C200.985 95.5639 201.843 95.9968 202.767 96.0686H203.764C204.688 95.9968 205.546 95.5639 206.153 94.8638C206.76 94.1637 207.066 93.2527 207.006 92.3282V91.0814H211.993V155.915Z" fill="#75C1D4"/>
<path d="M191.904 142.087C191.366 142.15 190.824 142.183 190.283 142.184C186.351 142.131 182.601 140.52 179.856 137.705C177.111 134.89 175.594 131.101 175.639 127.169C175.63 123.35 177.064 119.669 179.654 116.863C179.826 116.676 179.937 116.441 179.971 116.189C180.006 115.937 179.963 115.681 179.848 115.454C179.733 115.227 179.552 115.041 179.328 114.921C179.104 114.8 178.849 114.751 178.596 114.779C174.219 115.359 170.221 117.569 167.403 120.967C164.584 124.366 163.152 128.704 163.393 133.113C163.634 137.522 165.53 141.678 168.702 144.749C171.874 147.821 176.088 149.582 180.503 149.681C182.849 149.684 185.17 149.195 187.315 148.245C189.461 147.296 191.384 145.908 192.961 144.17C193.133 143.983 193.244 143.748 193.279 143.497C193.313 143.245 193.27 142.988 193.155 142.762C193.04 142.535 192.859 142.349 192.635 142.228C192.411 142.108 192.156 142.058 191.904 142.087ZM180.503 147.188C177.005 147.087 173.651 145.773 171.016 143.47C168.382 141.167 166.63 138.019 166.063 134.566C165.495 131.113 166.146 127.57 167.905 124.545C169.664 121.52 172.421 119.201 175.703 117.986C174.025 120.755 173.14 123.932 173.145 127.169C173.11 131.488 174.684 135.666 177.56 138.889C180.435 142.112 184.408 144.15 188.703 144.606C186.302 146.292 183.437 147.194 180.503 147.188Z" fill="#75C1D4"/>
<path d="M183.94 111.222L185.929 110.086L183.4 116.825C183.315 117.05 183.297 117.295 183.348 117.53C183.399 117.765 183.517 117.98 183.687 118.149C183.858 118.319 184.073 118.436 184.308 118.485C184.543 118.535 184.788 118.516 185.012 118.43L188.753 117.005C188.906 116.947 189.046 116.859 189.165 116.746C189.284 116.634 189.38 116.499 189.447 116.35C189.514 116.201 189.551 116.039 189.555 115.876C189.56 115.712 189.532 115.549 189.474 115.396C189.416 115.243 189.328 115.103 189.216 114.984C189.103 114.865 188.968 114.769 188.819 114.702C188.67 114.635 188.508 114.598 188.345 114.594C188.181 114.589 188.018 114.616 187.865 114.675L186.706 115.116L189.477 107.729C189.568 107.489 189.582 107.226 189.518 106.978C189.453 106.729 189.314 106.507 189.119 106.34C188.923 106.174 188.681 106.072 188.426 106.048C188.17 106.024 187.913 106.08 187.691 106.208L182.703 109.058C182.557 109.137 182.428 109.244 182.324 109.374C182.22 109.504 182.143 109.653 182.097 109.812C182.052 109.972 182.038 110.14 182.058 110.305C182.078 110.47 182.131 110.629 182.214 110.773C182.296 110.918 182.407 111.044 182.539 111.145C182.671 111.246 182.821 111.32 182.982 111.361C183.143 111.403 183.311 111.413 183.475 111.389C183.64 111.365 183.798 111.308 183.94 111.222Z" fill="#75C1D4"/>
<path d="M197.835 134.624L196.675 135.065L199.447 127.678C199.537 127.437 199.551 127.175 199.487 126.927C199.423 126.678 199.284 126.455 199.088 126.289C198.893 126.123 198.651 126.021 198.395 125.997C198.139 125.973 197.883 126.029 197.66 126.157L192.673 129.007C192.394 129.175 192.192 129.446 192.11 129.761C192.028 130.076 192.073 130.41 192.234 130.693C192.396 130.976 192.662 131.184 192.975 131.273C193.288 131.363 193.623 131.326 193.91 131.171L195.898 130.035L193.37 136.774C193.285 136.999 193.267 137.244 193.318 137.479C193.369 137.714 193.486 137.929 193.657 138.098C193.827 138.268 194.043 138.385 194.278 138.434C194.513 138.484 194.757 138.465 194.982 138.379L198.722 136.954C199.031 136.836 199.281 136.601 199.416 136.299C199.551 135.997 199.561 135.654 199.444 135.345C199.326 135.036 199.09 134.786 198.789 134.651C198.487 134.516 198.144 134.506 197.835 134.624Z" fill="#75C1D4"/>
<path d="M200.328 119.662L199.169 120.103L201.94 112.716C202.031 112.476 202.045 112.214 201.981 111.965C201.916 111.716 201.777 111.494 201.582 111.327C201.386 111.161 201.144 111.059 200.889 111.035C200.633 111.012 200.376 111.067 200.154 111.195L195.166 114.045C195.02 114.124 194.891 114.232 194.787 114.361C194.683 114.491 194.606 114.64 194.56 114.8C194.515 114.96 194.501 115.127 194.521 115.292C194.541 115.457 194.594 115.616 194.677 115.761C194.759 115.905 194.87 116.031 195.002 116.132C195.134 116.233 195.284 116.307 195.445 116.349C195.606 116.39 195.774 116.4 195.938 116.376C196.103 116.352 196.261 116.295 196.403 116.21L198.392 115.074L195.863 121.813C195.778 122.038 195.76 122.282 195.811 122.517C195.862 122.752 195.98 122.967 196.15 123.137C196.321 123.306 196.536 123.423 196.771 123.473C197.006 123.522 197.251 123.503 197.475 123.417L201.216 121.992C201.369 121.934 201.509 121.846 201.628 121.734C201.747 121.621 201.843 121.487 201.91 121.337C201.977 121.188 202.014 121.027 202.018 120.863C202.023 120.699 201.995 120.536 201.937 120.383C201.879 120.23 201.791 120.09 201.679 119.971C201.566 119.852 201.431 119.756 201.282 119.689C201.133 119.622 200.971 119.586 200.808 119.581C200.644 119.576 200.481 119.604 200.328 119.662Z" fill="#75C1D4"/>
</svg>
