<svg width="374" height="250" viewBox="0 0 374 250" fill="none" xmlns="http://www.w3.org/2000/svg">
<path d="M374 0H-1V250H374V0Z" fill="#F6F6F6"/>
<path d="M187.659 219.69C263.724 219.69 325.387 214.948 325.387 209.1C325.387 203.251 263.724 198.509 187.659 198.509C111.594 198.509 49.9312 203.251 49.9312 209.1C49.9312 214.948 111.594 219.69 187.659 219.69Z" fill="#DCEEF3"/>
<path d="M314.829 111.062C314.829 112.294 314.792 113.535 314.719 114.783C314.092 125.94 310.766 137.582 304.995 147.609C300.306 155.761 294.003 162.843 286.223 167.735C283.505 169.449 280.614 170.874 277.599 171.986C273.811 173.38 269.845 174.229 265.818 174.507C265.39 174.535 264.962 174.559 264.534 174.576C261.976 174.671 259.414 174.561 256.874 174.248C248.243 173.212 239.957 170.173 231.571 167.735H231.565C229.236 167.058 226.899 166.427 224.547 165.899C222.748 165.499 220.926 165.205 219.092 165.02C217.645 164.867 216.198 164.774 214.75 164.719C211.29 164.588 207.829 164.682 204.365 164.749C200.654 164.82 196.938 164.86 193.214 164.56C190.807 164.378 188.418 164.019 186.064 163.488C185.8 163.428 185.536 163.365 185.272 163.299C177.621 161.381 170.038 158.948 162.24 157.798C159.968 157.456 157.678 157.244 155.382 157.163C154.69 157.141 153.996 157.132 153.298 157.137C145.674 157.17 137.773 158.514 130.347 156.597C126.775 155.673 123.614 153.935 120.581 151.938C118.397 150.502 116.279 148.932 114.122 147.435C110.906 145.203 107.601 143.139 103.858 141.93C103.674 141.87 103.486 141.812 103.299 141.759C103.083 141.695 102.866 141.629 102.647 141.562C99.0451 140.454 95.5271 139.089 92.1204 137.478C84.3749 133.813 76.8272 128.632 72.5573 122.124C72.4718 121.994 72.3862 121.867 72.3049 121.732C67.0688 113.43 63.8764 103.701 63.4759 93.9354C63.4188 92.5449 63.4188 91.155 63.4759 89.7657C63.6269 85.9556 64.2464 82.1786 65.3203 78.5198C66.4777 74.645 68.1968 70.9608 70.4228 67.5846C77.6334 56.5707 89.8242 48.5847 102.647 45.7185C104.762 45.2436 106.906 44.9111 109.065 44.7231C109.309 44.7017 109.555 44.6812 109.799 44.6649C110.498 44.6159 111.197 44.5773 111.896 44.5494C113.357 44.4923 114.816 44.4741 116.274 44.4946C117.219 44.506 118.162 44.53 119.105 44.5665C120.566 44.623 122.026 44.7051 123.485 44.8044C124.429 44.8678 125.373 44.9377 126.316 45.0141C127.776 45.1296 129.234 45.2546 130.695 45.3787C131.639 45.4603 132.582 45.5396 133.527 45.6166C134.981 45.7364 136.446 45.8494 137.906 45.9427C138.849 46.0055 139.793 46.0588 140.737 46.1028C142.192 46.1712 143.655 46.214 145.116 46.2234C146.059 46.2303 147.003 46.2223 147.947 46.1995C148.419 46.1866 148.888 46.1704 149.363 46.1481C150.676 46.0911 151.986 46.0163 153.295 45.9239C165.189 45.0969 176.951 42.9243 188.356 39.4477C192.219 38.2691 196.149 37.1369 200.12 36.0867C204.963 34.8081 209.867 33.6578 214.788 32.7104C215.48 32.5769 216.171 32.4479 216.863 32.3236C217.301 32.2431 217.739 32.1669 218.177 32.0908C219.161 31.9196 220.143 31.759 221.125 31.6089H221.13C221.614 31.5353 222.099 31.4617 222.585 31.3915C224.068 31.177 225.552 30.9853 227.035 30.8164C229.046 30.5882 231.053 30.405 233.054 30.2669C244.384 29.4967 255.495 30.3234 265.82 33.6647C270.199 35.0722 274.41 36.9563 278.378 39.2833C279.332 39.8436 280.276 40.4345 281.209 41.0558C282.696 42.0435 284.156 43.1093 285.588 44.2533C286.545 45.0201 287.489 45.8223 288.42 46.6599C289.917 48.0093 291.377 49.4563 292.798 51.0008C293.762 52.0461 294.705 53.1378 295.629 54.2761C295.843 54.538 296.054 54.8025 296.264 55.0695C296.774 55.7137 297.278 56.3727 297.774 57.0465C298.546 58.0924 299.291 59.1579 300.01 60.2431C301.004 61.7431 301.948 63.2785 302.841 64.8493C303.764 66.4714 304.633 68.1261 305.448 69.8132C305.528 69.9776 305.608 70.1422 305.686 70.3071C306.222 71.4277 306.733 72.5602 307.219 73.7048C308.274 76.1822 309.217 78.7055 310.05 81.2748C311.568 85.9557 312.728 90.7447 313.523 95.6009C313.657 96.4231 313.782 97.2467 313.896 98.0717C314.11 99.6122 314.288 101.158 314.428 102.708C314.542 103.949 314.632 105.19 314.697 106.43C314.75 107.39 314.788 108.349 314.811 109.306C314.823 109.887 314.829 110.473 314.829 111.062Z" fill="#F3F5F4"/>
<path d="M204.366 73.8706V165.019H193.212H186.062V163.489C185.798 163.429 185.534 163.365 185.27 163.299C177.619 161.381 170.04 158.949 162.239 157.799V73.8706H204.366Z" fill="#DCEEF3"/>
<path d="M174.852 80.7263H166.276V84.2079H174.852V80.7263Z" fill="#BDDDE6"/>
<path d="M186.064 80.7263H177.487V84.2079H186.064V80.7263Z" fill="#BDDDE6"/>
<path d="M197.275 80.7263H188.698V84.2079H197.275V80.7263Z" fill="#F6F6F6" stroke="black" stroke-width="4" stroke-miterlimit="10"/>
<path d="M174.852 88.5454H166.276V92.027H174.852V88.5454Z" fill="#BDDDE6"/>
<path d="M186.064 88.5454H177.487V92.027H186.064V88.5454Z" fill="#BDDDE6"/>
<path d="M197.275 88.5454H188.698V92.027H197.275V88.5454Z" fill="#F6F6F6" stroke="black" stroke-width="4" stroke-miterlimit="10"/>
<path d="M174.852 96.3638H166.276V99.8454H174.852V96.3638Z" fill="#BDDDE6"/>
<path d="M186.064 96.3638H177.487V99.8454H186.064V96.3638Z" fill="#BDDDE6"/>
<path d="M197.275 96.3638H188.698V99.8454H197.275V96.3638Z" fill="#F6F6F6" stroke="black" stroke-width="4" stroke-miterlimit="10"/>
<path d="M174.852 104.182H166.276V107.663H174.852V104.182Z" fill="#BDDDE6"/>
<path d="M186.064 104.182H177.487V107.663H186.064V104.182Z" fill="#BDDDE6"/>
<path d="M197.275 104.182H188.698V107.663H197.275V104.182Z" fill="#F6F6F6" stroke="black" stroke-width="4" stroke-miterlimit="10"/>
<path d="M174.852 112.001H166.276V115.483H174.852V112.001Z" fill="#BDDDE6"/>
<path d="M186.064 112.001H177.487V115.483H186.064V112.001Z" fill="#BDDDE6"/>
<path d="M197.275 112.001H188.698V115.483H197.275V112.001Z" fill="#F6F6F6" stroke="black" stroke-width="4" stroke-miterlimit="10"/>
<path d="M204.365 73.8706H186.063V165.019H204.365V73.8706Z" fill="#BDDDE6"/>
<path d="M114.121 67.5847V147.436C110.745 145.093 107.275 142.935 103.298 141.757C103.083 141.693 102.865 141.628 102.647 141.56C99.0448 140.453 95.5268 139.088 92.12 137.476C84.2196 133.739 76.5238 128.423 72.3045 121.729C67.0683 113.427 63.8751 103.697 63.4746 93.9321V89.7616C63.6269 85.9518 64.2466 82.1752 65.3198 78.5165C66.4776 74.6429 68.1967 70.9598 70.4224 67.5847H114.121Z" fill="#DCEEF3"/>
<path d="M105.595 74.9133H95.2832V78.6354H105.595V74.9133Z" fill="#F6F6F6" stroke="black" stroke-width="4" stroke-miterlimit="10"/>
<path d="M105.595 83.2717H95.2832V86.9939H105.595V83.2717Z" fill="#F6F6F6" stroke="black" stroke-width="4" stroke-miterlimit="10"/>
<path d="M105.595 91.6287H95.2832V95.3508H105.595V91.6287Z" fill="#F6F6F6" stroke="black" stroke-width="4" stroke-miterlimit="10"/>
<path d="M105.595 99.9863H95.2832V103.708H105.595V99.9863Z" fill="#F6F6F6" stroke="black" stroke-width="4" stroke-miterlimit="10"/>
<path d="M78.6355 74.9133H68.3232V78.6354H78.6355V74.9133Z" fill="#E2F9FF"/>
<path d="M92.1154 74.9133H81.8032V78.6354H92.1154V74.9133Z" fill="#E2F9FF"/>
<path d="M78.6355 83.2717H68.3232V86.9939H78.6355V83.2717Z" fill="#E2F9FF"/>
<path d="M92.1154 83.2717H81.8032V86.9939H92.1154V83.2717Z" fill="#E2F9FF"/>
<path d="M78.6355 91.6287H68.3232V95.3508H78.6355V91.6287Z" fill="#E2F9FF"/>
<path d="M92.1154 91.6287H81.8032V95.3508H92.1154V91.6287Z" fill="#E2F9FF"/>
<path d="M78.6355 99.9863H68.3232V103.708H78.6355V99.9863Z" fill="#E2F9FF"/>
<path d="M92.1154 99.9863H81.8032V103.708H92.1154V99.9863Z" fill="#E2F9FF"/>
<path d="M78.6355 108.344H68.3232V112.067H78.6355V108.344Z" fill="#E2F9FF"/>
<path d="M92.1154 108.344H81.8032V112.067H92.1154V108.344Z" fill="#E2F9FF"/>
<path d="M105.595 108.344H95.2832V112.067H105.595V108.344Z" fill="#F6F6F6" stroke="black" stroke-width="4" stroke-miterlimit="10"/>
<path d="M111.393 61.1982H85.2412V67.5855H111.393V61.1982Z" fill="#DCEEF3"/>
<path d="M114.121 67.5857V147.437C110.745 145.094 107.274 142.936 103.298 141.758C103.082 141.694 102.865 141.629 102.647 141.561C99.0444 140.453 95.5264 139.089 92.1196 137.477V67.5857H114.121Z" fill="#BDDDE6"/>
<path d="M111.392 65.5769H85.2412V67.5864H111.392V65.5769Z" fill="#BDDDE6"/>
<path d="M153.298 45.9245V157.137C145.673 157.171 137.772 158.514 130.347 156.596C124.202 155.009 119.274 151.009 114.121 147.439C110.745 145.096 107.275 142.938 103.298 141.76C103.083 141.696 102.865 141.631 102.647 141.563V45.7182C104.762 45.243 106.906 44.9104 109.066 44.7229C109.31 44.7018 109.555 44.6824 109.799 44.6647C110.498 44.6156 111.197 44.5774 111.896 44.55C113.357 44.491 114.816 44.4764 116.275 44.4935C117.219 44.5055 118.163 44.5298 119.106 44.5663C120.567 44.6228 122.026 44.7049 123.485 44.8042C124.43 44.8675 125.373 44.9371 126.316 45.013C127.771 45.1294 129.236 45.2544 130.696 45.3785C131.64 45.4601 132.584 45.5394 133.527 45.6164C134.982 45.7362 136.446 45.8492 137.906 45.9425C138.848 46.0052 139.792 46.0586 140.738 46.1025C142.192 46.1701 143.655 46.2138 145.117 46.2232C146.059 46.23 147.003 46.2218 147.948 46.1984C148.419 46.1864 148.891 46.1696 149.364 46.1479C150.677 46.0897 151.988 46.0152 153.298 45.9245Z" fill="#DCEEF3"/>
<path d="M111.899 44.5503V126.481H109.069V44.7215C109.313 44.7004 109.558 44.681 109.802 44.6633C110.501 44.6153 111.2 44.5777 111.899 44.5503Z" fill="#BDDDE6"/>
<path d="M119.109 44.5664V126.481H116.277V44.4902C117.222 44.5045 118.165 44.5299 119.109 44.5664Z" fill="#BDDDE6"/>
<path d="M126.319 45.0131V126.481H123.488V44.8069C124.432 44.8685 125.376 44.9373 126.319 45.0131Z" fill="#BDDDE6"/>
<path d="M133.529 45.6166V126.481H130.698V45.3787C131.643 45.4603 132.586 45.5396 133.529 45.6166Z" fill="#BDDDE6"/>
<path d="M140.74 46.1025V126.481H137.909V45.9451C138.851 46.0061 139.795 46.0586 140.74 46.1025Z" fill="#BDDDE6"/>
<path d="M147.951 46.1985V126.477H145.12V46.2233C146.062 46.2302 147.005 46.2219 147.951 46.1985Z" fill="#BDDDE6"/>
<path d="M235.34 39.4441H193.214V165.021H235.34V39.4441Z" fill="#DCEEF3"/>
<path d="M228.249 48.8894H219.672V53.6865H228.249V48.8894Z" fill="#F6F6F6" stroke="black" stroke-width="4" stroke-miterlimit="10"/>
<path d="M228.249 59.6611H219.672V64.4582H228.249V59.6611Z" fill="#F6F6F6" stroke="black" stroke-width="4" stroke-miterlimit="10"/>
<path d="M228.249 70.4321H219.672V75.2292H228.249V70.4321Z" fill="#F6F6F6" stroke="black" stroke-width="4" stroke-miterlimit="10"/>
<path d="M228.249 81.2039H219.672V86.0009H228.249V81.2039Z" fill="#F6F6F6" stroke="black" stroke-width="4" stroke-miterlimit="10"/>
<path d="M205.826 48.8894H197.25V53.6865H205.826V48.8894Z" fill="#BDDDE6"/>
<path d="M217.037 48.8894H208.46V53.6865H217.037V48.8894Z" fill="#BDDDE6"/>
<path d="M205.826 59.6611H197.25V64.4582H205.826V59.6611Z" fill="#BDDDE6"/>
<path d="M217.037 59.6611H208.46V64.4582H217.037V59.6611Z" fill="#BDDDE6"/>
<path d="M205.826 70.4321H197.25V75.2292H205.826V70.4321Z" fill="#BDDDE6"/>
<path d="M217.037 70.4321H208.46V75.2292H217.037V70.4321Z" fill="#BDDDE6"/>
<path d="M205.826 81.2039H197.25V86.0009H205.826V81.2039Z" fill="#BDDDE6"/>
<path d="M217.037 81.2039H208.46V86.0009H217.037V81.2039Z" fill="#BDDDE6"/>
<path d="M205.826 91.9758H197.25V96.772H205.826V91.9758Z" fill="#BDDDE6"/>
<path d="M217.037 91.9758H208.46V96.772H217.037V91.9758Z" fill="#BDDDE6"/>
<path d="M228.249 91.9758H219.672V96.772H228.249V91.9758Z" fill="#F6F6F6" stroke="black" stroke-width="4" stroke-miterlimit="10"/>
<path d="M256.877 53.8895V174.25C248.247 173.216 239.96 170.176 231.575 167.737H231.568C229.239 167.06 226.903 166.43 224.55 165.902C222.75 165.502 220.929 165.208 219.095 165.023C217.648 164.87 216.201 164.777 214.753 164.721V53.8887L256.877 53.8895Z" fill="#BDDDE6"/>
<path d="M221.841 43.3408H230.418V39.8592H221.841V43.3408Z" fill="#F6F6F6" stroke="black" stroke-width="4" stroke-miterlimit="10"/>
<path d="M221.841 51.1599H230.418V47.6783H221.841V51.1599Z" fill="#F6F6F6" stroke="black" stroke-width="4" stroke-miterlimit="10"/>
<path d="M221.841 58.979H230.418V55.4974H221.841V58.979Z" fill="#F6F6F6" stroke="black" stroke-width="4" stroke-miterlimit="10"/>
<path d="M221.841 66.7964H230.418V63.3148H221.841V66.7964Z" fill="#F6F6F6" stroke="black" stroke-width="4" stroke-miterlimit="10"/>
<path d="M244.483 65.5947H253.06V62.1131H244.483V65.5947Z" fill="#E2F9FF"/>
<path d="M233.274 65.5947H241.85V62.1131H233.274V65.5947Z" fill="#E2F9FF"/>
<path d="M244.483 73.4138H253.06V69.9322H244.483V73.4138Z" fill="#E2F9FF"/>
<path d="M233.274 73.4138H241.85V69.9322H233.274V73.4138Z" fill="#E2F9FF"/>
<path d="M244.483 81.2329H253.06V77.7513H244.483V81.2329Z" fill="#E2F9FF"/>
<path d="M233.274 81.2329H241.85V77.7513H233.274V81.2329Z" fill="#E2F9FF"/>
<path d="M244.483 89.051H253.06V85.5694H244.483V89.051Z" fill="#E2F9FF"/>
<path d="M233.274 89.051H241.85V85.5694H233.274V89.051Z" fill="#E2F9FF"/>
<path d="M244.483 96.8691H253.06V93.3875H244.483V96.8691Z" fill="#E2F9FF"/>
<path d="M233.274 96.8691H241.85V93.3875H233.274V96.8691Z" fill="#E2F9FF"/>
<path d="M221.841 74.6155H230.418V71.1339H221.841V74.6155Z" fill="#F6F6F6" stroke="black" stroke-width="4" stroke-miterlimit="10"/>
<path d="M233.053 30.2659V167.735H214.752V32.7299L214.791 32.7102C215.921 32.4928 217.051 32.2863 218.181 32.0905C219.164 31.9194 220.147 31.7588 221.128 31.6087H221.133C221.618 31.5351 222.102 31.4615 222.588 31.3913C224.072 31.1768 225.555 30.9851 227.039 30.8162C229.047 30.5862 231.052 30.4028 233.053 30.2659Z" fill="#DCEEF3"/>
<path d="M314.829 111.062C314.829 112.294 314.793 113.535 314.72 114.783C314.093 125.941 310.766 137.582 304.995 147.61C300.306 155.761 294.004 162.844 286.224 167.736C283.505 169.45 280.615 170.874 277.6 171.987C273.812 173.381 269.845 174.229 265.819 174.506V33.6638C270.198 35.0713 274.409 36.9555 278.377 39.2825C279.331 39.8439 280.274 40.4347 281.208 41.055C282.695 42.0432 284.155 43.1093 285.587 44.2533C286.544 45.0184 287.488 45.8203 288.418 46.6591C289.915 48.0085 291.375 49.4554 292.798 50.9999C293.761 52.0458 294.705 53.1376 295.629 54.2753C296.355 55.1699 297.069 56.0931 297.769 57.0448C298.541 58.0918 299.285 59.1576 300.003 60.2423C300.999 61.7434 301.943 63.2788 302.834 64.8485C303.849 66.6287 304.798 68.4468 305.681 70.3028C306.216 71.4234 306.727 72.556 307.214 73.7006C308.268 76.1774 309.212 78.7007 310.045 81.2706C311.563 85.9513 312.723 90.7404 313.517 95.5966C313.652 96.4188 313.776 97.2425 313.89 98.0675C314.104 99.6115 314.282 101.157 314.423 102.704C314.537 103.945 314.627 105.186 314.692 106.426C314.744 107.386 314.782 108.345 314.805 109.301C314.821 109.887 314.829 110.474 314.829 111.062Z" fill="#DCEEF3"/>
<path d="M310.049 81.2704V129.198H307.218V73.7004C308.273 76.1767 309.216 78.7 310.049 81.2704Z" fill="#E2F9FF"/>
<path d="M302.838 64.8484V129.199H300.007V60.2422C301.003 61.7434 301.947 63.2787 302.838 64.8484Z" fill="#E2F9FF"/>
<path d="M295.629 54.2753V129.199H292.798V51C293.761 52.0459 294.705 53.1376 295.629 54.2753Z" fill="#E2F9FF"/>
<path d="M288.419 46.659V129.199H285.587V44.2532C286.544 45.0183 287.488 45.8202 288.419 46.659Z" fill="#E2F9FF"/>
<path d="M281.209 41.0549V129.199H278.377V39.2825C279.331 39.8439 280.275 40.4347 281.209 41.0549Z" fill="#E2F9FF"/>
<path d="M271.167 129.198H273.999V38.5045H271.167V129.198Z" fill="#E2F9FF"/>
<path d="M167.697 40.032C169.124 39.5185 170.53 38.9246 171.938 38.2698C173.093 37.7315 174.795 37.1059 175.797 36.3262C176.735 35.5961 177.479 34.3346 177.89 33.2948C175.421 32.3747 172.917 34.9799 170.726 36.0806C162.688 40.115 151.857 40.1416 143.299 37.859C140.817 37.1966 135.607 33.7954 133.126 35.7819C129.215 38.9151 139.02 41.1104 140.686 41.4776C147.59 42.9976 155.001 43.0181 161.93 41.6487C163.891 41.2581 165.819 40.7176 167.697 40.032Z" fill="#DCEEF3"/>
<path d="M64.5019 136.445C67.102 140.444 72.2149 145.351 77.6769 142.892C83.1715 140.419 78.2075 133.911 74.6583 131.305C69.3272 127.389 65.6556 123.406 64.0167 116.625C63.2087 113.281 63.0615 109.825 62.3538 106.463C62.1492 105.493 59.1871 97.1537 57.8597 98.66C56.2028 100.543 56.5288 105.445 56.4723 107.806C56.3927 111.163 56.6452 114.519 57.2263 117.825C58.386 124.431 60.844 130.82 64.5019 136.445Z" fill="#DCEEF3"/>
<path d="M51.2439 89.5562C53.5376 91.8302 57.6046 92.508 58.2482 88.3768C58.7455 85.182 54.2634 80.5287 51.2936 83.0834C48.7962 85.2316 49.5143 87.8454 51.2439 89.5562Z" fill="#DCEEF3"/>
<path d="M47.0017 98.5818C47.0488 100.221 48.0638 101.742 50.3267 101.321C52.7436 100.868 53.151 96.7229 51.0413 95.5667C48.4875 94.1665 46.941 96.4722 47.0017 98.5818Z" fill="#DCEEF3"/>
<path d="M317.829 157.297C316.334 161.044 315.286 164.749 315.138 169.306C315.052 171.94 315.223 174.628 314.505 177.163C312.497 184.224 302.152 184.865 298.747 178.501C295.074 171.639 299.431 165.51 304.105 160.509C309.001 155.265 314.511 150.742 317.713 144.368C318.502 142.797 320.799 142.928 321.409 144.576C322.883 148.554 319.407 153.339 317.829 157.297Z" fill="#DCEEF3"/>
<path d="M232.665 70.3242H166.621C164.175 70.3242 162.192 72.3068 162.192 74.7524V206.486C162.192 208.932 164.175 210.914 166.621 210.914H232.665C235.111 210.914 237.093 208.932 237.093 206.486V74.7524C237.093 72.3068 235.111 70.3242 232.665 70.3242Z" fill="#92C6D4"/>
<path d="M228.948 70.3242V210.914H166.62C166.038 210.914 165.462 210.8 164.925 210.577C164.388 210.355 163.9 210.028 163.489 209.617C163.078 209.206 162.752 208.718 162.529 208.181C162.307 207.643 162.192 207.068 162.192 206.486V74.7524C162.192 74.1709 162.307 73.5951 162.529 73.0579C162.752 72.5206 163.078 72.0325 163.489 71.6213C163.9 71.21 164.388 70.8839 164.925 70.6613C165.462 70.4388 166.038 70.3242 166.62 70.3242H228.948Z" fill="#45ABC7"/>
<path d="M226.631 77.9844H164.51V207.928H226.631V77.9844Z" fill="#F6F6F6"/>
<path d="M226.631 158.884V207.924H164.51V117.651C165.39 118.792 166.274 119.93 167.163 121.063C170.275 125.058 173.401 129.066 177.046 132.581C182.331 137.676 188.593 141.625 194.807 145.535C202.909 150.632 211.214 155.816 220.552 157.922C222.557 158.366 224.587 158.687 226.631 158.884Z" fill="#DCEEF3"/>
<path d="M213.97 97.3737L210.106 106.717L210.802 107.005L214.666 97.6615L213.97 97.3737Z" fill="#61B9D1"/>
<path d="M168.286 185.529L168.198 186.277L182.433 187.962L182.522 187.214L168.286 185.529Z" fill="#61B9D1"/>
<path d="M183.194 114.029L182.543 114.408L182.505 114.342L179.54 109.25L164.51 83.435V81.9373L180.428 109.277L183.166 113.979L183.194 114.029Z" fill="#61B9D1"/>
<path d="M225.281 94.4827L220.094 107.757L220.796 108.031L225.982 94.7567L225.281 94.4827Z" fill="#61B9D1"/>
<path d="M211.032 130.923V207.932H210.278V130.923C210.278 130.695 210.263 130.466 210.233 130.239C210.089 129.114 209.578 128.069 208.778 127.266L208.392 126.881L203.269 121.792L202.701 121.227L191.603 110.2L191.526 110.123L191.324 109.923L191.091 109.692L191.181 109.601L191.245 109.537L191.357 109.424L191.429 109.351L191.621 109.157L192.119 109.653L208.249 125.685L209.308 126.737C210.226 127.658 210.814 128.856 210.98 130.146C211.014 130.404 211.031 130.664 211.032 130.923Z" fill="#61B9D1"/>
<path d="M206.352 77.9844L203.899 83.4438L203.745 83.787L203.59 84.1302L203.424 84.5008L200.698 90.568L200.388 91.2561L192.119 109.653L192.017 109.88L192.009 109.877V109.876L191.679 109.728L191.645 109.713L191.417 109.61H191.417L191.398 109.601L191.331 109.571L191.37 109.484L191.379 109.464H191.38L191.384 109.453L191.429 109.351L191.43 109.35L205.527 77.9844H206.352Z" fill="#61B9D1"/>
<path d="M200.551 90.5021L200.222 91.1797L214.115 97.9196L214.444 97.242L200.551 90.5021Z" fill="#61B9D1"/>
<path d="M226.687 193.12L226.63 193.119L225.934 193.115L211.641 193.026L211.031 193.022L210.654 193.02L210.456 193.019L210.46 192.265L210.654 192.266L211.031 192.268L211.458 192.271L226.63 192.366V192.843H226.685L226.687 193.12Z" fill="#61B9D1"/>
<path d="M192.051 109.954L191.945 110.012L191.601 110.201L191.551 110.229L172.363 120.78L171.676 121.158L165 124.829L164.655 125.018L164.573 125.064L164.51 125.098L164.508 125.1L164.229 124.824V124.823L164.205 124.713L164.51 124.648V124.043L164.638 124.168L182.504 114.342L183.166 113.979L191.13 109.601L191.244 109.538L191.366 109.471V109.47L191.38 109.464L191.389 109.457L191.688 109.294L191.869 109.623L192.009 109.876L192.051 109.954Z" fill="#61B9D1"/>
<path d="M169.658 173.258L169.591 173.908L169.552 174.283L169.514 174.653V174.658L168.392 185.541L168.315 186.29L166.09 207.928H165.332L167.301 188.815L167.339 188.439L167.378 188.064L167.4 187.851L168.469 177.443L168.546 176.689L168.907 173.18C170.129 161.335 169.481 149.371 166.988 137.727L166.604 135.935L166.526 135.563L166.497 135.438L166.445 135.192L164.57 126.424L164.509 126.142L164.228 124.824L164.204 124.714L164.509 124.649L164.572 124.635L164.94 124.556L164.999 124.83L167.725 137.569C168.381 140.635 168.91 143.716 169.31 146.813C169.326 146.929 169.341 147.046 169.356 147.163C169.358 147.172 169.359 147.182 169.36 147.191C169.376 147.317 169.392 147.448 169.407 147.57C170.454 156.096 170.538 164.713 169.658 173.258Z" fill="#61B9D1"/>
<path d="M169.351 147.595L169.13 146.874L185.625 141.819C185.645 140.217 185.81 135.459 185.818 135.244L185.828 134.987L198.201 130.613L198.452 131.323L186.563 135.527C186.524 136.64 186.376 141.044 186.376 142.099V142.374L169.351 147.595Z" fill="#61B9D1"/>
<path d="M193.018 133.195L192.268 133.262L195.299 167.419L196.049 167.352L193.018 133.195Z" fill="#61B9D1"/>
<path d="M202.834 120.961L197.99 131.376L198.673 131.694L203.517 121.279L202.834 120.961Z" fill="#61B9D1"/>
<path d="M172.284 120.395L171.55 120.564L177.031 144.305L177.764 144.136L172.284 120.395Z" fill="#61B9D1"/>
<path d="M201.424 166.948L200.886 184.358L201.638 184.381L202.176 166.971L201.424 166.948Z" fill="#61B9D1"/>
<path d="M183.383 127.476L173.942 130.795L174.192 131.506L183.633 128.187L183.383 127.476Z" fill="#61B9D1"/>
<path d="M182.254 121.181L181.522 121.361L183.136 127.947L183.868 127.767L182.254 121.181Z" fill="#61B9D1"/>
<path d="M226.631 95.0198L203.591 84.1299L203.368 84.0255L203.157 83.9254L203.317 83.5856L203.318 83.5848L203.479 83.2441L203.899 83.4436L226.631 94.1862V95.0198Z" fill="#61B9D1"/>
<path d="M226.63 149.173H211.046V149.926H226.63V149.173Z" fill="#61B9D1"/>
<path d="M168.063 188.186L167.996 188.557L167.93 188.928L167.673 188.882L167.301 188.815L164.509 188.315H164.507V187.55H164.509L167.378 188.064L167.616 188.106L167.751 188.13L168.063 188.186Z" fill="#61B9D1"/>
<path d="M168.854 176.75L168.706 177.49L168.47 177.443L164.519 176.658L164.51 176.656V175.887L164.521 175.889L168.547 176.689L168.854 176.75Z" fill="#61B9D1"/>
<path d="M166.823 135.458L166.527 135.563L164.561 136.259L164.51 136.277V135.317L164.562 135.319L165.861 135.399L166.499 135.438L166.823 135.458Z" fill="#61B9D1"/>
<path d="M166.949 135.813L166.605 135.935L164.56 136.659V136.66L164.51 136.677V135.877L164.561 135.859L165.861 135.399L166.446 135.192L166.697 135.103L166.823 135.458L166.949 135.813Z" fill="#61B9D1"/>
<path d="M226.779 205.942L226.7 205.712L226.63 205.51V207.928H226.041L225.933 193.114L225.931 192.848L226.63 192.843H226.684L226.686 193.119L226.775 205.319L226.778 205.694V205.71L226.779 205.942Z" fill="#61B9D1"/>
<path d="M188.57 200.239L188.535 200.992L210.451 202.014L210.486 201.261L188.57 200.239Z" fill="#61B9D1"/>
<path d="M190.315 176.38L189.851 182.425L187.892 207.928H187.136L189.05 183.025L189.509 177.043L184.85 176.487L184.474 176.442L184.1 176.398L169.516 174.658H169.514L169.321 174.634L169.367 174.26L169.411 173.886L169.591 173.908L184.187 175.65L184.561 175.693L184.937 175.739L190.315 176.38Z" fill="#61B9D1"/>
<path d="M183.145 194.364L182.25 203.216L180.171 202.966L179.101 202.837L176.253 202.494L175.705 207.928H174.949L175.58 201.655L179.412 202.115L179.872 202.171L181.577 202.375L182.276 195.474L182.395 194.287L183.145 194.364Z" fill="#61B9D1"/>
<path d="M226.631 161.57V162.324C222.332 162.453 216.228 162.637 213.015 162.731C212.051 162.759 211.348 162.78 211.032 162.788H210.851V162.035H211.032C212.328 162 220.157 161.765 226.631 161.57Z" fill="#61B9D1"/>
<path d="M226.779 205.694V205.71H226.701C226.726 205.702 226.752 205.697 226.779 205.694Z" fill="#CC0000"/>
<path d="M226.78 205.942L226.7 205.712L226.63 205.511L226.576 205.355C226.594 205.35 226.612 205.345 226.63 205.342C226.678 205.331 226.727 205.324 226.775 205.319V205.694V205.71L226.78 205.942Z" fill="#CC0000"/>
<path d="M216.518 118.131L226.63 117.965V118.719L216.531 118.884L216.518 118.131Z" fill="#61B9D1"/>
<path d="M183.521 187.548L182.803 187.319C182.8 187.327 182.798 187.336 182.796 187.344C182.905 186.814 184.593 172.161 185.233 166.56L185.273 166.217L210.178 166.839L210.159 167.592L185.946 166.988C185.215 173.343 183.618 187.246 183.521 187.548Z" fill="#61B9D1"/>
<path d="M178.911 75.6545C178.707 75.6543 178.509 75.583 178.352 75.4529C178.194 75.3227 178.087 75.1418 178.048 74.9412C178.009 74.7406 178.042 74.5327 178.14 74.3534C178.237 74.174 178.395 74.0343 178.584 73.9582C178.822 73.8632 179.028 73.781 188.881 73.8272C193.669 73.8495 198.467 73.8948 198.511 73.8957C198.626 73.8968 198.741 73.9205 198.847 73.9657C198.953 74.0109 199.049 74.0765 199.13 74.1589C199.211 74.2413 199.275 74.3388 199.318 74.4458C199.361 74.5529 199.383 74.6674 199.382 74.7828C199.381 74.8982 199.357 75.0123 199.312 75.1185C199.267 75.2248 199.201 75.3211 199.119 75.4019C199.036 75.4828 198.939 75.5467 198.832 75.5899C198.725 75.633 198.61 75.6547 198.495 75.6536C191.22 75.5852 180.121 75.5227 179.106 75.6322C179.042 75.6468 178.977 75.6543 178.911 75.6545Z" fill="#92C6D4"/>
<path d="M212.228 75.5732H203.995C203.762 75.5732 203.538 75.4806 203.374 75.3158C203.209 75.1509 203.116 74.9273 203.116 74.6942C203.116 74.4611 203.209 74.2375 203.374 74.0726C203.538 73.9078 203.762 73.8152 203.995 73.8152H212.226C212.459 73.8152 212.683 73.9078 212.847 74.0726C213.012 74.2375 213.105 74.4611 213.105 74.6942C213.105 74.9273 213.012 75.1509 212.847 75.3158C212.683 75.4806 212.459 75.5732 212.226 75.5732H212.228Z" fill="#92C6D4"/>
<path d="M107.407 133.891C107.679 133.662 107.949 133.438 108.218 133.216C107.95 133.439 107.679 133.663 107.407 133.891Z" fill="#F6F6F6"/>
<path d="M111.422 130.629C111.741 130.379 112.055 130.136 112.363 129.902C112.058 130.136 111.744 130.379 111.422 130.629Z" fill="#F6F6F6"/>
<path d="M112.362 129.902C112.683 129.656 112.997 129.42 113.303 129.193C112.999 129.422 112.685 129.658 112.362 129.902Z" fill="#F6F6F6"/>
<path d="M113.565 128.997C113.824 128.805 114.076 128.623 114.322 128.448C114.076 128.624 113.824 128.807 113.565 128.997Z" fill="#F6F6F6"/>
<path d="M114.505 128.32C114.928 128.019 115.332 127.744 115.711 127.497C115.329 127.744 114.929 128.02 114.505 128.32Z" fill="#F6F6F6"/>
<path d="M115.711 127.497C115.819 127.425 115.925 127.356 116.029 127.292C115.925 127.358 115.819 127.426 115.711 127.497Z" fill="#F6F6F6"/>
<path d="M207.761 143.518C207.71 143.376 207.657 143.233 207.604 143.09C207.655 143.233 207.707 143.376 207.761 143.518Z" fill="#F6F6F6"/>
<path d="M207.601 143.094C207.57 143.008 207.538 142.923 207.507 142.844C207.538 142.927 207.57 143.01 207.601 143.094Z" fill="#F6F6F6"/>
<path d="M207.504 142.844C207.482 142.787 207.459 142.73 207.438 142.673C207.462 142.73 207.484 142.787 207.504 142.844Z" fill="#F6F6F6"/>
<path d="M182.882 123.032C182.902 123.032 182.958 123.027 183.053 123.023L182.895 123.034L182.882 123.032Z" fill="#F6F6F6"/>
<path d="M208.663 146.528C208.84 147.262 208.986 148.007 209.091 148.759C208.985 148.007 208.839 147.262 208.663 146.528Z" fill="#F6F6F6"/>
<path d="M209.122 148.998C209.112 148.919 209.101 148.838 209.09 148.759C209.102 148.832 209.112 148.906 209.121 148.978C209.122 148.985 209.122 148.991 209.122 148.998Z" fill="#F6F6F6"/>
<g opacity="0.33">
<path opacity="0.54" d="M196.288 135.896L189.911 145.408C189.594 144.547 189.299 143.598 189.028 142.637C188.809 141.856 188.607 141.065 188.429 140.305C188.186 139.298 187.978 138.343 187.811 137.53C189.313 134.328 191.587 130.327 192.932 129.63C193.196 130.058 193.465 130.5 193.734 130.962C194.14 131.661 194.551 132.401 194.959 133.181C195.407 134.037 195.85 134.938 196.288 135.886V135.896Z" fill="#F6F6F6"/>
</g>
<path d="M266.637 116.394L266.814 117.815C266.877 118.286 266.945 118.757 267.03 119.222L267.094 119.571L267.166 119.919L267.242 120.261C267.271 120.376 267.299 120.492 267.328 120.604C267.443 121.064 267.574 121.52 267.717 121.979C267.481 121.56 267.287 121.117 267.138 120.659C267.101 120.545 267.064 120.43 267.031 120.317L266.936 119.969L266.855 119.616L266.785 119.263C266.7 118.789 266.646 118.31 266.62 117.829C266.592 117.351 266.598 116.871 266.637 116.394Z" fill="#DCEEF3"/>
<path d="M268.881 117.714C268.941 118.03 268.985 118.345 269.028 118.655L269.156 119.597L269.279 120.538C269.32 120.852 269.361 121.167 269.386 121.488C269.261 121.192 269.16 120.887 269.085 120.575C269.007 120.265 268.946 119.951 268.905 119.634C268.862 119.316 268.838 118.996 268.831 118.676C268.822 118.354 268.839 118.033 268.881 117.714Z" fill="#DCEEF3"/>
<path d="M270.159 110.412C270.073 110.754 269.988 111.096 269.896 111.439C269.804 111.781 269.725 112.116 269.644 112.456L269.584 112.713L269.526 112.97L269.413 113.483C269.341 113.826 269.27 114.168 269.189 114.515C269.168 114.161 269.178 113.805 269.218 113.452C269.235 113.275 269.264 113.1 269.291 112.924C269.318 112.749 269.359 112.576 269.397 112.402C269.48 112.057 269.584 111.717 269.709 111.385C269.83 111.048 269.981 110.722 270.159 110.412Z" fill="#DCEEF3"/>
<path d="M268.93 107.094C268.789 107.661 268.636 108.221 268.487 108.782C268.337 109.343 268.189 109.903 268.047 110.465L267.937 110.886L267.832 111.308L267.62 112.151C267.481 112.715 267.344 113.279 267.192 113.843C267.241 113.261 267.319 112.683 267.426 112.11C267.476 111.823 267.537 111.538 267.597 111.254C267.657 110.97 267.73 110.686 267.8 110.403C267.947 109.839 268.11 109.279 268.297 108.726C268.485 108.173 268.69 107.627 268.93 107.094Z" fill="#DCEEF3"/>
<path d="M291.07 118.651L291.657 118.537C291.463 118.582 291.267 118.618 291.07 118.651Z" fill="#FDB23D"/>
<path opacity="0.67" d="M267.232 80.068C267.238 80.0295 267.244 79.9893 267.246 79.95C267.255 79.9689 267.259 79.9901 267.257 80.011C267.254 80.0319 267.246 80.0517 267.232 80.068Z" fill="#3A0302"/>
<path d="M253.922 114.46L253.968 114.496V114.502C253.937 114.535 253.88 114.465 253.922 114.46Z" fill="#A33307"/>
<path d="M281.904 115.938C281.89 115.893 281.878 115.852 281.866 115.803C281.907 115.866 281.916 115.908 281.904 115.938Z" fill="#A33307"/>
<path d="M135.253 70.2769C135.12 70.2769 134.992 70.224 134.898 70.1298C134.804 70.0355 134.751 69.9077 134.751 69.7745V66.7602C134.751 66.627 134.804 66.4992 134.898 66.405C134.992 66.3107 135.12 66.2578 135.253 66.2578C135.387 66.2578 135.514 66.3107 135.609 66.405C135.703 66.4992 135.756 66.627 135.756 66.7602V69.7745C135.756 69.9077 135.703 70.0355 135.609 70.1298C135.514 70.224 135.387 70.2769 135.253 70.2769Z" fill="#CC0000"/>
<path d="M135.253 61.0179C135.12 61.0179 134.992 60.9649 134.898 60.8707C134.804 60.7765 134.751 60.6487 134.751 60.5155V56.9988H138.266C138.399 56.9988 138.527 57.0517 138.621 57.1459C138.715 57.2401 138.768 57.3679 138.768 57.5012C138.768 57.6344 138.715 57.7622 138.621 57.8564C138.527 57.9506 138.399 58.0035 138.266 58.0035H135.754V60.5155C135.754 60.6484 135.701 60.7759 135.607 60.8701C135.514 60.9643 135.386 61.0174 135.253 61.0179Z" fill="#CC0000"/>
<path d="M186.184 58.0035H180.193C180.06 58.0035 179.932 57.9506 179.838 57.8564C179.744 57.7622 179.691 57.6344 179.691 57.5012C179.691 57.3679 179.744 57.2401 179.838 57.1459C179.932 57.0517 180.06 56.9988 180.193 56.9988H186.184C186.317 56.9988 186.445 57.0517 186.539 57.1459C186.634 57.2401 186.687 57.3679 186.687 57.5012C186.687 57.6344 186.634 57.7622 186.539 57.8564C186.445 57.9506 186.317 58.0035 186.184 58.0035ZM174.202 58.0035H168.211C168.078 58.0035 167.95 57.9506 167.856 57.8564C167.762 57.7622 167.709 57.6344 167.709 57.5012C167.709 57.3679 167.762 57.2401 167.856 57.1459C167.95 57.0517 168.078 56.9988 168.211 56.9988H174.202C174.336 56.9988 174.463 57.0517 174.558 57.1459C174.652 57.2401 174.705 57.3679 174.705 57.5012C174.705 57.6344 174.652 57.7622 174.558 57.8564C174.463 57.9506 174.336 58.0035 174.202 58.0035ZM162.22 58.0035H156.229C156.096 58.0035 155.968 57.9506 155.874 57.8564C155.78 57.7622 155.727 57.6344 155.727 57.5012C155.727 57.3679 155.78 57.2401 155.874 57.1459C155.968 57.0517 156.096 56.9988 156.229 56.9988H162.22C162.354 56.9988 162.481 57.0517 162.576 57.1459C162.67 57.2401 162.723 57.3679 162.723 57.5012C162.723 57.6344 162.67 57.7622 162.576 57.8564C162.481 57.9506 162.354 58.0035 162.22 58.0035ZM150.238 58.0035H144.248C144.114 58.0035 143.986 57.9506 143.892 57.8564C143.798 57.7622 143.745 57.6344 143.745 57.5012C143.745 57.3679 143.798 57.2401 143.892 57.1459C143.986 57.0517 144.114 56.9988 144.248 56.9988H150.238C150.372 56.9988 150.499 57.0517 150.594 57.1459C150.688 57.2401 150.741 57.3679 150.741 57.5012C150.741 57.6344 150.688 57.7622 150.594 57.8564C150.499 57.9506 150.372 58.0035 150.238 58.0035Z" fill="#CC0000"/>
<path d="M195.694 58.0035H192.177C192.043 58.0035 191.916 57.9505 191.821 57.8563C191.727 57.7621 191.674 57.6343 191.674 57.5011C191.674 57.3678 191.727 57.24 191.821 57.1458C191.916 57.0516 192.043 56.9987 192.177 56.9987H194.689V54.4868C194.689 54.4208 194.702 54.3555 194.727 54.2945C194.752 54.2336 194.789 54.1782 194.836 54.1315C194.883 54.0849 194.938 54.0479 194.999 54.0226C195.06 53.9974 195.125 53.9844 195.191 53.9844C195.257 53.9844 195.323 53.9974 195.383 54.0226C195.444 54.0479 195.5 54.0849 195.546 54.1315C195.593 54.1782 195.63 54.2336 195.655 54.2945C195.681 54.3555 195.694 54.4208 195.694 54.4868V58.0035Z" fill="#CC0000"/>
<path d="M195.188 47.8624C195.055 47.8624 194.927 47.8094 194.833 47.7152C194.739 47.621 194.686 47.4932 194.686 47.36V43.8433H198.203C198.336 43.8433 198.464 43.8962 198.558 43.9904C198.652 44.0846 198.705 44.2124 198.705 44.3456C198.705 44.4789 198.652 44.6067 198.558 44.7009C198.464 44.7951 198.336 44.848 198.203 44.848H195.693V47.36C195.693 47.4262 195.68 47.4917 195.655 47.5528C195.63 47.6139 195.592 47.6694 195.545 47.7161C195.498 47.7628 195.443 47.7998 195.382 47.8249C195.32 47.85 195.255 47.8627 195.188 47.8624Z" fill="#CC0000"/>
<path d="M259.575 44.848H253.438C253.305 44.848 253.177 44.7951 253.083 44.7009C252.989 44.6067 252.936 44.4789 252.936 44.3456C252.936 44.2124 252.989 44.0846 253.083 43.9904C253.177 43.8962 253.305 43.8433 253.438 43.8433H259.575C259.709 43.8433 259.836 43.8962 259.931 43.9904C260.025 44.0846 260.078 44.2124 260.078 44.3456C260.078 44.4789 260.025 44.6067 259.931 44.7009C259.836 44.7951 259.709 44.848 259.575 44.848ZM247.301 44.848H241.164C241.031 44.848 240.903 44.7951 240.809 44.7009C240.715 44.6067 240.662 44.4789 240.662 44.3456C240.662 44.2124 240.715 44.0846 240.809 43.9904C240.903 43.8962 241.031 43.8433 241.164 43.8433H247.302C247.435 43.8433 247.563 43.8962 247.657 43.9904C247.751 44.0846 247.804 44.2124 247.804 44.3456C247.804 44.4789 247.751 44.6067 247.657 44.7009C247.563 44.7951 247.435 44.848 247.302 44.848H247.301ZM235.027 44.848H228.89C228.756 44.848 228.629 44.7951 228.534 44.7009C228.44 44.6067 228.387 44.4789 228.387 44.3456C228.387 44.2124 228.44 44.0846 228.534 43.9904C228.629 43.8962 228.756 43.8433 228.89 43.8433H235.027C235.16 43.8433 235.288 43.8962 235.382 43.9904C235.476 44.0846 235.529 44.2124 235.529 44.3456C235.529 44.4789 235.476 44.6067 235.382 44.7009C235.288 44.7951 235.16 44.848 235.027 44.848ZM222.752 44.848H216.615C216.482 44.848 216.354 44.7951 216.26 44.7009C216.166 44.6067 216.113 44.4789 216.113 44.3456C216.113 44.2124 216.166 44.0846 216.26 43.9904C216.354 43.8962 216.482 43.8433 216.615 43.8433H222.752C222.886 43.8433 223.013 43.8962 223.108 43.9904C223.202 44.0846 223.255 44.2124 223.255 44.3456C223.255 44.4789 223.202 44.6067 223.108 44.7009C223.013 44.7951 222.886 44.848 222.752 44.848ZM210.478 44.848H204.338C204.205 44.848 204.077 44.7951 203.983 44.7009C203.888 44.6067 203.835 44.4789 203.835 44.3456C203.835 44.2124 203.888 44.0846 203.983 43.9904C204.077 43.8962 204.205 43.8433 204.338 43.8433H210.475C210.608 43.8433 210.736 43.8962 210.83 43.9904C210.925 44.0846 210.978 44.2124 210.978 44.3456C210.978 44.4789 210.925 44.6067 210.83 44.7009C210.736 44.7951 210.608 44.848 210.475 44.848H210.478Z" fill="#CC0000"/>
<path d="M268.727 50.655C268.593 50.655 268.466 50.6021 268.371 50.5078C268.277 50.4136 268.224 50.2858 268.224 50.1526V44.8463H265.712C265.579 44.8463 265.451 44.7934 265.357 44.6992C265.263 44.605 265.21 44.4772 265.21 44.3439C265.21 44.2107 265.263 44.0829 265.357 43.9887C265.451 43.8945 265.579 43.8416 265.712 43.8416H269.229V50.1509C269.229 50.217 269.216 50.2825 269.191 50.3437C269.166 50.4048 269.129 50.4604 269.083 50.5072C269.036 50.5541 268.98 50.5912 268.919 50.6166C268.858 50.6419 268.793 50.655 268.727 50.655Z" fill="#CC0000"/>
<path d="M269.158 50.8964C265.234 50.8665 262.028 54.2642 261.996 58.4844C261.973 61.4337 265.396 67.8184 267.458 71.3958V73.9574H268.984C269.039 73.8718 276.173 62.7954 276.204 58.5923C276.236 54.3712 273.081 50.9255 269.158 50.8964ZM269.08 61.2052C267.447 61.1932 266.135 59.8358 266.147 58.1746C266.16 56.5134 267.493 55.1791 269.125 55.1877C270.757 55.1962 272.071 56.557 272.058 58.2183C272.045 59.8795 270.712 61.2172 269.08 61.2052Z" fill="#CC0000"/>
<path d="M135.068 73.9578C125.336 73.8842 117.382 82.2248 117.302 92.5844C117.246 99.8241 125.737 115.497 130.852 124.279V130.567H134.637C134.775 130.357 152.472 103.167 152.548 92.8491C152.629 82.4874 144.801 74.0292 135.068 73.9578ZM134.875 99.2632C130.826 99.2338 127.569 95.9017 127.601 91.8239C127.633 87.746 130.939 84.4707 134.987 84.4917C139.036 84.5127 142.295 87.8532 142.263 91.931C142.232 96.0089 138.924 99.2926 134.875 99.2632Z" fill="#CC0000"/>
<path d="M267.633 50.8957C263.709 50.8666 260.502 54.2635 260.471 58.4837C260.439 62.7039 267.458 73.9575 267.458 73.9575C267.458 73.9575 274.647 62.8117 274.679 58.5915C274.711 54.3713 271.556 50.9256 267.633 50.8957ZM267.555 61.2053C265.923 61.1925 264.61 59.8359 264.623 58.1739C264.635 56.5118 265.968 55.1784 267.6 55.1878C269.232 55.1972 270.545 56.5572 270.533 58.2192C270.521 59.8813 269.187 61.2173 267.555 61.2053Z" fill="#E83535"/>
<path d="M131.864 73.9577C122.131 73.8863 114.176 82.2245 114.097 92.5837C114.019 102.943 131.431 130.567 131.431 130.567C131.431 130.567 149.265 103.208 149.344 92.8484C149.423 82.4892 141.597 74.0313 131.864 73.9577ZM131.671 99.2643C127.622 99.2328 124.365 95.903 124.397 91.8232C124.429 87.7434 127.734 84.4703 131.783 84.4934C135.832 84.5165 139.089 87.8547 139.059 91.9345C139.03 96.0144 135.72 99.2937 131.671 99.2643Z" fill="#E83535"/>
<path d="M269.055 104.391L269.083 104.378C269.094 104.392 269.08 104.395 269.055 104.391Z" fill="#F26027"/>
<path d="M93.3519 200.099C93.3519 192.333 88.1881 185.99 81.6901 185.589V185.569H81.2694C81.1915 185.569 81.1148 185.569 81.0369 185.569C80.9009 185.569 80.765 185.569 80.629 185.577L76.0231 185.615C69.4611 186.21 64.2974 192.472 64.2974 200.099C64.2974 207.726 69.4611 213.988 76.0231 214.583V214.63H81.6913V214.609C88.1881 214.208 93.3519 207.866 93.3519 200.099Z" fill="#CC0000"/>
<path d="M176.122 200.099C176.122 192.333 170.957 185.99 164.459 185.589V185.569H164.038C163.961 185.569 163.884 185.569 163.806 185.569C163.669 185.569 163.533 185.569 163.397 185.577L158.792 185.615C152.229 186.21 147.065 192.472 147.065 200.099C147.065 207.726 152.229 213.988 158.792 214.583V214.63H164.459V214.609C170.956 214.208 176.122 207.866 176.122 200.099Z" fill="#CC0000"/>
<path d="M209.362 179.193C209.467 178.403 209.847 177.493 209.772 176.452C209.008 165.992 207.429 165.553 206.992 165.117C206.458 164.582 205.132 164.412 204.82 163.747C201.217 156.008 197.35 149.561 195.416 148.945C169.018 140.541 127.155 142.5 114.512 149.259C94.243 160.092 84.0618 165.339 70.3104 171.068C69.2202 171.522 62.5409 175.417 59.8701 185.705C59.8468 185.793 59.7271 185.821 59.6527 185.88C57.183 187.841 56.4194 193.451 56.4194 197.003C56.4194 201.293 56.6798 205.506 61.3496 206.351C67.3513 207.435 82.5405 207.82 103.67 208.468C103.651 208.336 103.637 208.201 103.629 208.065C103.621 207.929 103.616 207.781 103.612 207.638C103.031 204.832 103.061 201.892 103.461 199.058C104.07 194.747 106.287 190.193 110.285 188.094C111.071 187.674 111.961 187.49 112.849 187.566C113.41 187.337 113.995 187.173 114.592 187.075C116.211 186.823 117.478 186.809 119.1 187.095C120.277 187.303 121.402 187.771 122.476 188.283C124.477 189.235 126.311 190.706 127.822 192.311C129.426 194.009 130.869 195.948 131.936 198.029C133.598 201.272 134.726 205.041 134.109 208.623H135.587C153.19 208.623 171.564 208.961 186.227 208.378C185.968 205.88 186.025 203.359 186.395 200.875C186.889 197.431 188.336 193.694 191.031 191.368C193.54 189.208 196.713 187.97 200.022 187.858C201.514 187.801 203.111 187.975 204.507 188.534C205.655 188.972 206.726 189.591 207.678 190.368C208.349 190.901 208.84 191.569 209.36 192.252C211.104 194.576 211.515 197.83 211.698 200.634C211.785 201.974 211.778 203.318 211.794 204.662C212.916 204.138 213.13 203.554 213.976 203.278C214.23 203.194 214.635 202.799 214.707 202.664C214.879 202.344 216.334 202.697 216.642 196.307C217.142 185.589 209.341 179.318 209.362 179.193Z" fill="url(#paint0_linear)"/>
<path opacity="0.27" d="M61.3528 190.154C65.3788 186.375 71.1155 178.344 76.1666 176.052C81.6534 173.562 88.0678 173.293 93.98 172.091C96.38 171.604 108.715 166.147 111.147 165.829C110.047 165.576 107.188 166.099 106.082 165.872C102.541 165.655 100.483 166.337 96.9356 166.288C94.6797 166.259 83.1876 165.256 81.1839 166.295C79.0535 167.4 74.8381 169.139 71.8477 170.429C71.3364 170.646 70.8203 170.862 70.2996 171.079C69.2095 171.534 62.5313 175.428 59.8594 185.723C59.8361 185.81 59.7164 185.839 59.642 185.898C58.4286 186.861 57.629 188.704 57.127 190.752C60.4544 190.254 61.5818 190.158 61.3528 190.154Z" fill="#FFA0A0"/>
<path opacity="0.19" d="M192.903 183.409C195.302 182.647 197.7 180.685 197.154 177.959C197.045 176.87 196.064 175.999 195.083 176.107C186.582 176.544 163.052 175.587 162.24 175.618C161.182 175.706 141.774 176.78 134.579 175.798C132.726 175.471 129.904 175.235 128.488 177.088C127.616 178.178 129.55 180.147 130.165 181.465C135.069 191.983 142.221 195.072 152.084 194.198C153.27 194.198 167.068 194.345 167.945 194.314C169.7 194.268 174.47 193.558 175.578 192.106C178.637 188.101 190.397 184.282 192.903 183.409Z" fill="#FFA0A0"/>
<path d="M209.346 179.225C209.452 178.435 209.832 177.525 209.756 176.484C208.993 166.024 207.412 165.584 206.976 165.148C206.443 164.615 205.117 164.443 204.804 163.778C204.708 163.571 204.611 163.365 204.513 163.159C203.894 163.397 203.256 163.608 202.602 163.792C201.746 163.919 200.636 163.792 199.78 163.908C199.547 164.696 206.351 172.25 208.786 178.204C209.03 178.509 209.22 178.855 209.346 179.225Z" fill="url(#paint1_linear)"/>
<path d="M132.428 199.549C133.674 202.419 134.404 205.593 133.881 208.623H135.36C152.962 208.623 171.336 208.961 186.001 208.378C185.741 205.88 185.796 203.359 186.167 200.875C186.199 200.658 186.234 200.439 186.273 200.22C182.932 201.455 158.322 204.135 132.428 199.549Z" fill="#FFA0A0"/>
<path d="M66.6781 180.421C64.7755 182.433 62.9834 182.184 61.4144 181.569C60.996 181.406 62.7753 178.701 64.4978 176.534C66.6944 173.77 70.8087 170.784 71.0062 170.748C72.6694 170.449 70.7657 176.097 66.6781 180.421Z" fill="#9C1A1A"/>
<path d="M66.842 179.631C64.7779 181.478 63.2158 181.589 61.6457 180.974C61.2284 180.812 62.9009 177.879 64.6675 175.744C67.4382 172.384 70.4612 170.93 70.6622 170.894C72.3149 170.595 68.9049 177.784 66.842 179.631Z" fill="white"/>
<path d="M117.012 172.095C117.744 173.681 113.446 178.939 108.76 180.88C104.074 182.821 97.6109 183.679 97.3308 183.205C95.7595 180.519 99.1474 173.35 103.839 171.409C108.531 169.468 115.708 169.269 117.012 172.095Z" fill="#9C1A1A"/>
<path d="M115.944 172.425C116.598 173.843 112.758 178.54 108.568 180.274C104.378 182.008 98.6101 182.772 98.359 182.344C96.9574 179.945 99.9862 173.542 104.17 171.808C108.354 170.074 114.779 169.903 115.944 172.425Z" fill="white"/>
<path d="M93.708 185.197C93.708 185.346 93.3407 186.693 93.1896 186.833C92.0274 187.926 87.081 187.462 80.4923 187.431C73.0541 187.395 66.878 187.131 66.8838 185.825C66.8838 185.662 67.4033 184.539 67.5811 184.381C68.8387 183.276 71.8058 182.497 78.3108 182.529C85.7468 182.565 93.7196 183.891 93.708 185.197Z" fill="#E93535"/>
<path d="M93.163 200.184C93.163 201.678 93.2641 203.489 90.4898 204.299C87.604 205.142 81.751 204.953 76.9743 204.953C70.5495 204.953 64.5233 204.569 61.5794 203.094C61.0418 202.842 60.5875 202.441 60.2704 201.939C59.9532 201.437 59.7864 200.854 59.7896 200.26C59.7896 198.955 59.8256 196.302 62.1512 195.356C65.259 194.094 71.1608 194.808 76.5175 194.808C81.1014 194.808 87.7098 194.884 90.7618 195.846C93.9521 196.856 93.163 198.626 93.163 200.184Z" fill="url(#paint2_linear)"/>
<path d="M64.9568 196.549L64.9453 197.24L87.3581 197.611L87.3696 196.921L64.9568 196.549Z" fill="#FFA0A0"/>
<path d="M64.926 198.365L64.9146 199.055L87.3274 199.427L87.3388 198.736L64.926 198.365Z" fill="#FFA0A0"/>
<path d="M65.6276 200.635L65.6138 201.326L88.0297 201.774L88.0435 201.084L65.6276 200.635Z" fill="#FFA0A0"/>
<path d="M64.8698 201.707L64.8584 202.397L87.2712 202.769L87.2826 202.078L64.8698 201.707Z" fill="#FFA0A0"/>
<path d="M63.7167 199.929C63.7167 201.208 63.1356 202.242 62.4266 202.242C61.7176 202.242 61.1377 201.208 61.1377 199.929C61.1377 198.651 61.7188 197.616 62.4266 197.616C63.1344 197.616 63.7167 198.651 63.7167 199.929Z" fill="#FFCFCF"/>
<path d="M91.2198 200.465C91.2198 201.744 90.6387 202.778 89.9297 202.778C89.2208 202.778 88.6396 201.742 88.6396 200.465C88.6396 199.188 89.2208 198.151 89.9297 198.151C90.6387 198.151 91.2198 199.187 91.2198 200.465Z" fill="#FFCFCF"/>
<path d="M204.79 163.119C205.784 165.13 203.47 164.267 200.132 164.019C199.701 163.987 193.077 158.368 190.094 153.074C189.048 151.22 194.583 148.261 197.212 150.331C198.436 151.296 202.811 159.115 204.79 163.119Z" fill="#9C1A1A"/>
<path d="M204.505 162.791C205.435 164.698 203.433 163.771 200.312 163.536C199.91 163.506 193.756 158.225 190.965 153.209C189.989 151.454 195.071 148.553 197.438 150.602C198.759 151.747 202.655 158.999 204.505 162.791Z" fill="#CC0000"/>
<path opacity="0.22" d="M193.524 157.084C195.412 155.763 197.508 154.767 199.724 154.138C198.706 152.412 197.804 151.047 197.292 150.602C194.925 148.553 189.844 151.454 190.82 153.209C191.606 154.578 192.51 155.874 193.524 157.084Z" fill="url(#paint3_linear)"/>
<path d="M209.392 172.521H206.198L206.218 170.785L209.167 170.784L209.392 172.521Z" fill="white"/>
<path d="M204.172 167.735C203.336 167.735 201.465 164.688 202.301 164.688H206.247C207.188 164.638 208.541 166.936 208.541 167.771L204.172 167.735Z" fill="white"/>
<path d="M201.778 173.418C201.778 175.393 200.67 176.996 199.303 176.996C197.937 176.996 196.829 175.395 196.829 173.418C196.829 171.441 197.937 169.839 199.303 169.839C200.67 169.839 201.778 171.442 201.778 173.418Z" fill="#9C1A1A"/>
<path d="M201.565 173.418C201.565 175.224 200.553 176.688 199.303 176.688C198.054 176.688 197.043 175.224 197.043 173.418C197.043 171.612 198.055 170.148 199.303 170.148C200.552 170.148 201.565 171.613 201.565 173.418Z" fill="#FFDCDC"/>
<path d="M153.074 145.954C135.159 144.314 122.034 139.159 81.1837 166.293C80.8188 166.536 85.5316 166.694 85.642 166.694C89.3205 166.694 93.8171 166.415 105.424 165.893C110.679 165.661 121.869 166.316 122.318 166.22C126.619 165.31 142.698 146.811 153.001 146.145C152.993 146.076 153.066 146.025 153.074 145.954Z" fill="#9C1A1A"/>
<path d="M121.34 165.184C120.89 165.28 110.707 164.88 105.453 165.117C93.8447 165.639 90.1395 166.219 86.1891 166.156C86.0729 166.156 82.0353 166.285 82.4003 166.04C123.745 138.576 135.967 145.769 148.568 145.769C148.946 145.769 151.757 146.002 151.456 146.024C141.575 146.616 125.783 164.242 121.34 165.184Z" fill="#CC0000"/>
<path d="M182.679 173.575C182.685 173.777 182.651 173.979 182.579 174.169C182.506 174.358 182.397 174.532 182.258 174.679C182.118 174.826 181.951 174.945 181.766 175.028C181.58 175.11 181.381 175.156 181.178 175.161L175.824 175.31C175.414 175.321 175.017 175.169 174.719 174.888C174.421 174.606 174.247 174.218 174.236 173.808L174.221 173.247C174.21 172.837 174.361 172.44 174.643 172.142C174.925 171.844 175.313 171.671 175.722 171.659L181.078 171.512C181.281 171.506 181.483 171.54 181.672 171.613C181.862 171.685 182.035 171.794 182.182 171.934C182.329 172.073 182.448 172.24 182.531 172.426C182.613 172.611 182.659 172.81 182.664 173.013L182.679 173.575Z" fill="#E93535"/>
<path d="M182.673 173.348C182.681 173.496 182.63 173.64 182.531 173.751C182.433 173.861 182.294 173.927 182.147 173.936L174.243 174.153C174.096 174.153 173.954 174.095 173.849 173.99C173.745 173.886 173.686 173.744 173.686 173.596C173.679 173.45 173.731 173.307 173.829 173.198C173.928 173.089 174.066 173.023 174.212 173.015L182.115 172.797C182.263 172.797 182.404 172.856 182.509 172.96C182.613 173.065 182.672 173.206 182.673 173.354V173.348Z" fill="#FBD4DA"/>
<path d="M103.581 208.466C102.07 199.149 103.797 184.096 119.64 184.3C135.154 184.497 134.663 203.052 134.907 208.623L103.581 208.466Z" fill="#9C1A1A"/>
<path d="M186 208.378C182.772 200.376 185.374 185.937 199.523 186.172C213.379 186.404 213.738 197.706 213.967 203.278L212.921 204.118L186 208.378Z" fill="#9C1A1A"/>
<path d="M129.168 202.778C129.168 196.618 125.804 191.356 121.056 189.24V188.247L115.389 188.294C108.826 188.889 103.663 195.151 103.663 202.778C103.663 210.404 108.826 216.667 115.389 217.262V217.309H121.056V216.317C125.804 214.2 129.168 208.937 129.168 202.778Z" fill="#CC0000"/>
<path d="M132.718 202.778C132.718 210.797 127.205 217.306 120.399 217.306C113.593 217.306 108.079 210.797 108.079 202.778C108.079 194.758 113.594 188.25 120.399 188.25C127.204 188.25 132.718 194.753 132.718 202.778Z" fill="#CC0000"/>
<path d="M121.17 206.095L126.223 210.379C127.932 208.77 127.734 207.907 128.126 205.321L122.746 202.785L128.365 200.306C127.863 198.544 127.629 197.607 126.463 196.37L121.534 199.589L122.706 193.729C121.768 193.38 120.681 192.949 119.64 192.949C118.578 192.949 117.978 193.123 117.023 193.486L117.821 199.589L113.183 195.969C112.074 197.108 111.632 198.086 111.09 199.702L115.713 203.064L110.759 205.868C111.067 208.488 111.428 208.824 113.084 210.5L118.055 206.014L116.762 213.685C117.475 213.877 118.846 214.094 119.61 214.094C120.233 214.094 121.756 213.87 122.346 213.746L121.17 206.095Z" fill="url(#paint4_linear)"/>
<path d="M119.637 192.519C114.385 192.519 110.128 197.371 110.128 203.355C110.128 209.34 114.385 214.192 119.637 214.192C124.889 214.192 129.148 209.341 129.148 203.355C129.148 197.37 124.892 192.519 119.637 192.519ZM119.637 213.223C114.855 213.223 110.979 208.806 110.979 203.355C110.979 197.905 114.855 193.489 119.637 193.489C124.42 193.489 128.296 197.906 128.296 203.355C128.296 208.805 124.422 213.223 119.637 213.223Z" fill="url(#paint5_linear)"/>
<path d="M202.591 189.545H196.823V217.279H202.591V189.545Z" fill="#CC0000"/>
<path d="M208.736 203.426C208.736 211.097 203.528 217.309 197.105 217.309C190.681 217.309 185.474 211.094 185.474 203.426C185.474 195.759 190.681 189.545 197.105 189.545C203.528 189.545 208.736 195.759 208.736 203.426Z" fill="#CC0000"/>
<path d="M201.836 217.308C208.26 217.308 213.468 211.093 213.468 203.426C213.468 195.76 208.26 189.545 201.836 189.545C195.412 189.545 190.205 195.76 190.205 203.426C190.205 211.093 195.412 217.308 201.836 217.308Z" fill="#CC0000"/>
<path d="M203.434 206.044L208.041 210.136C209.602 208.599 209.42 207.774 209.779 205.303L204.872 202.881L209.996 200.513C209.538 198.83 209.324 197.935 208.262 196.753L203.767 199.827L204.829 194.234C203.973 193.901 202.982 193.489 202.032 193.489C201.063 193.489 200.516 193.655 199.645 194.002L200.374 199.832L196.143 196.374C195.131 197.463 194.729 198.397 194.237 199.941L198.453 203.152L193.934 205.825C194.217 208.329 194.544 208.649 196.056 210.251L200.589 205.965L199.414 213.295C200.064 213.477 201.314 213.685 202.012 213.685C202.58 213.685 203.969 213.471 204.507 213.348L203.434 206.044Z" fill="white"/>
<path d="M202.039 193.072C197.249 193.072 193.366 197.708 193.366 203.425C193.366 209.142 197.249 213.778 202.039 213.778C206.83 213.778 210.713 209.143 210.713 203.425C210.713 197.707 206.825 193.072 202.039 193.072ZM202.039 212.852C197.678 212.852 194.142 208.631 194.142 203.425C194.142 198.22 197.678 193.999 202.039 193.999C206.401 193.999 209.937 198.22 209.937 203.425C209.937 208.631 206.397 212.853 202.039 212.853V212.852Z" fill="url(#paint6_linear)"/>
<path opacity="0.39" d="M186.533 165.225C186.607 166.205 186.757 166.595 186.488 167.515C186.398 167.825 186.295 168.128 186.179 168.425C185.165 172.075 183.639 175.454 182.111 178.792C181.995 179.168 181.878 179.548 181.762 179.933L177.539 193.764L177.331 194.445C176.967 195.452 176.604 196.521 176.181 197.565C176.041 197.914 175.893 198.263 175.736 198.6C174.374 201.835 170.559 203.797 167.147 203.755L165.978 203.769C157.995 203.858 137.316 204.342 136.99 203.906C136.226 202.926 136.305 199.291 136.292 198.837C135.965 188.39 135.26 166.005 135.26 166.005C135.249 165.631 135.087 165.332 134.9 165.338C134.713 165.344 134.571 165.652 134.583 166.026C134.583 166.026 135.256 187.448 135.593 198.16C135.601 198.393 135.508 202.909 136.406 204.36C136.727 204.877 158.448 204.606 166.043 204.497C166.422 204.497 166.795 204.485 167.159 204.475C170.994 204.452 174.92 202.598 176.488 198.865C176.648 198.521 176.8 198.175 176.942 197.826C177.372 196.78 177.732 195.706 178.049 194.667L178.265 193.953C179.543 189.719 181.061 184.716 182.449 180.114C182.565 179.731 182.681 179.351 182.798 178.974C184.397 175.896 185.378 172.625 186.655 169.313C186.8 168.997 186.991 168.696 187.081 168.363C187.343 167.375 187.475 166.373 187.133 165.255C187.067 164.946 186.733 165.26 186.533 165.225Z" fill="#E83535"/>
<path d="M188.391 166.116L135.032 166C134.152 165.985 134.044 164.638 134.839 163.782L136.515 161.309C144.367 150.201 155.227 146.803 156.101 146.818L181.123 147.716C182.003 147.731 184.442 150.718 184.426 151.598C184.426 151.597 189.271 166.133 188.391 166.116Z" fill="#9C1A1A"/>
<path d="M187.714 164.365C187.7 165.179 188.122 165.376 187.283 165.361L136.641 165.254C135.801 165.239 135.699 164.001 136.457 163.212L138.056 160.939C145.547 150.722 155.902 147.595 156.741 147.609L180.609 148.434C181.449 148.449 183.775 151.197 183.761 152.006L187.714 164.365Z" fill="#CC0000"/>
<path opacity="0.22" d="M85.73 166.167C85.9195 166.043 86.1112 165.922 86.3111 165.807C88.9773 164.219 92.0177 163.103 94.843 161.936C96.0742 161.428 97.3271 160.981 98.6017 160.594C99.8442 160.204 101.106 159.877 102.381 159.615C102.816 159.528 103.252 159.445 103.689 159.366C104.279 159.176 104.875 158.999 105.48 158.841C107.272 158.375 109.089 158.008 110.921 157.74C115.119 157.12 119.328 156.53 123.568 156.302C125.99 156.17 128.416 156.123 130.842 156.125C131.736 156.125 132.628 156.135 133.521 156.148C139.466 151.331 146.275 146.334 151.457 146.025C151.758 146.007 148.947 145.771 148.569 145.771C135.968 145.771 123.746 138.576 82.4014 166.043C82.1073 166.237 84.6549 166.192 85.73 166.167Z" fill="#FFA0A0"/>
<g opacity="0.52">
<path opacity="0.22" d="M187.713 164.409L185.238 156.668L176.254 165.384L187.282 165.408C188.121 165.42 187.7 165.218 187.713 164.409Z" fill="#FFA0A0"/>
<path opacity="0.22" d="M159.415 147.746L141.311 165.308L152.375 165.331L170.122 148.116L159.415 147.746Z" fill="#FFA0A0"/>
</g>
<path d="M142.742 162.946H135.549V164.636H142.742V162.946Z" fill="#9C1A1A"/>
<path d="M148.908 161.613C149.757 165.652 146.41 165.13 143.33 165.13C140.25 165.13 136.672 165.652 137.751 161.613C138.216 159.863 140.25 158.333 143.33 158.333C146.41 158.333 148.535 159.841 148.908 161.613Z" fill="#FFA0A0"/>
<path d="M144.872 164.102C144.122 164.102 143.916 162.216 144.667 162.216H149.004C149.121 162.707 149.03 163.758 148.679 164.124L144.872 164.102Z" fill="white"/>
<circle cx="132.255" cy="93.1832" r="13.8853" fill="white"/>
<path d="M138.222 97.1515L134.266 93.183L138.222 89.2145C138.757 88.6782 138.757 87.7665 138.222 87.1766C137.688 86.6403 136.779 86.6403 136.191 87.1766L132.235 91.1451L128.279 87.1766C127.744 86.6403 126.835 86.6403 126.247 87.1766C125.713 87.7129 125.713 88.6246 126.247 89.2145L130.203 93.183L126.247 97.1515C125.713 97.6878 125.713 98.5995 126.247 99.1894C126.782 99.7257 127.691 99.7257 128.279 99.1894L132.235 95.2209L136.191 99.1894C136.725 99.7257 137.634 99.7257 138.222 99.1894C138.81 98.5995 138.81 97.6878 138.222 97.1515Z" fill="#CC0000"/>
<defs>
<linearGradient id="paint0_linear" x1="136.536" y1="143.385" x2="136.536" y2="208.72" gradientUnits="userSpaceOnUse">
<stop stop-color="#FFA0A0"/>
<stop offset="1" stop-color="#FFDCDC"/>
</linearGradient>
<linearGradient id="paint1_linear" x1="28622.7" y1="20113.7" x2="29481.8" y2="20113.7" gradientUnits="userSpaceOnUse">
<stop stop-color="#FFA0A0"/>
<stop offset="1" stop-color="#67A3D8"/>
</linearGradient>
<linearGradient id="paint2_linear" x1="54937" y1="15615.3" x2="64568.7" y2="15615.3" gradientUnits="userSpaceOnUse">
<stop stop-color="#CC0000"/>
<stop offset="1" stop-color="#00264C"/>
</linearGradient>
<linearGradient id="paint3_linear" x1="25162.8" y1="7978.7" x2="25863.9" y2="7978.7" gradientUnits="userSpaceOnUse">
<stop stop-color="#D7EDFA"/>
<stop offset="1" stop-color="#A7CFEE"/>
</linearGradient>
<linearGradient id="paint4_linear" x1="36705.9" y1="32332.7" x2="39372.4" y2="32332.7" gradientUnits="userSpaceOnUse">
<stop stop-color="white"/>
<stop offset="1" stop-color="#EDB0BA"/>
</linearGradient>
<linearGradient id="paint5_linear" x1="39542.1" y1="33102.9" x2="42654.7" y2="33102.9" gradientUnits="userSpaceOnUse">
<stop stop-color="white"/>
<stop offset="1" stop-color="#EDB0BA"/>
</linearGradient>
<linearGradient id="paint6_linear" x1="48580.9" y1="31647.7" x2="51170.2" y2="31647.7" gradientUnits="userSpaceOnUse">
<stop stop-color="white"/>
<stop offset="1" stop-color="#EDB0BA"/>
</linearGradient>
</defs>
</svg>
