<svg width="19" height="22" viewBox="0 0 19 22" fill="none" xmlns="http://www.w3.org/2000/svg">
<path fill-rule="evenodd" clip-rule="evenodd" d="M9.84871 7.15023C10.719 7.15023 11.4347 7.88562 11.4372 8.83C11.4372 9.39286 11.1687 9.91844 10.7319 10.2258C10.5749 10.3368 10.5012 10.5332 10.5422 10.7208L11.1491 13.3035H8.54626L9.15309 10.7208C9.19665 10.5332 9.12043 10.3368 8.96338 10.2258C8.52658 9.91802 8.26065 9.39244 8.25813 8.83C8.26107 7.88562 8.97678 7.15023 9.84871 7.15023ZM9.84871 6.20166C8.44031 6.20166 7.30957 7.3948 7.30957 8.8321C7.30957 9.53232 7.73339 10.1015 8.2062 10.5923L7.60398 13.1725C7.47541 13.7223 7.86824 14.2546 8.44408 14.2546H11.2512C11.8296 14.2546 12.2199 13.7223 12.093 13.1725L11.4895 10.5923C11.9624 10.1015 12.3862 9.53232 12.3862 8.8321C12.3862 7.3948 11.2559 6.20166 9.84871 6.20166Z" fill="#A1A4A8" stroke="#A1A4A8" stroke-width="0.2"/>
<path d="M9.84867 1.97939L17.7492 4.72541V7.54724C17.7492 13.7227 14.6321 17.3604 9.84867 19.9586C5.06564 17.3604 1.94898 13.7202 1.94898 7.54724V4.72541L9.84867 1.97939ZM9.69413 1.02789L1.31828 3.93976C1.12857 4.00509 1 4.18643 1 4.38703V7.54724C1 14.1566 4.52204 18.2424 9.6288 20.9444C9.76616 21.0185 9.93242 21.0185 10.0715 20.9444C15.1757 18.2424 18.6986 14.1566 18.6986 7.54724V4.38703C18.6986 4.18643 18.5717 4.00509 18.3803 3.93976L10.0061 1.02789C9.89054 0.986434 9.78585 0.995229 9.69413 1.02789Z" fill="#A1A4A8" stroke="#A1A4A8" stroke-width="0.2"/>
</svg>
