<svg width="23" height="20" viewBox="0 0 23 20" fill="none" xmlns="http://www.w3.org/2000/svg">
<path d="M1.85158 7.53704C2.04804 7.53704 2.23645 7.459 2.37536 7.32008C2.51428 7.18116 2.59232 6.99275 2.59232 6.7963V1.48148H7.90714C8.10359 1.48148 8.292 1.40344 8.43092 1.26452C8.56984 1.12561 8.64788 0.937197 8.64788 0.740741C8.64788 0.544284 8.56984 0.355874 8.43092 0.216958C8.292 0.0780421 8.10359 0 7.90714 0H1.85158C1.65512 0 1.46671 0.0780421 1.3278 0.216958C1.18888 0.355874 1.11084 0.544284 1.11084 0.740741V6.7963C1.11084 6.99275 1.18888 7.18116 1.3278 7.32008C1.46671 7.459 1.65512 7.53704 1.85158 7.53704Z" fill="#75C1D4"/>
<path d="M7.90714 18.5185H2.59232V13.2037C2.59232 13.0073 2.51428 12.8189 2.37536 12.6799C2.23645 12.541 2.04804 12.463 1.85158 12.463C1.65512 12.463 1.46671 12.541 1.3278 12.6799C1.18888 12.8189 1.11084 13.0073 1.11084 13.2037V19.2593C1.11084 19.4557 1.18888 19.6441 1.3278 19.7831C1.46671 19.922 1.65512 20 1.85158 20H7.90714C8.10359 20 8.292 19.922 8.43092 19.7831C8.56984 19.6441 8.64788 19.4557 8.64788 19.2593C8.64788 19.0628 8.56984 18.8744 8.43092 18.7355C8.292 18.5966 8.10359 18.5185 7.90714 18.5185Z" fill="#75C1D4"/>
<path d="M14.315 1.48148H19.6298V6.7963C19.6298 6.99275 19.7078 7.18116 19.8467 7.32008C19.9856 7.459 20.1741 7.53704 20.3705 7.53704C20.567 7.53704 20.7554 7.459 20.8943 7.32008C21.0332 7.18116 21.1113 6.99275 21.1113 6.7963V0.740741C21.1113 0.544284 21.0332 0.355874 20.8943 0.216958C20.7554 0.0780421 20.567 0 20.3705 0H14.315C14.1185 0 13.9301 0.0780421 13.7912 0.216958C13.6523 0.355874 13.5742 0.544284 13.5742 0.740741C13.5742 0.937197 13.6523 1.12561 13.7912 1.26452C13.9301 1.40344 14.1185 1.48148 14.315 1.48148Z" fill="#75C1D4"/>
<path d="M19.6298 13.2037V18.5185H14.315C14.1185 18.5185 13.9301 18.5966 13.7912 18.7355C13.6523 18.8744 13.5742 19.0628 13.5742 19.2593C13.5742 19.4557 13.6523 19.6441 13.7912 19.7831C13.9301 19.922 14.1185 20 14.315 20H20.3705C20.567 20 20.7554 19.922 20.8943 19.7831C21.0332 19.6441 21.1113 19.4557 21.1113 19.2593V13.2037C21.1113 13.0073 21.0332 12.8189 20.8943 12.6799C20.7554 12.541 20.567 12.463 20.3705 12.463C20.1741 12.463 19.9856 12.541 19.8467 12.6799C19.7078 12.8189 19.6298 13.0073 19.6298 13.2037Z" fill="#75C1D4"/>
<path d="M21.4815 9.25928H0.740741C0.544284 9.25928 0.355874 9.33732 0.216958 9.47624C0.0780421 9.61515 0 9.80356 0 10C0 10.1965 0.0780421 10.3849 0.216958 10.5238C0.355874 10.6627 0.544284 10.7408 0.740741 10.7408H21.4815C21.6779 10.7408 21.8664 10.6627 22.0053 10.5238C22.1442 10.3849 22.2222 10.1965 22.2222 10C22.2222 9.80356 22.1442 9.61515 22.0053 9.47624C21.8664 9.33732 21.6779 9.25928 21.4815 9.25928Z" fill="#75C1D4"/>
</svg>
