<svg width="18" height="16" viewBox="0 0 18 16" fill="none" xmlns="http://www.w3.org/2000/svg">
<path d="M1.48126 6.02963C1.63843 6.02963 1.78916 5.9672 1.90029 5.85606C2.01142 5.74493 2.07386 5.5942 2.07386 5.43704V1.18519H6.32571C6.48287 1.18519 6.6336 1.12275 6.74474 1.01162C6.85587 0.900486 6.9183 0.749758 6.9183 0.592593C6.9183 0.435427 6.85587 0.284699 6.74474 0.173566C6.6336 0.0624337 6.48287 0 6.32571 0H1.48126C1.3241 0 1.17337 0.0624337 1.06224 0.173566C0.951106 0.284699 0.888672 0.435427 0.888672 0.592593V5.43704C0.888672 5.5942 0.951106 5.74493 1.06224 5.85606C1.17337 5.9672 1.3241 6.02963 1.48126 6.02963Z" fill="#75C1D4"/>
<path d="M6.32571 14.8148H2.07386V10.563C2.07386 10.4058 2.01142 10.2551 1.90029 10.144C1.78916 10.0328 1.63843 9.9704 1.48126 9.9704C1.3241 9.9704 1.17337 10.0328 1.06224 10.144C0.951106 10.2551 0.888672 10.4058 0.888672 10.563V15.4074C0.888672 15.5646 0.951106 15.7153 1.06224 15.8265C1.17337 15.9376 1.3241 16 1.48126 16H6.32571C6.48287 16 6.6336 15.9376 6.74474 15.8265C6.85587 15.7153 6.9183 15.5646 6.9183 15.4074C6.9183 15.2503 6.85587 15.0995 6.74474 14.9884C6.6336 14.8773 6.48287 14.8148 6.32571 14.8148Z" fill="#75C1D4"/>
<path d="M11.452 1.18519H15.7038V5.43704C15.7038 5.5942 15.7663 5.74493 15.8774 5.85606C15.9885 5.9672 16.1392 6.02963 16.2964 6.02963C16.4536 6.02963 16.6043 5.9672 16.7154 5.85606C16.8266 5.74493 16.889 5.5942 16.889 5.43704V0.592593C16.889 0.435427 16.8266 0.284699 16.7154 0.173566C16.6043 0.0624337 16.4536 0 16.2964 0H11.452C11.2948 0 11.1441 0.0624337 11.0329 0.173566C10.9218 0.284699 10.8594 0.435427 10.8594 0.592593C10.8594 0.749758 10.9218 0.900486 11.0329 1.01162C11.1441 1.12275 11.2948 1.18519 11.452 1.18519Z" fill="#75C1D4"/>
<path d="M15.7038 10.563V14.8148H11.452C11.2948 14.8148 11.1441 14.8773 11.0329 14.9884C10.9218 15.0995 10.8594 15.2503 10.8594 15.4074C10.8594 15.5646 10.9218 15.7153 11.0329 15.8265C11.1441 15.9376 11.2948 16 11.452 16H16.2964C16.4536 16 16.6043 15.9376 16.7154 15.8265C16.8266 15.7153 16.889 15.5646 16.889 15.4074V10.563C16.889 10.4058 16.8266 10.2551 16.7154 10.144C16.6043 10.0328 16.4536 9.9704 16.2964 9.9704C16.1392 9.9704 15.9885 10.0328 15.8774 10.144C15.7663 10.2551 15.7038 10.4058 15.7038 10.563Z" fill="#75C1D4"/>
<path d="M17.1852 7.40741H0.592593C0.435427 7.40741 0.284699 7.46984 0.173566 7.58098C0.0624337 7.69211 0 7.84284 0 8C0 8.15717 0.0624337 8.3079 0.173566 8.41903C0.284699 8.53016 0.435427 8.59259 0.592593 8.59259H17.1852C17.3424 8.59259 17.4931 8.53016 17.6042 8.41903C17.7153 8.3079 17.7778 8.15717 17.7778 8C17.7778 7.84284 17.7153 7.69211 17.6042 7.58098C17.4931 7.46984 17.3424 7.40741 17.1852 7.40741Z" fill="#75C1D4"/>
</svg>
