<svg width="14" height="14" viewBox="0 0 14 14" fill="none" xmlns="http://www.w3.org/2000/svg">
<path d="M7 0C3.13778 0 0 3.13776 0 7C0 10.8622 3.13778 14 7 14C10.8622 14 14 10.8622 14 7C14 3.13776 10.8622 0 7 0ZM7 0.636364C9.84355 0.636364 12.2429 2.4957 13.0604 5.06605C11.1579 4.45626 9.08044 4.13754 7 4.13636C4.91609 4.1402 2.83391 4.46222 0.929688 5.07599C1.74388 2.50006 4.15248 0.636364 7 0.636364ZM7 4.77273C9.15846 4.774 11.3117 5.12993 13.2493 5.80185C13.3232 6.19023 13.3636 6.58988 13.3636 7C13.3636 7.54972 13.2954 8.08231 13.1648 8.59091C12.8246 8.48982 12.464 8.43182 12.0909 8.43182C9.98595 8.43182 8.27273 10.145 8.27273 12.25C8.27273 12.5811 8.31703 12.9031 8.39702 13.2095C7.94715 13.3101 7.4805 13.3636 7 13.3636C6.5195 13.3636 6.05285 13.3101 5.60298 13.2095C5.68369 12.9032 5.72727 12.5827 5.72727 12.25C5.72727 10.145 4.01405 8.43182 1.90909 8.43182C1.53602 8.43182 1.17535 8.48624 0.835227 8.58593C0.705358 8.07876 0.636364 7.54804 0.636364 7C0.636364 6.59327 0.678017 6.19717 0.75071 5.81179C2.6864 5.13757 4.8419 4.7767 7 4.77273ZM6.66193 6.04545C6.308 6.04657 5.91664 6.0676 5.5831 6.23438C5.53002 6.26135 5.48558 6.30267 5.45482 6.35364C5.42406 6.40462 5.40822 6.4632 5.40909 6.52273V8.27273C5.4091 8.35711 5.44263 8.43804 5.50229 8.49771C5.56196 8.55738 5.64289 8.5909 5.72727 8.59091H8.27273C8.35711 8.5909 8.43804 8.55738 8.49771 8.49771C8.55737 8.43804 8.5909 8.35711 8.59091 8.27273V6.52273C8.59178 6.4632 8.57594 6.40462 8.54518 6.35364C8.51442 6.30267 8.46998 6.26135 8.4169 6.23438C7.9719 6.01187 7.42352 6.04625 7 6.04545C6.89395 6.04553 6.77991 6.04514 6.66193 6.04545ZM7 6.68182C7.34791 6.68182 7.71301 6.71184 7.95455 6.77131V7.95455H6.04545V6.77131C6.2871 6.71168 6.65254 6.68201 7 6.68182ZM1.90909 9.06818C3.67013 9.06818 5.09091 10.489 5.09091 12.25C5.09091 12.522 5.05595 12.7889 4.99148 13.0405C3.15366 12.4304 1.68837 11.0097 1.02415 9.19744C1.30573 9.11508 1.60086 9.06818 1.90909 9.06818ZM12.0909 9.06818C12.3991 9.06818 12.6943 9.11508 12.9759 9.19744C12.3122 11.0082 10.8492 12.4296 9.01349 13.0405C8.94816 12.7873 8.90909 12.5239 8.90909 12.25C8.90909 10.489 10.3299 9.06818 12.0909 9.06818Z" fill="#5BB2C9"/>
</svg>
