<svg width="14" height="14" viewBox="0 0 14 14" fill="none" xmlns="http://www.w3.org/2000/svg">
<path fill-rule="evenodd" clip-rule="evenodd" d="M7.73831 0.209232L8.41661 0.650124C8.68793 0.819698 8.95925 0.887528 9.26448 0.853613L9.7732 0.819698C10.3158 0.751869 10.7906 1.02319 11.028 1.49799L11.4011 2.2102C11.5368 2.48152 11.7403 2.68501 12.0455 2.82067L12.4864 3.02416C12.9951 3.22765 13.3003 3.70246 13.2664 4.24509L13.1986 5.05905C13.1986 5.36428 13.2664 5.6356 13.4699 5.90692L13.7412 6.27998C14.0804 6.72087 14.0804 7.29742 13.7751 7.73831L13.3682 8.41661C13.1647 8.68793 13.0969 8.95925 13.1647 9.26448L13.1986 9.7732C13.2664 10.3158 12.9951 10.7906 12.5203 11.028L11.8081 11.4011C11.5029 11.5368 11.3333 11.7403 11.1976 12.0455L10.9941 12.4864C10.7906 12.9951 10.3158 13.3003 9.73929 13.2664L8.95925 13.1986C8.65401 13.1986 8.3827 13.2664 8.11138 13.4699L7.73831 13.7412C7.29742 14.0804 6.72087 14.0804 6.24606 13.7751L5.60168 13.3682C5.33036 13.1647 5.05905 13.0969 4.75381 13.1647L4.24509 13.1986C3.70246 13.2664 3.22765 12.9951 2.95633 12.5203L2.61718 11.8081C2.48152 11.5029 2.27803 11.3333 1.9728 11.1976L1.53191 10.9941C1.02319 10.7906 0.717954 10.3158 0.751869 9.73929L0.819698 8.95925C0.819698 8.65401 0.751869 8.3827 0.54838 8.11138L0.277062 7.73831C-0.0620862 7.29742 -0.096001 6.72087 0.209232 6.24606L0.650124 5.60168C0.819698 5.33036 0.887528 5.05905 0.853613 4.75381L0.819698 4.24509C0.751869 3.70246 1.02319 3.22765 1.49799 2.95633L2.2102 2.61718C2.48152 2.48152 2.68501 2.27803 2.82067 1.9728L3.02416 1.53191C3.22765 1.02319 3.70246 0.717954 4.24509 0.751869L5.05905 0.819698C5.36428 0.819698 5.6356 0.751869 5.90692 0.54838L6.27998 0.277062C6.72087 -0.0620862 7.29742 -0.096001 7.73831 0.209232ZM4.41467 7.43308C4.21118 7.22959 4.21118 6.89044 4.41467 6.65304C4.65207 6.44955 4.99122 6.44955 5.19471 6.65304L6.31389 7.77223L8.82359 5.09296C9.02708 4.85556 9.36622 4.85556 9.56971 5.05905C9.80712 5.26254 9.80712 5.60168 9.60363 5.80517L6.72087 8.92533C6.51738 9.16273 6.14432 9.16273 5.94083 8.95925L4.41467 7.43308Z" fill="#219C7E"/>
</svg>
