<svg width="112" height="112" viewBox="0 0 112 112" fill="none" xmlns="http://www.w3.org/2000/svg">
<path fill-rule="evenodd" clip-rule="evenodd" d="M61.9065 1.67386L67.3329 5.20099C69.5034 6.55759 71.674 7.10022 74.1158 6.8289L78.1856 6.55759C82.5267 6.01495 86.3252 8.1855 88.2244 11.984L91.2089 17.6816C92.2942 19.8522 93.9221 21.4801 96.3639 22.5654L99.8911 24.1933C103.961 25.8212 106.403 29.6196 106.131 33.9607L105.589 40.4724C105.589 42.9142 106.131 45.0848 107.759 47.2553L109.93 50.2398C112.643 53.767 112.643 58.3794 110.201 61.9065L106.945 67.3329C105.317 69.5034 104.775 71.674 105.317 74.1158L105.589 78.1856C106.131 82.5267 103.961 86.3252 100.162 88.2244L94.4647 91.2089C92.0228 92.2942 90.6663 93.9221 89.581 96.3639L87.9531 99.8911C86.3252 103.961 82.5267 106.403 77.9143 106.131L71.674 105.589C69.2321 105.589 67.0616 106.131 64.891 107.759L61.9065 109.93C58.3794 112.643 53.767 112.643 49.9685 110.201L44.8135 106.945C42.6429 105.317 40.4724 104.775 38.0305 105.317L33.9607 105.589C29.6196 106.131 25.8212 103.961 23.6506 100.162L20.9375 94.4647C19.8522 92.0228 18.2243 90.6663 15.7824 89.581L12.2553 87.9531C8.1855 86.3252 5.74363 82.5267 6.01495 77.9143L6.55759 71.674C6.55759 69.2321 6.01495 67.0616 4.38704 64.891L2.21649 61.9065C-0.49669 58.3794 -0.768008 53.767 1.67386 49.9685L5.20099 44.8135C6.55759 42.6429 7.10022 40.4724 6.8289 38.0305L6.55759 33.9607C6.01495 29.6196 8.1855 25.8212 11.984 23.6506L17.6816 20.9375C19.8522 19.8522 21.4801 18.2243 22.5654 15.7824L24.1933 12.2553C25.8212 8.1855 29.6196 5.74363 33.9607 6.01495L40.4724 6.55759C42.9142 6.55759 45.0848 6.01495 47.2553 4.38704L50.2398 2.21649C53.767 -0.49669 58.3794 -0.768008 61.9065 1.67386ZM35.3173 59.4646C33.6894 57.8367 33.6894 55.1236 35.3173 53.2243C37.2166 51.5964 39.9297 51.5964 41.5576 53.2243L50.5111 62.1778L70.5887 40.7437C72.2166 38.8445 74.9298 38.8445 76.5577 40.4724C78.4569 42.1003 78.4569 44.8135 76.829 46.4414L53.767 71.4027C52.1391 73.3019 49.1546 73.3019 47.5266 71.674L35.3173 59.4646Z" fill="#219C7E"/>
</svg>
